<?xml version="1.0" encoding="utf-8"?>
<!-- Generator: Adobe Illustrator 23.0.4, SVG Export Plug-In . SVG Version: 6.00 Build 0)  -->
<!DOCTYPE svg PUBLIC "-//W3C//DTD SVG 1.1//EN" "http://www.w3.org/Graphics/SVG/1.1/DTD/svg11.dtd" [
	<!ENTITY ns_extend "http://ns.adobe.com/Extensibility/1.0/">
	<!ENTITY ns_ai "http://ns.adobe.com/AdobeIllustrator/10.0/">
	<!ENTITY ns_graphs "http://ns.adobe.com/Graphs/1.0/">
	<!ENTITY ns_vars "http://ns.adobe.com/Variables/1.0/">
	<!ENTITY ns_imrep "http://ns.adobe.com/ImageReplacement/1.0/">
	<!ENTITY ns_sfw "http://ns.adobe.com/SaveForWeb/1.0/">
	<!ENTITY ns_custom "http://ns.adobe.com/GenericCustomNamespace/1.0/">
	<!ENTITY ns_adobe_xpath "http://ns.adobe.com/XPath/1.0/">
]>
<svg version="1.1" xmlns:x="&ns_extend;" xmlns:i="&ns_ai;" xmlns:graph="&ns_graphs;"
	 xmlns="http://www.w3.org/2000/svg" xmlns:xlink="http://www.w3.org/1999/xlink" x="0px" y="0px" viewBox="0 0 1000 450"
	 enable-background="new 0 0 1000 450" xml:space="preserve">
<metadata>
	<sfw  xmlns="&ns_sfw;">
		<slices></slices>
		<sliceSourceBounds  bottomLeftOrigin="true" height="10435.057" width="7149.985" x="-5540.985" y="-2890"></sliceSourceBounds>
	</sfw>
</metadata>
<g id="FILL-BACKGROUND">
	<rect fill="#FFFFFF" width="1000" height="450"/>
</g>
<g id="N-DIMENSIONS">
</g>
<g id="N-TEXT">
</g>
<g id="AG-DIAGRAM">
	<g id="POLYLINE_4174_">
		<g>
			<g>
				
					<line fill="none" stroke="#F368E0" stroke-width="3.5" stroke-linecap="round" stroke-linejoin="round" x1="921.544" y1="355.779" x2="919.544" y2="355.779"/>
				
					<line fill="none" stroke="#F368E0" stroke-width="3.5" stroke-linecap="round" stroke-linejoin="round" stroke-dasharray="3.9781,6.9617" x1="912.582" y1="355.779" x2="73.701" y2="355.779"/>
				
					<line fill="none" stroke="#F368E0" stroke-width="3.5" stroke-linecap="round" stroke-linejoin="round" x1="70.22" y1="355.779" x2="68.22" y2="355.779"/>
			</g>
		</g>
	</g>
</g>
<g id="AG-DETAIL">
	<g id="POLYLINE_4574_">
		
			<path fill="none" stroke="#F368E0" stroke-width="2.25" stroke-linecap="round" stroke-linejoin="round" stroke-miterlimit="10" d="
			M657.198,291.113c1.711,0.142,3.598,0.366,5.288-0.059c2.482-0.625-0.08-2.446-1.158-3.085c-4.078-2.42-8.86-3.809-13.417-4.996
			c-4.892-1.275-9.887-2.154-14.889-2.865c-5.214-0.742-10.446-1.308-15.689-1.795c-5.275-0.49-10.56-0.858-15.845-1.215
			c-4.597-0.31-9.198-0.607-13.8-0.833c-4.868-0.239-9.738-0.439-14.607-0.659c-7.543-0.34-15.086-0.68-22.629-1.021
			c-3.278-0.148-6.556-0.322-9.836-0.44c-4.956-0.179-9.914-0.339-14.871-0.508c-7.605-0.26-15.209-0.52-22.814-0.78
			c-3.527-0.121-7.055-0.26-10.583-0.361c-5.175-0.147-10.351-0.257-15.526-0.386c-7.03-0.175-14.06-0.35-21.09-0.525
			c-4.035-0.1-8.071-0.155-12.107-0.182c-5.158-0.035-10.32-0.031-15.477,0.06c-5.377,0.095-10.753,0.279-16.12,0.612
			c-5.046,0.313-10.082,0.79-15.091,1.482c-4.946,0.683-9.866,1.617-14.682,2.944c-2.359,0.65-4.697,1.387-6.982,2.264
			c-1.775,0.682-3.656,1.406-5.21,2.527c-0.448,0.323-1.339,0.969-0.821,1.562c0.421,0.483,1.466,0.489,2.06,0.528"/>
	</g>
	<g id="POLYLINE_4573_">
		
			<path fill="none" stroke="#F368E0" stroke-width="2.25" stroke-linecap="round" stroke-linejoin="round" stroke-miterlimit="10" d="
			M353.629,188.497c-7.455-0.678-14.91-1.383-22.377-1.922c-8.138-0.587-16.276-1.133-24.424-1.565
			c-7.391-0.392-14.791-0.723-22.19-0.909c-7.816-0.196-15.638-0.371-23.457-0.384c-6.401-0.01-12.803,0.007-19.203,0.13
			c-10.581,0.202-21.162,0.405-31.743,0.607c-6.849,0.131-13.696,0.292-20.546,0.334c-7.501,0.046-15.011-0.057-22.505-0.403
			c-7.873-0.363-15.727-0.924-23.561-1.799c-7.612-0.85-15.191-1.984-22.725-3.361c-1.836-0.336-3.668-0.691-5.501-1.046"/>
	</g>
</g>
<g id="AG-TRANSPORT">
	<g id="POLYLINE_4170_">
		
			<path fill="none" stroke="#F368E0" stroke-width="2.75" stroke-linecap="round" stroke-linejoin="round" stroke-miterlimit="10" d="
			M828.714,319.95c6.758-0.495,13.517-0.989,20.275-1.484c11.775-0.862,23.549-1.723,35.324-2.585
			c6.397-0.468,12.79-0.926,19.178-1.499c3.817-0.342,7.642-0.7,11.432-1.27c1.669-0.251,3.403-0.471,5.016-0.987
			c0.457-0.146,1.313-0.374,1.168-0.998c-0.104-0.445-0.781-0.814-1.139-1.058c-2.929-1.997-6.349-3.398-8.899-5.921
			c-1.621-1.603-2.454-3.605-2.895-5.814c-0.727-3.637-0.874-7.438-0.713-11.136c0.178-4.089,0.986-8.1,1.545-12.146
			c0.492-3.557,0.694-7.181,0.079-10.737c-0.66-3.817-2.16-7.413-3.233-11.119c-2.077-7.176-1.193-14.454,1.111-21.479
			c0.991-3.022,2.149-6.368,4.17-8.881c0.438-0.545,0.939-1.035,1.515-1.433c0.814-0.563,2.224-0.904,2.591-1.91
			c0.369-1.011-0.618-2.042-1.277-2.691c-1.076-1.059-2.364-1.899-3.655-2.67c-3.344-1.996-6.939-3.572-10.523-5.08
			c-7.519-3.164-15.223-5.886-22.948-8.499c-7.69-2.601-15.451-4.991-23.264-7.197c-7.903-2.231-15.89-4.142-23.919-5.857
			c-7.749-1.656-15.572-3.039-23.411-4.19c-8.063-1.183-16.163-2.149-24.287-2.79c-8.773-0.692-17.559-1.068-26.348-1.5
			c-8.375-0.412-16.752-0.783-25.129-1.151c-7.828-0.343-15.667-0.606-23.5-0.818c-8.77-0.238-17.546-0.34-26.318-0.51
			c-8.293-0.16-16.597-0.069-24.891-0.095c-3.248-0.01-6.495-0.02-9.743-0.031"/>
	</g>
	<g id="POLYLINE_4169_">
		
			<path fill="none" stroke="#F368E0" stroke-width="2.75" stroke-linecap="round" stroke-linejoin="round" stroke-miterlimit="10" d="
			M657.198,291.113c-2.456-0.111-4.912-0.222-7.368-0.333c-5.825-0.263-11.649-0.526-17.474-0.79
			c-6.848-0.31-13.696-0.619-20.544-0.928c-5.627-0.254-11.254-0.509-16.881-0.763c-2.092-0.095-4.184-0.21-6.276-0.283
			c-1.574-0.055-3.15-0.084-4.724-0.125c-3.845-0.102-7.689-0.204-11.534-0.306c-5.497-0.146-10.994-0.292-16.49-0.438
			c-6.533-0.173-13.065-0.347-19.598-0.52c-6.921-0.184-13.841-0.367-20.762-0.551c-6.757-0.179-13.514-0.359-20.271-0.538
			c-5.946-0.158-11.892-0.316-17.838-0.473c-4.503-0.119-9.005-0.239-13.508-0.358c-2.486-0.066-4.971-0.132-7.457-0.198
			c-0.947-0.025-1.893-0.036-2.84-0.049c-3.959-0.052-7.918-0.104-11.878-0.155c-6.183-0.081-12.367-0.162-18.55-0.243
			c-6.929-0.091-13.858-0.181-20.787-0.272c-6.11-0.08-12.221-0.16-18.331-0.24c-3.751-0.049-7.503-0.098-11.254-0.147
			c-0.51-0.007-1.021-0.013-1.531-0.02"/>
	</g>
	<g id="POLYLINE_4168_">
		
			<line fill="none" stroke="#F368E0" stroke-width="2.75" stroke-linecap="round" stroke-linejoin="round" stroke-miterlimit="10" x1="392.921" y1="178.516" x2="375.456" y2="137.216"/>
	</g>
	<g id="POLYLINE_4167_">
		
			<line fill="none" stroke="#F368E0" stroke-width="2.75" stroke-linecap="round" stroke-linejoin="round" stroke-miterlimit="10" x1="368.823" y1="177.617" x2="356.189" y2="141.123"/>
	</g>
	<g id="POLYLINE_4166_">
		
			<path fill="none" stroke="#F368E0" stroke-width="2.75" stroke-linecap="round" stroke-linejoin="round" stroke-miterlimit="10" d="
			M311.302,172.861c-4.274-2.212-8.021-5.594-11.365-9.012c-1.347-1.376-2.819-2.847-3.737-4.562
			c-0.235-0.439-0.51-0.998-0.294-1.494c0.271-0.623,1.192-0.877,1.776-1.094c4.983-1.851,10.075-3.452,15.181-4.928
			c4.932-1.426,9.912-2.707,14.89-3.963c5.28-1.333,10.572-2.623,15.876-3.86c5.262-1.228,10.539-2.394,15.823-3.525
			c5.263-1.126,10.545-2.15,15.831-3.163c5.049-0.968,10.121-1.839,15.2-2.634c5.209-0.815,10.432-1.534,15.668-2.152
			c5.238-0.618,10.489-1.136,15.75-1.519c5.388-0.392,10.784-0.635,16.185-0.762c5.197-0.122,10.396-0.122,15.593-0.037
			c5.331,0.086,10.662,0.263,15.989,0.495c5.221,0.227,10.436,0.562,15.634,1.109c5.12,0.539,10.226,1.256,15.275,2.271
			c5,1.006,9.94,2.325,14.797,3.879c5.091,1.63,10.089,3.515,15.041,5.525c4.911,1.994,9.815,4.044,14.591,6.345
			c4.75,2.289,9.373,4.833,13.947,7.451c4.612,2.64,9.135,5.427,13.625,8.268c2.063,1.305,4.105,2.643,6.151,3.974"/>
	</g>
	<g id="POLYLINE_4165_">
		
			<path fill="none" stroke="#F368E0" stroke-width="2.75" stroke-linecap="round" stroke-linejoin="round" stroke-miterlimit="10" d="
			M547.076,181.594c-5.165,0.025-10.33,0.05-15.495,0.075c-4.396,0.021-8.794,0.085-13.19,0.06
			c-6.099-0.035-12.197-0.089-18.295-0.134c-3.116-0.023-6.228-0.053-9.343-0.121c-6.746-0.146-13.491-0.293-20.237-0.439
			c-4.81-0.104-9.621-0.182-14.43-0.313c-1.98-0.054-3.959-0.14-5.939-0.211c-5.383-0.193-10.767-0.385-16.15-0.578
			c-7.19-0.257-14.38-0.515-21.569-0.772c-7.261-0.26-14.521-0.52-21.782-0.78c-5.707-0.204-11.415-0.409-17.122-0.613
			c-2.431-0.087-4.862-0.161-7.292-0.261c-4.409-0.182-8.823-0.376-13.229-0.638c-5.41-0.322-10.821-0.619-16.224-1.038
			c-4.795-0.372-9.589-0.812-14.365-1.375c-4.868-0.573-9.743-1.233-14.538-2.266c-4.218-0.908-8.499-2.125-12.068-4.636
			c-2.755-1.938-5.906-4.704-7.12-7.96c-1.411-3.787,4.312-5.508,6.901-6.483c4.42-1.665,8.976-2.992,13.525-4.255
			c5.048-1.402,10.119-2.704,15.198-3.989c5.138-1.301,10.293-2.52,15.449-3.748c4.851-1.156,9.733-2.191,14.601-3.273
			c4.658-1.036,9.344-1.945,14.024-2.873c4.857-0.963,9.737-1.804,14.616-2.65c4.819-0.835,9.667-1.523,14.511-2.195
			c4.833-0.671,9.687-1.213,14.543-1.687c4.881-0.476,9.774-0.845,14.671-1.121c4.946-0.278,9.898-0.439,14.851-0.529
			c4.952-0.09,9.908-0.075,14.86,0.011c4.753,0.082,9.512,0.245,14.258,0.504c5.031,0.274,10.059,0.632,15.071,1.148
			c4.89,0.503,9.753,1.188,14.586,2.084c4.72,0.875,9.389,2.044,13.989,3.412c4.75,1.412,9.444,3.027,14.085,4.762
			c4.467,1.67,8.889,3.466,13.256,5.382c4.654,2.043,9.243,4.221,13.794,6.484c4.354,2.165,8.642,4.469,12.888,6.839
			c4.279,2.388,8.506,4.869,12.71,7.386c4.375,2.62,8.712,5.298,13.032,8.008c3.885,2.436,7.746,4.917,11.54,7.493
			c-5.444,0.158-10.887,0.317-16.331,0.475c-0.781,0.023-1.561,0.045-2.342,0.068"/>
	</g>
	<g id="POLYLINE_4164_">
		
			<path fill="none" stroke="#F368E0" stroke-width="2.75" stroke-linecap="round" stroke-linejoin="round" stroke-miterlimit="10" d="
			M605.648,180.303c6.117,5.028,12.241,10.106,17.643,15.915c2.397,2.577,4.666,5.345,6.349,8.45
			c1.76,3.249,2.743,6.891,3.291,10.53c1.15,7.643,0.228,15.52-0.608,23.149c-0.977,8.906-2.185,17.79-3.286,26.681
			c-0.905,7.301-1.862,14.591-2.918,21.872c-0.532,3.667-1.092,7.346-1.946,10.954c-0.659,2.787-1.502,5.752-3.461,7.932
			c-1.662,1.849-3.986,2.716-6.375,3.174c-3.421,0.655-6.969,0.669-10.441,0.701c-5.654,0.052-11.305,0.042-16.959,0.025
			c-10.986-0.034-21.973-0.068-32.959-0.102c-10.518-0.033-21.037-0.065-31.555-0.098c-4.26-0.013-8.517-0.03-12.777-0.1
			c-10.273-0.169-20.546-0.338-30.819-0.508c-7.122-0.117-14.247-0.374-21.365-0.659c-7.807-0.313-15.699-0.576-23.437-1.722
			c-3.309-0.49-6.671-1.166-9.685-2.67c-3.367-1.681-5.904-4.373-8.06-7.406c-4.483-6.309-8.283-13.247-11.821-20.121
			c-3.561-6.919-6.671-14.044-9.348-21.35c-2.769-7.556-5.171-15.246-7.329-22.997c-2.034-7.309-3.849-14.7-4.125-22.315
			c-0.131-3.603,0.029-7.184,0.757-10.722c0.727-3.535,1.923-6.958,3.349-10.268c1.502-3.486,3.285-6.834,5.159-10.131"/>
	</g>
	<g id="POLYLINE_4163_">
		
			<path fill="none" stroke="#F368E0" stroke-width="2.75" stroke-linecap="round" stroke-linejoin="round" stroke-miterlimit="10" d="
			M586.894,181.436c2.42,0.707,5.16,1.424,7.187,2.997c1.822,1.414,2.069,4.26-0.384,5.117c-2.374,0.829-5.198,0.598-7.664,0.564
			c-3.703-0.05-7.407-0.12-11.106-0.275c-1.248-0.052-2.65-0.031-3.773-0.666c-1.173-0.663-1.871-1.942-2.422-3.123"/>
	</g>
	<g id="POLYLINE_4162_">
		
			<path fill="none" stroke="#F368E0" stroke-width="2.75" stroke-linecap="round" stroke-linejoin="round" stroke-miterlimit="10" d="
			M546.711,176.804c-0.187,2.353-0.235,5.158,1.814,6.765c2.355,1.847,6.047,1.938,8.873,2.165
			c4.794,0.386,9.629,0.411,14.434,0.235c2.341-0.086,4.681-0.224,7.008-0.503c1.812-0.218,3.705-0.472,5.402-1.178
			c1.458-0.607,2.513-1.624,2.713-3.237c0.107-0.864,0.044-1.758-0.117-2.61c-0.398-2.099-1.487-3.974-3.004-5.463
			c-2.774-2.722-6.595-4.438-10.225-5.679c-4.283-1.464-8.843-2.231-13.372-2.173c-3.258,0.042-7.044,0.43-9.685,2.553
			c-1.922,1.545-2.942,3.891-3.441,6.255C546.911,174.881,546.789,175.842,546.711,176.804z"/>
	</g>
	<g id="POLYLINE_4161_">
		
			<path fill="none" stroke="#F368E0" stroke-width="2.75" stroke-linecap="round" stroke-linejoin="round" stroke-miterlimit="10" d="
			M894.365,217.12c-7.224-2.939-14.442-5.902-21.792-8.515c-7.627-2.711-15.318-5.173-23.13-7.297
			c-7.433-2.021-14.944-3.768-22.492-5.303c-7.936-1.614-15.909-2.99-23.909-4.242c-7.503-1.174-15.031-2.227-22.574-3.11
			c-7.688-0.9-15.384-1.804-23.098-2.462c-8.474-0.723-16.94-1.425-25.424-2.006c-8.078-0.553-16.161-1.003-24.248-1.381
			c-7.189-0.336-14.391-0.57-21.586-0.707c-8.219-0.157-16.434-0.328-24.655-0.304c-2.118,0.006-4.237,0.012-6.355,0.018"/>
	</g>
	<g id="POLYLINE_4160_">
		
			<path fill="none" stroke="#F368E0" stroke-width="2.75" stroke-linecap="round" stroke-linejoin="round" stroke-miterlimit="10" d="
			M874.531,282.433c-3.669-0.051-7.515,0.56-8.865,4.421c-0.877,2.508-1.338,5.497-0.686,8.118c0.478,1.924,1.606,4.034,3.364,5.049
			c2.209,1.274,5.014,1.368,7.495,1.36"/>
	</g>
	<g id="POLYLINE_4159_">
		
			<line fill="none" stroke="#F368E0" stroke-width="2.75" stroke-linecap="round" stroke-linejoin="round" stroke-miterlimit="10" x1="891.681" y1="282.684" x2="864.363" y2="282.279"/>
	</g>
	<g id="POLYLINE_4158_">
		
			<path fill="none" stroke="#F368E0" stroke-width="2.75" stroke-linecap="round" stroke-linejoin="round" stroke-miterlimit="10" d="
			M891.772,272.983c-0.054,4.637-0.047,9.279-0.18,13.914c-0.069,2.414-0.126,4.829-0.305,7.238
			c-0.118,1.593-0.171,3.427-0.932,4.877c-0.553,1.053-1.456,1.523-2.584,1.712c-2.162,0.361-4.412,0.408-6.598,0.509
			c-4.862,0.225-9.74,0.164-14.606,0.201c-4.802,0.036-9.597,0.109-14.398,0.219c-0.323,0.007-0.646,0.015-0.969,0.022"/>
	</g>
	<g id="POLYLINE_4157_">
		
			<path fill="none" stroke="#F368E0" stroke-width="2.75" stroke-linecap="round" stroke-linejoin="round" stroke-miterlimit="10" d="
			M900.618,273.592c-4.385-0.338-8.771-0.669-13.169-0.774c-4.069-0.097-8.292-0.137-12.28,0.79c-2.788,0.648-5.09,2.03-7.073,4.081
			c-2.761,2.857-4.972,6.278-7.223,9.535c-2.711,3.923-5.458,7.824-8.046,11.829c-1.008,1.561-2.05,3.147-2.806,4.85
			c-0.412,0.928-0.731,1.93-0.513,2.952c0.655,3.074,5.037,3.115,7.471,3.145c3.15,0.039,6.312-0.172,9.458-0.296
			c6.307-0.249,12.613-0.499,18.92-0.748c4.753-0.188,9.505-0.376,14.258-0.564c0.25-0.01,0.499-0.02,0.749-0.03"/>
	</g>
	<g id="POLYLINE_4156_">
		
			<path fill="none" stroke="#F368E0" stroke-width="2.75" stroke-linecap="round" stroke-linejoin="round" stroke-miterlimit="10" d="
			M907.726,283.803c2.112,0.077,4.231,0.16,6.344,0.056c1.328-0.065,2.991-0.11,4.118-0.923c1.819-1.313,2.096-4.261,2.325-6.247
			c0.245-2.124,0.362-4.264,0.436-6.4c0.071-2.041,0.198-4.145-0.106-6.173c-0.249-1.664-0.969-3.071-2.416-3.988
			c-1.033-0.654-2.221-1.034-3.39-1.358c-2.168-0.602-4.358-1.131-6.53-1.72c-0.522-0.141-1.043-0.283-1.565-0.424"/>
	</g>
	<g id="POLYLINE_4155_">
		
			<path fill="none" stroke="#F368E0" stroke-width="2.75" stroke-linecap="round" stroke-linejoin="round" stroke-miterlimit="10" d="
			M846.578,234.818c0.442-0.508,0.173-1.334,0-1.906c-0.396-1.306-0.992-2.545-1.438-3.834c-0.426-1.231-0.765-2.488-1.076-3.752
			c-0.279-1.13-0.422-2.521-1.005-3.562c-0.818-1.459-3.23-1.658-4.663-1.895c-2.835-0.47-5.714-0.714-8.579-0.92
			c-2.658-0.191-5.351-0.382-8.016-0.265c-0.672,0.029-1.415,0.055-2.062,0.275c-1.042,0.355-0.778,1.084-0.177,1.774
			c1.584,1.82,3.709,3.368,5.639,4.8c2.165,1.606,4.469,3.001,6.841,4.277c2.435,1.311,4.933,2.519,7.489,3.574
			c1.81,0.747,3.877,1.709,5.876,1.748C845.808,235.142,846.276,235.119,846.578,234.818z"/>
	</g>
	<g id="POLYLINE_4154_">
		
			<path fill="none" stroke="#F368E0" stroke-width="2.75" stroke-linecap="round" stroke-linejoin="round" stroke-miterlimit="10" d="
			M853.604,239.342c-3.183-5.172-5.629-10.768-6.796-16.748c-0.314-1.611-0.53-3.233-0.68-4.867"/>
	</g>
	<g id="POLYLINE_4153_">
		
			<path fill="none" stroke="#F368E0" stroke-width="2.75" stroke-linecap="round" stroke-linejoin="round" stroke-miterlimit="10" d="
			M901.696,209.867c-2.609,1.996-4.972,4.256-7.008,6.839c-1.995,2.532-3.623,5.302-5.211,8.1c-1.775,3.126-3.43,6.319-5.163,9.469
			c-0.989,1.798-1.989,3.845-3.62,5.164c-1.05,0.849-2.366,1.295-3.677,1.545c-3.141,0.599-6.415,0.23-9.568-0.079
			c-6.896-0.676-13.827-1.398-20.659-2.568c-6.367-1.09-12.222-2.983-17.724-6.411c-2.896-1.804-5.668-3.805-8.376-5.878
			c-2.384-1.826-4.956-3.663-6.953-5.924c-1.409-1.596-1.107-3.358,1.032-3.968c2.41-0.688,5.191-0.385,7.655-0.283
			c7.142,0.297,14.256,0.918,21.367,1.619c6.437,0.634,12.871,1.375,19.293,2.143c8.308,0.994,16.61,2.045,24.915,3.067
			c0.833,0.103,1.666,0.205,2.498,0.308"/>
	</g>
	<g id="POLYLINE_4152_">
		
			<path fill="none" stroke="#F368E0" stroke-width="2.75" stroke-linecap="round" stroke-linejoin="round" stroke-miterlimit="10" d="
			M382.167,327.202c0,0.853,0,1.705,0,2.558c0,0.602,0,1.205,0,1.807c0,0.115,0.094,0.83,0,0.927
			c-0.178,0.183-1.44,0.008-1.686,0.008c-3.747,0-7.494,0-11.241,0c-9.309,0-18.619,0-27.928,0c-0.641,0-1.281,0-1.922,0
			c-0.162,0-0.742,0.099-0.878,0c-0.23-0.168-0.046-1.592-0.046-1.91c0-1.069,0-2.139,0-3.208"/>
	</g>
	<g id="POLYLINE_4151_">
		
			<line fill="none" stroke="#F368E0" stroke-width="2.75" stroke-linecap="round" stroke-linejoin="round" stroke-miterlimit="10" x1="343.984" y1="327.384" x2="324.11" y2="327.384"/>
	</g>
	<g id="POLYLINE_4150_">
		
			<path fill="none" stroke="#F368E0" stroke-width="2.75" stroke-linecap="round" stroke-linejoin="round" stroke-miterlimit="10" d="
			M691.452,326.485c-0.366,1.434-0.733,2.868-1.099,4.302c-0.119,0.464-0.276,2.106-0.676,2.337
			c-0.22,0.127-0.893,0.002-1.139,0.002c-0.787,0.002-1.574,0.003-2.361,0.005c-6.103,0.013-12.206,0.025-18.309,0.038
			c-8.149,0.017-16.298,0.034-24.446,0.051c-6.618,0.014-13.236,0.027-19.854,0.041c-1.617,0.003-3.234,0.007-4.852,0.01
			c-0.2,0-0.456,0.047-0.612-0.051c-0.419-0.262-0.81-1.183-1.084-1.584c-0.581-0.848-1.161-1.696-1.742-2.544
			c-0.278-0.406-0.556-0.812-0.834-1.219"/>
	</g>
	<g id="POLYLINE_4149_">
		
			<path fill="none" stroke="#F368E0" stroke-width="2.75" stroke-linecap="round" stroke-linejoin="round" stroke-miterlimit="10" d="
			M893.232,315.273c0.132,2.244,0.263,4.488,0.395,6.732c0.062,1.063,0.075,0.89-0.916,0.948c-3.592,0.211-7.184,0.421-10.776,0.632
			c-11.105,0.651-22.21,1.302-33.315,1.953c-2.809,0.165-5.619,0.329-8.428,0.494c-0.134-2.28-0.267-4.561-0.401-6.841"/>
	</g>
	<g id="POLYLINE_4148_">
		
			<path fill="none" stroke="#F368E0" stroke-width="2.75" stroke-linecap="round" stroke-linejoin="round" stroke-miterlimit="10" d="
			M703.941,325.96c-4.799,0.195-9.597,0.384-14.394,0.639c-1.336,0.071-2.671,0.142-4.007,0.213"/>
	</g>
	<g id="POLYLINE_4147_">
		
			<path fill="none" stroke="#F368E0" stroke-width="2.75" stroke-linecap="round" stroke-linejoin="round" stroke-miterlimit="10" d="
			M202.154,320.693c-0.298-7.394-0.194-14.776,0.399-22.154c0.593-7.377,1.413-14.894,3.46-22.026
			c1.891-6.591,4.752-12.885,8.465-18.65c3.78-5.869,8.448-11.159,13.785-15.658c5.363-4.521,11.406-8.225,17.864-10.96
			c6.31-2.673,13.018-4.407,19.833-5.124c7.315-0.769,14.751-0.374,21.93,1.239c6.601,1.483,12.957,3.949,18.841,7.285
			c6.175,3.5,11.795,7.961,16.647,13.138c4.886,5.213,8.978,11.162,12.134,17.571c3.011,6.116,5.159,12.651,6.38,19.356
			c1.369,7.514,1.312,15.269,1.618,22.884c0.157,3.889,0.264,7.778,0.372,11.668c0.043,1.549,0.066,3.099,0.082,4.648
			c0.005,0.449,0.005,0.898,0.008,1.348c0.003,0.483-0.195,1.484,0.011,1.931c0.099,0.215-0.036,0.119,0.063,0.194
			c0.283,0.215,1.575,0.003,1.912,0.004c1.494,0.003,2.988,0.006,4.483,0.009c5.202,0.01,10.404,0.021,15.607,0.031
			c7.655,0.015,15.31,0.031,22.966,0.046c9.491,0.019,18.982,0.038,28.472,0.057c10.709,0.021,21.417,0.043,32.126,0.064
			c11.309,0.023,22.618,0.045,33.928,0.068c11.323,0.023,22.645,0.045,33.968,0.068c10.683,0.021,21.366,0.043,32.049,0.064
			c9.397,0.019,18.794,0.038,28.19,0.056c7.524,0.015,15.048,0.03,22.571,0.045c5.033,0.01,10.066,0.02,15.1,0.03
			c1.925,0.004,3.851-0.011,5.776,0.012c7.059,0.081,14.12,0.308,21.178,0.462c8.265,0.18,16.531,0.405,24.798,0.541
			c3.545,0.058,7.091,0.018,10.637-0.006c1.472-0.01,2.956,0.021,4.422-0.125c0.987-0.098,2.184-0.266,2.864-1.067
			c0.421-0.496,0.447-0.995,0.441-1.615c-0.01-0.955-0.026-1.911-0.027-2.866c-0.002-1.929,0.023-3.858,0.059-5.786
			c0.068-3.698,0.204-7.392,0.361-11.088c0.164-3.856,0.358-7.706,0.576-11.559c0.203-3.588,0.34-7.182,0.834-10.746
			c0.955-6.885,2.945-13.624,5.9-19.917c3.122-6.65,7.292-12.784,12.322-18.138c5.067-5.393,10.999-9.96,17.495-13.502
			c6.238-3.402,12.993-5.839,19.961-7.223c6.934-1.377,14.077-1.697,21.106-0.952c6.82,0.723,13.533,2.444,19.855,5.104
			c6.681,2.811,12.925,6.653,18.429,11.372c5.557,4.764,10.351,10.388,14.168,16.634c3.687,6.033,6.431,12.629,8.133,19.491
			c1.756,7.078,2.047,14.343,2.589,21.585c0.534,7.136,1.032,14.269,1.421,21.414"/>
	</g>
	<g id="POLYLINE_4146_">
		
			<line fill="none" stroke="#F368E0" stroke-width="2.75" stroke-linecap="round" stroke-linejoin="round" stroke-miterlimit="10" x1="828.353" y1="313.428" x2="815.459" y2="315.012"/>
	</g>
	<g id="POLYLINE_4145_">
		
			<path fill="none" stroke="#F368E0" stroke-width="2.75" stroke-linecap="round" stroke-linejoin="round" stroke-miterlimit="10" d="
			M223.203,246.91c-8.125-0.278-16.251-0.556-24.376-0.834c-6.522-0.223-13.04-0.543-19.556-0.906
			c-6.514-0.362-13.275-0.69-19.557-2.592c-6.16-1.865-10.699-6.292-15.381-10.482c-6.02-5.389-12.061-10.746-18.145-16.062
			c-0.359-0.314-0.719-0.628-1.078-0.942"/>
	</g>
	<g id="POLYLINE_4144_">
		
			<path fill="none" stroke="#F368E0" stroke-width="2.75" stroke-linecap="round" stroke-linejoin="round" stroke-miterlimit="10" d="
			M333.405,124.593c-5.225,1.165-10.447,2.337-15.66,3.554c-5.308,1.239-10.591,2.577-15.882,3.887
			c-4.799,1.189-9.576,2.448-14.357,3.711c-4.922,1.3-9.831,2.632-14.737,3.988c-5.075,1.402-10.142,2.828-15.206,4.271
			c-4.871,1.389-9.728,2.814-14.583,4.257c-3.586,1.066-7.178,2.112-10.749,3.226c-5.442,1.697-10.884,3.395-16.326,5.092
			c-7.283,2.272-14.567,4.543-21.85,6.815c-4.64,1.447-9.279,2.894-13.919,4.342c-0.234,0.073-0.469,0.146-0.703,0.219"/>
	</g>
	<g id="POLYLINE_4143_">
		
			<path fill="none" stroke="#F368E0" stroke-width="2.75" stroke-linecap="round" stroke-linejoin="round" stroke-miterlimit="10" d="
			M83.887,228.346c3.713-4.246,7.552-8.405,10.959-12.906c3.209-4.238,6.404-8.712,8.84-13.448c1.31-2.545,2.219-5.234,2.785-8.038"
			/>
	</g>
	<g id="POLYLINE_4142_">
		
			<path fill="none" stroke="#F368E0" stroke-width="2.75" stroke-linecap="round" stroke-linejoin="round" stroke-miterlimit="10" d="
			M173.692,283.322c-0.684,1.398-2.284,1.023-3.533,0.943c-3.373-0.217-6.746-0.434-10.119-0.65
			c-3.762-0.242-7.525-0.484-11.287-0.725c-1.121-0.072-2.242-0.144-3.363-0.216c-0.489-0.031-0.973-0.033-1.411-0.288
			c-0.95-0.555-1.177-1.96-1.523-2.896c-0.289-0.78-0.601-1.518-0.153-2.311c0.728-1.289,2.338-0.911,3.55-0.845
			c7.201,0.39,14.401,0.781,21.602,1.171c1.989,0.108,4.024,0.1,6.004,0.325c0.71,0.081,1.329,0.446,1.621,1.126
			c0.369,0.861-0.06,1.595-0.428,2.366C174.33,281.988,174.011,282.655,173.692,283.322z"/>
	</g>
	<g id="POLYLINE_4141_">
		
			<line fill="none" stroke="#F368E0" stroke-width="2.75" stroke-linecap="round" stroke-linejoin="round" stroke-miterlimit="10" x1="202.154" y1="320.693" x2="217.668" y2="324.073"/>
	</g>
	<g id="POLYLINE_4140_">
		
			<path fill="none" stroke="#F368E0" stroke-width="2.75" stroke-linecap="round" stroke-linejoin="round" stroke-miterlimit="10" d="
			M202.154,320.693c-2.685-0.331-5.369-0.663-8.054-0.994c-6.337-0.782-12.675-1.565-19.012-2.347
			c-7.446-0.919-14.891-1.839-22.337-2.758c-5.909-0.73-11.819-1.459-17.728-2.189c-2.814-0.347-5.627-0.694-8.439-1.06
			c-3.334-0.434-7.08-0.676-10.012-2.491c-3.318-2.054-5.711-5.624-7.935-8.742c-1.799-2.523-3.582-5.059-5.373-7.588
			c-1.161-1.64-2.332-3.292-3.701-4.768c-2.082-2.245-4.53-3.612-7.532-4.178c-2.064-0.389-4.189-0.497-6.285-0.56
			c-2.444-0.074-4.995,0.041-7.419-0.35c-1.078-0.174-2.144-0.568-2.543-1.696c-0.488-1.375,0.381-2.419,1.723-2.679
			c1.954-0.378,4.095-0.146,6.067-0.1c2.424,0.057,4.848,0.119,7.269,0.257c4.353,0.247,8.884,0.668,12.878,2.551
			c3.905,1.841,6.842,5.016,9.667,8.19c3.133,3.52,6.13,7.21,10.119,9.807c3.787,2.465,8.088,3.95,12.429,5.101
			c4.595,1.219,9.278,2.116,13.962,2.914c4.883,0.832,9.779,1.589,14.681,2.303c4.949,0.721,9.901,1.423,14.865,2.029
			c4.896,0.598,9.8,1.114,14.71,1.578c2.605,0.246,5.21,0.493,7.816,0.739"/>
	</g>
	<g id="POLYLINE_4139_">
		
			<path fill="none" stroke="#F368E0" stroke-width="2.75" stroke-linecap="round" stroke-linejoin="round" stroke-miterlimit="10" d="
			M655.102,181.81c-7.805,0.191-15.61,0.381-23.414,0.572c-2.855,0.07-5.746,0.168-8.595-0.078c-2.16-0.186-3.803-0.845-5.655-1.954
			c-5.946-3.562-11.603-7.603-17.43-11.352c-6.263-4.029-12.592-7.948-19.006-11.732c-5.894-3.477-11.841-6.884-17.855-10.149
			c-6.647-3.609-13.329-7.126-20.112-10.473c-2.797-1.38-5.615-2.716-8.447-4.023c-2.212-1.021-4.423-2.041-6.635-3.062
			c-0.977-0.451-2.142-0.845-2.93-1.596c-1.761-1.677,1.036-3.707,2.303-4.612c1.149-0.82,2.46-1.45,3.559-2.331
			c1.178-0.945-1.16-1.431-1.849-1.645c-6.733-2.094-13.662-3.738-20.581-5.085c-6.791-1.322-13.648-2.314-20.533-2.991
			c-6.983-0.687-14-1.18-21.015-1.368c-7.378-0.197-14.748-0.25-22.128-0.141c-7.254,0.108-14.5,0.4-21.745,0.76
			c-6.754,0.336-13.521,0.815-20.25,1.499c-7.159,0.728-14.305,1.547-21.428,2.575c-7.193,1.038-14.369,2.216-21.526,3.478
			c-6.979,1.23-13.962,2.512-20.889,4.008c-0.977,0.211-6.919,1.069-5.186,3.12c0.87,1.029,2.218,1.654,3.257,2.494
			c0.747,0.604,1.532,1.286,2.055,2.102c0.736,1.148-0.199,1.603-1.235,1.935c-1.326,0.425-2.706,0.705-4.067,0.992
			c-3.544,0.748-7.1,1.44-10.643,2.196c-7.017,1.496-13.999,3.148-20.945,4.945c-6.167,1.595-12.299,3.299-18.43,5.025
			c-8.675,2.444-17.349,4.887-26.024,7.331c-5.391,1.518-10.753,3.143-16.127,4.719c-8.858,2.598-17.716,5.196-26.574,7.794
			c-5.261,1.543-10.581,2.853-16.026,3.554c-3.307,0.426-6.636,0.609-9.969,0.447c-3.458-0.168-6.889-0.672-10.345-0.852
			c-2.892-0.151-5.741,0.03-8.526,0.867c-3.168,0.952-6.173,2.407-9.225,3.666c-6.366,2.627-12.892,4.413-19.709,5.397
			c-6.736,0.973-13.575,1.44-20.369,0.871c-3.394-0.284-6.775-0.768-10.187-0.795c-2.196-0.017-4.595,0.035-6.642,0.937
			c-2.783,1.228-4.409,4.514-4.538,7.452c-0.12,2.707,1.622,5.29,3.897,6.66c1.625,0.979,3.635,1.033,5.424,1.544
			c3.4,0.971,6.777,2.099,10.122,3.241c1.941,0.663,3.879,1.492,5.328,2.99c1.499,1.55,2.443,3.596,2.972,5.665
			c0.406,1.59,0.565,3.263,0.122,4.863c-0.552,1.993-1.963,3.594-3.371,5.048c-2.35,2.427-4.79,4.901-7.406,7.045
			c-1.972,1.616-4.123,2.877-6.613,3.484c-2.75,0.671-5.603,0.688-8.417,0.748c-4.275,0.09-8.553,0.135-12.827,0.27
			c-1.957,0.062-4.305,0.014-6.108,0.921c-1.983,0.997-3.374,3.867-3.984,5.898c-0.365,1.214-0.352,2.394-0.002,3.609
			c0.44,1.525,1.131,2.976,1.683,4.462c0.617,1.663,1.181,3.348,1.651,5.059c0.823,2.997,1.164,5.954,0.721,9.047
			c-0.46,3.209-1.129,6.586-2.445,9.565c-0.437,0.99-0.989,1.92-1.669,2.762c-0.612,0.758-1.325,1.394-1.745,2.288
			c-1.049,2.233-0.806,5.036-0.665,7.418"/>
	</g>
	<g id="POLYLINE_4138_">
		
			<path fill="none" stroke="#F368E0" stroke-width="2.75" stroke-linecap="round" stroke-linejoin="round" stroke-miterlimit="10" d="
			M122.067,310.681c-1.985,1.211-4.549,1.156-6.776,0.929c-4.498-0.457-8.872-1.822-13.164-3.177
			c-4.182-1.32-8.674-2.531-12.539-4.648c-2.34-1.282-3.458-3.378-4.527-5.752c-2.07-4.598-4.055-9.229-6.221-13.783
			c-0.258-0.542-0.515-1.084-0.773-1.626"/>
	</g>
	<g id="POLYLINE_4137_">
		
			<path fill="none" stroke="#F368E0" stroke-width="2.75" stroke-linecap="round" stroke-linejoin="round" stroke-miterlimit="10" d="
			M655.102,181.81c-3.643-2.34-7.417-4.47-11.201-6.573c-3.779-2.101-7.565-4.192-11.384-6.221
			c-4.799-2.55-9.613-5.073-14.419-7.609c-3.506-1.85-7.041-3.644-10.566-5.457c-3.462-1.781-6.915-3.579-10.397-5.322
			c-4.98-2.494-9.958-4.992-14.94-7.481c-3.423-1.71-6.88-3.362-10.348-4.977c-4.288-1.998-8.572-3.999-12.903-5.903
			c-4.075-1.791-8.168-3.543-12.3-5.199c-4.092-1.64-8.199-3.248-12.354-4.723c-1.153-0.409-2.305-0.818-3.458-1.228"/>
	</g>
	<g id="POLYLINE_4136_">
		
			<path fill="none" stroke="#F368E0" stroke-width="2.75" stroke-linecap="round" stroke-linejoin="round" stroke-miterlimit="10" d="
			M417.832,202.35c3.618,0.022,7.233,0.22,10.816,0.744c3.128,0.458,6.414,1.083,9.26,2.521c1.065,0.538,2.467,1.348,2.718,2.619
			c0.262,1.329-1.012,2.325-2.013,2.929c-2.623,1.581-5.854,2.23-8.833,2.731c-7.018,1.178-14.343,1.24-21.4,0.363
			c-3.314-0.412-6.73-1.003-9.815-2.33c-1.125-0.484-2.404-1.113-3.131-2.137c-0.876-1.234-0.198-2.45,0.874-3.284
			c2.293-1.784,5.524-2.464,8.306-3.004c3.475-0.674,7.021-0.996,10.556-1.107C416.058,202.367,416.945,202.356,417.832,202.35z"/>
	</g>
	<g id="POLYLINE_4135_">
		
			<path fill="none" stroke="#F368E0" stroke-width="2.75" stroke-linecap="round" stroke-linejoin="round" stroke-miterlimit="10" d="
			M436.263,210.864c2.235-0.019,3.118-3.037,1.196-4.221c-0.561-0.346-1.16-0.339-1.789-0.339c-1.097,0-2.193,0-3.29,0
			c-8.542,0-17.085,0-25.627,0c-2.411,0-4.839-0.082-7.25,0c-1.891,0.064-3.18,2.19-1.835,3.762c1.03,1.204,3.195,0.798,4.586,0.798
			c3.849,0,7.699,0,11.548,0c7.345,0,14.691,0,22.036,0C435.981,210.864,436.122,210.864,436.263,210.864z"/>
	</g>
	<g id="POLYLINE_4134_">
		
			<path fill="none" stroke="#F368E0" stroke-width="2.75" stroke-linecap="round" stroke-linejoin="round" stroke-miterlimit="10" d="
			M267.326,293.562c0.001-1.907,1.23-3.654,3.026-4.297c1.795-0.643,3.856-0.073,5.065,1.401c1.21,1.473,1.368,3.606,0.388,5.241
			c-0.98,1.636-2.933,2.503-4.804,2.132c-1.863-0.369-3.335-1.908-3.623-3.785C267.343,294.025,267.326,293.794,267.326,293.562z"/>
	</g>
	<g id="POLYLINE_4133_">
		
			<path fill="none" stroke="#F368E0" stroke-width="2.75" stroke-linecap="round" stroke-linejoin="round" stroke-miterlimit="10" d="
			M231.413,293.562c0.036-4.176,0.641-8.317,1.915-12.3c1.249-3.901,3.082-7.602,5.433-10.956c2.393-3.414,5.323-6.454,8.644-8.976
			c3.288-2.497,6.956-4.483,10.843-5.876c3.878-1.389,7.966-2.179,12.082-2.339c4.175-0.162,8.378,0.328,12.403,1.45
			c3.946,1.1,7.711,2.797,11.152,5.019c3.499,2.26,6.643,5.072,9.286,8.291c2.625,3.197,4.761,6.801,6.294,10.643
			c1.528,3.831,2.471,7.881,2.785,11.994c0.317,4.158-0.018,8.366-0.985,12.422c-0.957,4.016-2.53,7.88-4.651,11.422
			c-2.117,3.534-4.773,6.739-7.853,9.475c-3.123,2.775-6.683,5.063-10.506,6.75c-3.748,1.654-7.734,2.732-11.804,3.198
			c-4.138,0.474-8.353,0.296-12.438-0.514c-4.057-0.805-7.995-2.234-11.618-4.231c-3.612-1.991-6.911-4.522-9.764-7.502
			c-2.884-3.012-5.294-6.478-7.122-10.225c-1.81-3.71-3.045-7.696-3.654-11.779C231.562,297.55,231.43,295.561,231.413,293.562z"/>
	</g>
	<g id="POLYLINE_4132_">
		
			<path fill="none" stroke="#F368E0" stroke-width="2.75" stroke-linecap="round" stroke-linejoin="round" stroke-miterlimit="10" d="
			M227.037,293.562c0.04-4.618,0.707-9.198,2.114-13.603c1.387-4.34,3.426-8.458,6.044-12.188c2.653-3.779,5.898-7.144,9.576-9.935
			c3.64-2.762,7.701-4.962,12.003-6.502c4.302-1.54,8.836-2.417,13.403-2.592c4.614-0.177,9.257,0.364,13.705,1.601
			c4.39,1.221,8.579,3.109,12.405,5.584c3.868,2.501,7.343,5.612,10.266,9.171s5.298,7.574,6.999,11.854
			c1.682,4.235,2.72,8.71,3.063,13.254c0.348,4.604-0.025,9.264-1.096,13.755c-1.06,4.445-2.803,8.722-5.15,12.642
			s-5.295,7.476-8.713,10.509c-3.453,3.065-7.385,5.593-11.608,7.46c-4.168,1.842-8.603,3.041-13.13,3.557
			c-4.576,0.521-9.236,0.323-13.754-0.573c-4.493-0.891-8.852-2.474-12.864-4.683c-3.997-2.201-7.649-5.001-10.807-8.295
			c-3.207-3.346-5.892-7.199-7.92-11.366c-1.989-4.087-3.347-8.464-4.03-12.957C227.204,298.037,227.057,295.804,227.037,293.562z"
			/>
	</g>
	<g id="POLYLINE_4131_">
		
			<path fill="none" stroke="#F368E0" stroke-width="2.75" stroke-linecap="round" stroke-linejoin="round" stroke-miterlimit="10" d="
			M209.673,293.562c0.056-6.423,0.992-12.78,2.944-18.907c1.913-6.004,4.747-11.707,8.368-16.863
			c3.686-5.249,8.192-9.926,13.305-13.8c5.073-3.844,10.724-6.893,16.717-9.035c5.931-2.121,12.191-3.322,18.484-3.565
			c6.436-0.249,12.905,0.512,19.109,2.241c6.073,1.692,11.884,4.316,17.171,7.75c5.348,3.473,10.155,7.768,14.202,12.697
			c4.065,4.95,7.354,10.53,9.723,16.48c2.321,5.83,3.755,12.013,4.229,18.271c0.487,6.421-0.021,12.917-1.52,19.18
			c-1.474,6.158-3.886,12.082-7.139,17.514c-3.253,5.433-7.336,10.356-12.069,14.562c-4.814,4.279-10.3,7.793-16.19,10.395
			c-5.74,2.536-11.868,4.191-18.103,4.898c-6.364,0.721-12.835,0.456-19.118-0.79c-6.255-1.241-12.311-3.451-17.898-6.525
			c-5.523-3.039-10.581-6.922-14.938-11.478c-4.452-4.655-8.177-9.996-10.997-15.788c-2.757-5.663-4.651-11.748-5.584-17.978
			C209.908,299.751,209.7,296.665,209.673,293.562z"/>
	</g>
	<g id="POLYLINE_4130_">
		
			<path fill="none" stroke="#F368E0" stroke-width="2.75" stroke-linecap="round" stroke-linejoin="round" stroke-miterlimit="10" d="
			M279.886,333.241c-1.061-3.234-2.122-6.468-3.183-9.702c-0.656-2.001-1.291-4.067-2.414-5.865
			c-0.484-0.775-1.173-1.744-2.152-1.876c-1.02-0.138-1.816,0.758-2.347,1.508c-1.206,1.704-1.902,3.773-2.55,5.737
			c-1.121,3.398-2.231,6.799-3.346,10.199"/>
	</g>
	<g id="POLYLINE_4129_">
		
			<path fill="none" stroke="#F368E0" stroke-width="2.75" stroke-linecap="round" stroke-linejoin="round" stroke-miterlimit="10" d="
			M276.132,321.817c-2.825,0.4-5.651,0.401-8.476,0.001"/>
	</g>
	<g id="POLYLINE_4128_">
		
			<path fill="none" stroke="#F368E0" stroke-width="2.75" stroke-linecap="round" stroke-linejoin="round" stroke-miterlimit="10" d="
			M269.842,297.641c0.235,1.951,0.431,3.952,0.152,5.909c-0.289,2.024-1.183,3.919-1.892,5.818
			c-1.74,4.655-2.889,9.496-4.156,14.294c-0.795,3.012-1.59,6.025-2.385,9.037"/>
	</g>
	<g id="POLYLINE_4127_">
		
			<path fill="none" stroke="#F368E0" stroke-width="2.75" stroke-linecap="round" stroke-linejoin="round" stroke-miterlimit="10" d="
			M273.937,297.641c-0.235,1.951-0.431,3.952-0.152,5.909c0.289,2.024,1.183,3.919,1.892,5.818c1.74,4.655,2.889,9.496,4.156,14.294
			c0.795,3.012,1.59,6.025,2.385,9.037"/>
	</g>
	<g id="POLYLINE_4126_">
		
			<path fill="none" stroke="#F368E0" stroke-width="2.75" stroke-linecap="round" stroke-linejoin="round" stroke-miterlimit="10" d="
			M268.643,296.77c-1.928,0.38-3.892,0.811-5.667,1.681c-1.836,0.9-3.362,2.336-4.948,3.597c-3.889,3.093-8.138,5.683-12.31,8.369
			c-2.619,1.687-5.238,3.374-7.858,5.061"/>
	</g>
	<g id="POLYLINE_4125_">
		
			<path fill="none" stroke="#F368E0" stroke-width="2.75" stroke-linecap="round" stroke-linejoin="round" stroke-miterlimit="10" d="
			M267.377,292.875c-1.783,0.826-3.625,1.631-5.573,1.971c-2.014,0.351-4.093,0.086-6.118-0.002
			c-4.965-0.217-9.924,0.186-14.878,0.465c-3.11,0.175-6.221,0.35-9.331,0.524"/>
	</g>
	<g id="POLYLINE_4124_">
		
			<path fill="none" stroke="#F368E0" stroke-width="2.75" stroke-linecap="round" stroke-linejoin="round" stroke-miterlimit="10" d="
			M236.624,313.429c2.764-2.02,5.527-4.04,8.291-6.061c1.701-1.244,3.474-2.49,4.827-4.125c0.582-0.704,1.284-1.676,1.063-2.645
			c-0.217-0.95-1.247-1.409-2.087-1.678c-1.999-0.64-4.202-0.661-6.28-0.671c-3.585-0.017-7.171-0.021-10.756-0.031"/>
	</g>
	<g id="POLYLINE_4123_">
		
			<path fill="none" stroke="#F368E0" stroke-width="2.75" stroke-linecap="round" stroke-linejoin="round" stroke-miterlimit="10" d="
			M267.836,291.466c-0.957-1.717-1.974-3.451-3.35-4.87c-1.423-1.468-3.26-2.476-4.95-3.594c-4.144-2.743-7.919-5.984-11.764-9.121
			c-2.414-1.97-4.827-3.939-7.241-5.909"/>
	</g>
	<g id="POLYLINE_4122_">
		
			<path fill="none" stroke="#F368E0" stroke-width="2.75" stroke-linecap="round" stroke-linejoin="round" stroke-miterlimit="10" d="
			M271.149,289.059c-1.337-1.441-2.672-2.944-3.597-4.691c-0.956-1.807-1.347-3.866-1.889-5.819
			c-1.328-4.789-3.244-9.381-5.04-14.007c-1.127-2.904-2.255-5.808-3.382-8.713"/>
	</g>
	<g id="POLYLINE_4121_">
		
			<path fill="none" stroke="#F368E0" stroke-width="2.75" stroke-linecap="round" stroke-linejoin="round" stroke-miterlimit="10" d="
			M242.098,266.162c2.835,2.047,5.67,4.095,8.505,6.142c1.697,1.226,3.438,2.522,5.417,3.257c0.783,0.291,1.779,0.577,2.569,0.174
			c0.858-0.437,1.026-1.502,1.044-2.373c0.045-2.132-0.641-4.292-1.282-6.299c-1.097-3.436-2.21-6.868-3.314-10.302"/>
	</g>
	<g id="POLYLINE_4120_">
		
			<path fill="none" stroke="#F368E0" stroke-width="2.75" stroke-linecap="round" stroke-linejoin="round" stroke-miterlimit="10" d="
			M276.402,292.875c1.783,0.826,3.625,1.631,5.573,1.971c2.014,0.351,4.093,0.086,6.118-0.002c4.965-0.217,9.924,0.186,14.878,0.465
			c3.111,0.175,6.221,0.35,9.331,0.524"/>
	</g>
	<g id="POLYLINE_4119_">
		
			<path fill="none" stroke="#F368E0" stroke-width="2.75" stroke-linecap="round" stroke-linejoin="round" stroke-miterlimit="10" d="
			M275.136,296.77c1.928,0.38,3.892,0.811,5.667,1.681c1.836,0.9,3.362,2.336,4.948,3.597c3.889,3.093,8.138,5.683,12.31,8.369
			c2.619,1.687,5.238,3.374,7.858,5.061"/>
	</g>
	<g id="POLYLINE_4118_">
		
			<path fill="none" stroke="#F368E0" stroke-width="2.75" stroke-linecap="round" stroke-linejoin="round" stroke-miterlimit="10" d="
			M312.098,298.218c-3.423,0.01-6.847,0.02-10.27,0.03c-2.107,0.006-4.274-0.028-6.33,0.5c-0.834,0.214-1.85,0.543-2.315,1.325
			c-0.553,0.929,0.04,2.007,0.603,2.775c1.241,1.693,3.011,3.005,4.686,4.234c2.891,2.121,5.789,4.232,8.683,6.347"/>
	</g>
	<g id="POLYLINE_4117_">
		
			<path fill="none" stroke="#F368E0" stroke-width="2.75" stroke-linecap="round" stroke-linejoin="round" stroke-miterlimit="10" d="
			M272.631,289.059c1.337-1.441,2.672-2.944,3.597-4.691c0.956-1.807,1.347-3.866,1.888-5.819c1.328-4.789,3.244-9.381,5.04-14.007
			c1.127-2.904,2.255-5.808,3.382-8.713"/>
	</g>
	<g id="POLYLINE_4116_">
		
			<path fill="none" stroke="#F368E0" stroke-width="2.75" stroke-linecap="round" stroke-linejoin="round" stroke-miterlimit="10" d="
			M275.944,291.466c0.957-1.717,1.974-3.451,3.35-4.87c1.423-1.468,3.26-2.476,4.95-3.594c4.144-2.743,7.919-5.984,11.764-9.121
			c2.414-1.97,4.827-3.939,7.241-5.909"/>
	</g>
	<g id="POLYLINE_4115_">
		
			<path fill="none" stroke="#F368E0" stroke-width="2.75" stroke-linecap="round" stroke-linejoin="round" stroke-miterlimit="10" d="
			M288.743,256.761c-1.071,3.329-2.142,6.658-3.213,9.987c-0.644,2.002-1.345,4.07-1.425,6.19c-0.031,0.824,0.009,1.847,0.629,2.466
			c0.667,0.665,1.702,0.516,2.524,0.276c2.064-0.603,3.927-1.943,5.651-3.182c2.929-2.105,5.849-4.224,8.773-6.335"/>
	</g>
	<g id="POLYLINE_4114_">
		
			<path fill="none" stroke="#F368E0" stroke-width="2.75" stroke-linecap="round" stroke-linejoin="round" stroke-miterlimit="10" d="
			M285.186,301.599c-1.679,2.763-4.199,4.967-7.173,6.242c-0.836,0.359-1.704,0.642-2.589,0.851"/>
	</g>
	<g id="POLYLINE_4113_">
		
			<path fill="none" stroke="#F368E0" stroke-width="2.75" stroke-linecap="round" stroke-linejoin="round" stroke-miterlimit="10" d="
			M300.073,298.258c-0.492,2.81-1.365,5.499-2.618,8.062"/>
	</g>
	<g id="POLYLINE_4112_">
		
			<path fill="none" stroke="#F368E0" stroke-width="2.75" stroke-linecap="round" stroke-linejoin="round" stroke-miterlimit="10" d="
			M295.911,309.033c-3.033,4.621-7.275,8.331-12.328,10.598c-1.425,0.639-2.897,1.146-4.402,1.557"/>
	</g>
	<g id="POLYLINE_4111_">
		
			<path fill="none" stroke="#F368E0" stroke-width="2.75" stroke-linecap="round" stroke-linejoin="round" stroke-miterlimit="10" d="
			M294.026,275.497c3.458,4.312,5.675,9.493,6.27,15c0.168,1.553,0.195,3.109,0.121,4.668"/>
	</g>
	<g id="POLYLINE_4110_">
		
			<path fill="none" stroke="#F368E0" stroke-width="2.75" stroke-linecap="round" stroke-linejoin="round" stroke-miterlimit="10" d="
			M285.065,268.21c2.521,1.337,4.808,2.997,6.858,4.981"/>
	</g>
	<g id="POLYLINE_4109_">
		
			<path fill="none" stroke="#F368E0" stroke-width="2.75" stroke-linecap="round" stroke-linejoin="round" stroke-miterlimit="10" d="
			M283.641,283.4c2.109,2.451,3.426,5.529,3.72,8.75c0.083,0.906,0.084,1.819,0.009,2.725"/>
	</g>
	<g id="POLYLINE_4108_">
		
			<path fill="none" stroke="#F368E0" stroke-width="2.75" stroke-linecap="round" stroke-linejoin="round" stroke-miterlimit="10" d="
			M265.856,279.245c2.982-1.248,6.317-1.55,9.472-0.834c0.887,0.202,1.755,0.482,2.595,0.834"/>
	</g>
	<g id="POLYLINE_4107_">
		
			<path fill="none" stroke="#F368E0" stroke-width="2.75" stroke-linecap="round" stroke-linejoin="round" stroke-miterlimit="10" d="
			M261.55,266.927c5.17-1.956,10.782-2.464,16.203-1.328c1.528,0.32,3.017,0.775,4.477,1.328"/>
	</g>
	<g id="POLYLINE_4106_">
		
			<path fill="none" stroke="#F368E0" stroke-width="2.75" stroke-linecap="round" stroke-linejoin="round" stroke-miterlimit="10" d="
			M251.849,273.197c2.05-1.984,4.336-3.646,6.857-4.983"/>
	</g>
	<g id="POLYLINE_4105_">
		
			<path fill="none" stroke="#F368E0" stroke-width="2.75" stroke-linecap="round" stroke-linejoin="round" stroke-miterlimit="10" d="
			M268.355,308.691c-3.146-0.743-6.022-2.459-8.153-4.893c-0.599-0.685-1.137-1.422-1.609-2.2"/>
	</g>
	<g id="POLYLINE_4104_">
		
			<path fill="none" stroke="#F368E0" stroke-width="2.75" stroke-linecap="round" stroke-linejoin="round" stroke-miterlimit="10" d="
			M256.409,294.876c-0.265-3.222,0.478-6.487,2.134-9.266c0.466-0.782,1.001-1.521,1.595-2.21"/>
	</g>
	<g id="POLYLINE_4103_">
		
			<path fill="none" stroke="#F368E0" stroke-width="2.75" stroke-linecap="round" stroke-linejoin="round" stroke-miterlimit="10" d="
			M243.363,295.165c-0.263-5.521,0.988-11.016,3.744-15.82c0.777-1.355,1.67-2.63,2.646-3.848"/>
	</g>
	<g id="POLYLINE_4102_">
		
			<path fill="none" stroke="#F368E0" stroke-width="2.75" stroke-linecap="round" stroke-linejoin="round" stroke-miterlimit="10" d="
			M264.599,321.188c-5.332-1.456-10.171-4.344-13.889-8.45c-1.048-1.158-1.985-2.401-2.842-3.706"/>
	</g>
	<g id="POLYLINE_4101_">
		
			<path fill="none" stroke="#F368E0" stroke-width="2.75" stroke-linecap="round" stroke-linejoin="round" stroke-miterlimit="10" d="
			M246.329,306.328c-1.254-2.563-2.128-5.251-2.621-8.061"/>
	</g>
	<g id="POLYLINE_4100_">
		
			<path fill="none" stroke="#F368E0" stroke-width="2.75" stroke-linecap="round" stroke-linejoin="round" stroke-miterlimit="10" d="
			M731.496,306.328c-1.254-2.563-2.128-5.251-2.621-8.061"/>
	</g>
	<g id="POLYLINE_4099_">
		
			<path fill="none" stroke="#F368E0" stroke-width="2.75" stroke-linecap="round" stroke-linejoin="round" stroke-miterlimit="10" d="
			M749.766,321.188c-5.332-1.456-10.171-4.344-13.889-8.45c-1.048-1.158-1.985-2.401-2.842-3.706"/>
	</g>
	<g id="POLYLINE_4098_">
		
			<path fill="none" stroke="#F368E0" stroke-width="2.75" stroke-linecap="round" stroke-linejoin="round" stroke-miterlimit="10" d="
			M728.53,295.165c-0.263-5.521,0.988-11.016,3.744-15.82c0.777-1.355,1.67-2.63,2.646-3.848"/>
	</g>
	<g id="POLYLINE_4097_">
		
			<path fill="none" stroke="#F368E0" stroke-width="2.75" stroke-linecap="round" stroke-linejoin="round" stroke-miterlimit="10" d="
			M741.576,294.876c-0.265-3.222,0.478-6.487,2.134-9.266c0.466-0.782,1.001-1.521,1.595-2.21"/>
	</g>
	<g id="POLYLINE_4096_">
		
			<path fill="none" stroke="#F368E0" stroke-width="2.75" stroke-linecap="round" stroke-linejoin="round" stroke-miterlimit="10" d="
			M753.523,308.691c-3.146-0.743-6.022-2.459-8.153-4.893c-0.599-0.685-1.137-1.422-1.609-2.2"/>
	</g>
	<g id="POLYLINE_4095_">
		
			<path fill="none" stroke="#F368E0" stroke-width="2.75" stroke-linecap="round" stroke-linejoin="round" stroke-miterlimit="10" d="
			M737.017,273.197c2.05-1.984,4.336-3.646,6.857-4.983"/>
	</g>
	<g id="POLYLINE_4094_">
		
			<path fill="none" stroke="#F368E0" stroke-width="2.75" stroke-linecap="round" stroke-linejoin="round" stroke-miterlimit="10" d="
			M746.717,266.927c5.17-1.956,10.782-2.464,16.203-1.328c1.528,0.32,3.017,0.775,4.477,1.328"/>
	</g>
	<g id="POLYLINE_4093_">
		
			<path fill="none" stroke="#F368E0" stroke-width="2.75" stroke-linecap="round" stroke-linejoin="round" stroke-miterlimit="10" d="
			M751.024,279.245c2.982-1.248,6.317-1.55,9.472-0.834c0.887,0.202,1.755,0.482,2.595,0.834"/>
	</g>
	<g id="POLYLINE_4092_">
		
			<path fill="none" stroke="#F368E0" stroke-width="2.75" stroke-linecap="round" stroke-linejoin="round" stroke-miterlimit="10" d="
			M768.809,283.4c2.109,2.451,3.427,5.529,3.72,8.75c0.083,0.906,0.084,1.819,0.009,2.725"/>
	</g>
	<g id="POLYLINE_4091_">
		
			<path fill="none" stroke="#F368E0" stroke-width="2.75" stroke-linecap="round" stroke-linejoin="round" stroke-miterlimit="10" d="
			M770.233,268.21c2.521,1.337,4.808,2.997,6.858,4.981"/>
	</g>
	<g id="POLYLINE_4090_">
		
			<path fill="none" stroke="#F368E0" stroke-width="2.75" stroke-linecap="round" stroke-linejoin="round" stroke-miterlimit="10" d="
			M779.193,275.497c3.458,4.312,5.675,9.493,6.27,15c0.168,1.553,0.195,3.109,0.121,4.668"/>
	</g>
	<g id="POLYLINE_4089_">
		
			<path fill="none" stroke="#F368E0" stroke-width="2.75" stroke-linecap="round" stroke-linejoin="round" stroke-miterlimit="10" d="
			M781.078,309.033c-3.033,4.621-7.275,8.331-12.328,10.598c-1.425,0.639-2.897,1.146-4.402,1.557"/>
	</g>
	<g id="POLYLINE_4088_">
		
			<path fill="none" stroke="#F368E0" stroke-width="2.75" stroke-linecap="round" stroke-linejoin="round" stroke-miterlimit="10" d="
			M785.24,298.258c-0.492,2.81-1.365,5.499-2.618,8.062"/>
	</g>
	<g id="POLYLINE_4087_">
		
			<path fill="none" stroke="#F368E0" stroke-width="2.75" stroke-linecap="round" stroke-linejoin="round" stroke-miterlimit="10" d="
			M770.353,301.599c-1.679,2.763-4.199,4.967-7.173,6.242c-0.836,0.359-1.704,0.642-2.589,0.851"/>
	</g>
	<g id="POLYLINE_4086_">
		
			<path fill="none" stroke="#F368E0" stroke-width="2.75" stroke-linecap="round" stroke-linejoin="round" stroke-miterlimit="10" d="
			M773.91,256.761c-1.071,3.329-2.142,6.658-3.213,9.987c-0.644,2.002-1.345,4.07-1.425,6.19c-0.031,0.824,0.009,1.847,0.629,2.466
			c0.667,0.665,1.702,0.516,2.524,0.276c2.064-0.603,3.927-1.943,5.651-3.182c2.929-2.105,5.849-4.224,8.773-6.335"/>
	</g>
	<g id="POLYLINE_4085_">
		
			<path fill="none" stroke="#F368E0" stroke-width="2.75" stroke-linecap="round" stroke-linejoin="round" stroke-miterlimit="10" d="
			M761.111,291.466c0.957-1.717,1.974-3.451,3.35-4.87c1.423-1.468,3.26-2.476,4.95-3.594c4.144-2.743,7.919-5.984,11.764-9.121
			c2.414-1.97,4.827-3.939,7.241-5.909"/>
	</g>
	<g id="POLYLINE_4084_">
		
			<path fill="none" stroke="#F368E0" stroke-width="2.75" stroke-linecap="round" stroke-linejoin="round" stroke-miterlimit="10" d="
			M757.798,289.059c1.337-1.441,2.672-2.944,3.597-4.691c0.956-1.807,1.347-3.866,1.888-5.819c1.328-4.789,3.244-9.381,5.04-14.007
			c1.127-2.904,2.255-5.808,3.382-8.713"/>
	</g>
	<g id="POLYLINE_4083_">
		
			<path fill="none" stroke="#F368E0" stroke-width="2.75" stroke-linecap="round" stroke-linejoin="round" stroke-miterlimit="10" d="
			M797.265,298.218c-3.423,0.01-6.847,0.02-10.27,0.03c-2.107,0.006-4.274-0.028-6.33,0.5c-0.834,0.214-1.85,0.543-2.315,1.325
			c-0.553,0.929,0.04,2.007,0.603,2.775c1.241,1.693,3.011,3.005,4.686,4.234c2.891,2.121,5.789,4.232,8.684,6.347"/>
	</g>
	<g id="POLYLINE_4082_">
		
			<path fill="none" stroke="#F368E0" stroke-width="2.75" stroke-linecap="round" stroke-linejoin="round" stroke-miterlimit="10" d="
			M760.304,296.77c1.928,0.38,3.892,0.811,5.667,1.681c1.836,0.9,3.362,2.336,4.948,3.597c3.889,3.093,8.138,5.683,12.31,8.369
			c2.619,1.687,5.238,3.374,7.858,5.061"/>
	</g>
	<g id="POLYLINE_4081_">
		
			<path fill="none" stroke="#F368E0" stroke-width="2.75" stroke-linecap="round" stroke-linejoin="round" stroke-miterlimit="10" d="
			M761.569,292.875c1.783,0.826,3.625,1.631,5.573,1.971c2.014,0.351,4.093,0.086,6.118-0.002c4.965-0.217,9.924,0.186,14.878,0.465
			c3.11,0.175,6.221,0.35,9.331,0.524"/>
	</g>
	<g id="POLYLINE_4080_">
		
			<path fill="none" stroke="#F368E0" stroke-width="2.75" stroke-linecap="round" stroke-linejoin="round" stroke-miterlimit="10" d="
			M727.265,266.162c2.835,2.047,5.67,4.095,8.505,6.142c1.697,1.226,3.438,2.522,5.417,3.257c0.783,0.291,1.779,0.577,2.569,0.174
			c0.858-0.437,1.026-1.502,1.044-2.373c0.045-2.132-0.641-4.292-1.282-6.299c-1.097-3.436-2.21-6.868-3.314-10.302"/>
	</g>
	<g id="POLYLINE_4079_">
		
			<path fill="none" stroke="#F368E0" stroke-width="2.75" stroke-linecap="round" stroke-linejoin="round" stroke-miterlimit="10" d="
			M756.316,289.059c-1.337-1.441-2.672-2.944-3.597-4.691c-0.956-1.807-1.347-3.866-1.888-5.819
			c-1.328-4.789-3.244-9.381-5.04-14.007c-1.127-2.904-2.255-5.808-3.382-8.713"/>
	</g>
	<g id="POLYLINE_4078_">
		
			<path fill="none" stroke="#F368E0" stroke-width="2.75" stroke-linecap="round" stroke-linejoin="round" stroke-miterlimit="10" d="
			M753.003,291.466c-0.957-1.717-1.974-3.451-3.35-4.87c-1.423-1.468-3.26-2.476-4.95-3.594c-4.144-2.743-7.919-5.984-11.764-9.121
			c-2.414-1.97-4.827-3.939-7.241-5.909"/>
	</g>
	<g id="POLYLINE_4077_">
		
			<path fill="none" stroke="#F368E0" stroke-width="2.75" stroke-linecap="round" stroke-linejoin="round" stroke-miterlimit="10" d="
			M721.791,313.429c2.764-2.02,5.528-4.04,8.291-6.061c1.701-1.244,3.474-2.49,4.827-4.125c0.582-0.704,1.284-1.676,1.062-2.645
			c-0.217-0.95-1.247-1.409-2.087-1.678c-1.999-0.64-4.202-0.661-6.28-0.671c-3.585-0.017-7.171-0.021-10.756-0.031"/>
	</g>
	<g id="POLYLINE_4076_">
		
			<path fill="none" stroke="#F368E0" stroke-width="2.75" stroke-linecap="round" stroke-linejoin="round" stroke-miterlimit="10" d="
			M752.545,292.875c-1.783,0.826-3.625,1.631-5.573,1.971c-2.014,0.351-4.093,0.086-6.118-0.002
			c-4.965-0.217-9.924,0.186-14.878,0.465c-3.11,0.175-6.221,0.35-9.331,0.524"/>
	</g>
	<g id="POLYLINE_4075_">
		
			<path fill="none" stroke="#F368E0" stroke-width="2.75" stroke-linecap="round" stroke-linejoin="round" stroke-miterlimit="10" d="
			M753.81,296.77c-1.928,0.38-3.892,0.811-5.667,1.681c-1.836,0.9-3.362,2.336-4.948,3.597c-3.889,3.093-8.138,5.683-12.31,8.369
			c-2.619,1.687-5.238,3.374-7.858,5.061"/>
	</g>
	<g id="POLYLINE_4074_">
		
			<path fill="none" stroke="#F368E0" stroke-width="2.75" stroke-linecap="round" stroke-linejoin="round" stroke-miterlimit="10" d="
			M759.105,297.641c-0.235,1.951-0.431,3.952-0.152,5.909c0.289,2.024,1.183,3.919,1.892,5.818c1.74,4.655,2.889,9.496,4.156,14.294
			c0.795,3.012,1.59,6.025,2.385,9.037"/>
	</g>
	<g id="POLYLINE_4073_">
		
			<path fill="none" stroke="#F368E0" stroke-width="2.75" stroke-linecap="round" stroke-linejoin="round" stroke-miterlimit="10" d="
			M755.009,297.641c0.235,1.951,0.431,3.952,0.152,5.909c-0.289,2.024-1.183,3.919-1.892,5.818
			c-1.74,4.655-2.889,9.496-4.156,14.294c-0.795,3.012-1.59,6.025-2.385,9.037"/>
	</g>
	<g id="POLYLINE_4072_">
		
			<path fill="none" stroke="#F368E0" stroke-width="2.75" stroke-linecap="round" stroke-linejoin="round" stroke-miterlimit="10" d="
			M761.3,321.817c-2.825,0.4-5.651,0.401-8.476,0.001"/>
	</g>
	<g id="POLYLINE_4071_">
		
			<path fill="none" stroke="#F368E0" stroke-width="2.75" stroke-linecap="round" stroke-linejoin="round" stroke-miterlimit="10" d="
			M765.054,333.241c-1.061-3.234-2.122-6.468-3.183-9.702c-0.657-2.001-1.291-4.067-2.414-5.865
			c-0.484-0.775-1.173-1.744-2.152-1.876c-1.02-0.138-1.816,0.758-2.347,1.508c-1.206,1.704-1.902,3.773-2.55,5.737
			c-1.121,3.398-2.231,6.799-3.346,10.199"/>
	</g>
	<g id="POLYLINE_4070_">
		
			<path fill="none" stroke="#F368E0" stroke-width="2.75" stroke-linecap="round" stroke-linejoin="round" stroke-miterlimit="10" d="
			M694.84,293.562c0.056-6.423,0.992-12.78,2.944-18.907c1.913-6.004,4.747-11.707,8.368-16.863
			c3.686-5.249,8.192-9.926,13.305-13.8c5.073-3.844,10.724-6.893,16.717-9.035c5.931-2.121,12.191-3.322,18.484-3.565
			c6.436-0.249,12.905,0.512,19.109,2.241c6.074,1.692,11.884,4.316,17.171,7.75c5.348,3.473,10.155,7.768,14.202,12.697
			c4.065,4.95,7.354,10.53,9.723,16.48c2.321,5.83,3.755,12.013,4.229,18.271c0.487,6.421-0.021,12.917-1.52,19.18
			c-1.474,6.158-3.886,12.082-7.139,17.514c-3.253,5.433-7.336,10.356-12.069,14.562c-4.814,4.279-10.3,7.793-16.19,10.395
			c-5.74,2.536-11.868,4.191-18.103,4.898c-6.364,0.721-12.835,0.456-19.118-0.79c-6.255-1.241-12.311-3.451-17.898-6.525
			c-5.523-3.039-10.581-6.922-14.938-11.478c-4.452-4.655-8.177-9.996-10.997-15.788c-2.757-5.663-4.651-11.748-5.584-17.978
			C695.076,299.751,694.867,296.665,694.84,293.562z"/>
	</g>
	<g id="POLYLINE_4069_">
		
			<path fill="none" stroke="#F368E0" stroke-width="2.75" stroke-linecap="round" stroke-linejoin="round" stroke-miterlimit="10" d="
			M712.205,293.562c0.04-4.618,0.707-9.198,2.114-13.603c1.387-4.34,3.426-8.458,6.044-12.188c2.653-3.779,5.898-7.144,9.576-9.935
			c3.64-2.762,7.701-4.962,12.003-6.502s8.836-2.417,13.403-2.592c4.614-0.177,9.257,0.364,13.705,1.601
			c4.39,1.221,8.579,3.109,12.405,5.584c3.868,2.501,7.343,5.612,10.266,9.171s5.298,7.574,6.999,11.854
			c1.682,4.235,2.72,8.71,3.063,13.254c0.348,4.604-0.025,9.264-1.096,13.755c-1.06,4.445-2.803,8.722-5.151,12.642
			s-5.295,7.476-8.713,10.509c-3.453,3.065-7.385,5.593-11.608,7.46c-4.168,1.842-8.603,3.041-13.13,3.557
			c-4.576,0.521-9.237,0.323-13.754-0.573c-4.493-0.891-8.852-2.474-12.864-4.683c-3.997-2.201-7.649-5.001-10.807-8.295
			c-3.207-3.346-5.892-7.199-7.92-11.366c-1.989-4.087-3.347-8.464-4.03-12.957C712.371,298.037,712.224,295.804,712.205,293.562z"
			/>
	</g>
	<g id="POLYLINE_4068_">
		
			<path fill="none" stroke="#F368E0" stroke-width="2.75" stroke-linecap="round" stroke-linejoin="round" stroke-miterlimit="10" d="
			M716.58,293.562c0.036-4.176,0.641-8.317,1.915-12.3c1.249-3.901,3.082-7.602,5.433-10.956c2.393-3.414,5.323-6.454,8.644-8.976
			c3.288-2.497,6.956-4.483,10.843-5.876c3.878-1.389,7.966-2.179,12.082-2.339c4.175-0.162,8.378,0.328,12.403,1.45
			c3.946,1.1,7.711,2.797,11.152,5.019c3.499,2.26,6.643,5.072,9.286,8.291c2.625,3.197,4.761,6.801,6.294,10.643
			c1.528,3.831,2.471,7.881,2.785,11.994c0.317,4.158-0.018,8.366-0.985,12.422c-0.957,4.016-2.53,7.88-4.651,11.422
			c-2.117,3.534-4.773,6.739-7.853,9.475c-3.123,2.775-6.683,5.063-10.506,6.75c-3.748,1.654-7.734,2.732-11.804,3.198
			c-4.138,0.474-8.353,0.296-12.438-0.514c-4.057-0.805-7.995-2.234-11.618-4.231c-3.612-1.991-6.911-4.522-9.764-7.502
			c-2.884-3.012-5.294-6.478-7.122-10.225c-1.81-3.71-3.045-7.696-3.654-11.779C716.729,297.55,716.598,295.561,716.58,293.562z"/>
	</g>
	<g id="POLYLINE_4067_">
		
			<path fill="none" stroke="#F368E0" stroke-width="2.75" stroke-linecap="round" stroke-linejoin="round" stroke-miterlimit="10" d="
			M752.493,293.562c0.001-1.907,1.23-3.654,3.026-4.297c1.795-0.643,3.856-0.073,5.065,1.401c1.21,1.473,1.368,3.606,0.388,5.241
			c-0.98,1.636-2.933,2.503-4.804,2.132c-1.863-0.369-3.335-1.908-3.623-3.785C752.511,294.025,752.493,293.794,752.493,293.562z"/>
	</g>
</g>
<g id="AG-OUTLINE">
	<g id="POLYLINE_4175_">
		
			<path fill="none" stroke="#F368E0" stroke-width="3.5" stroke-linecap="round" stroke-linejoin="round" stroke-miterlimit="10" d="
			M530.819,121.097c0.733-0.567,0.412-0.906-0.329-1.221c-0.655-0.278-1.35-0.473-2.031-0.676c-2.013-0.598-4.043-1.138-6.072-1.679
			c-3.905-1.041-7.834-1.98-11.793-2.796c-7.834-1.614-15.745-2.745-23.703-3.528c-8.258-0.812-16.542-1.174-24.834-1.396
			c-7.97-0.213-15.956-0.077-23.925,0.135c-7.891,0.21-15.789,0.559-23.662,1.146c-8.227,0.613-16.437,1.368-24.622,2.405
			c-7.877,0.999-15.734,2.165-23.56,3.506c-8.191,1.404-16.384,2.836-24.521,4.526c-1.967,0.409-3.959,0.771-5.892,1.325
			c-0.491,0.14-0.989,0.29-1.449,0.515c-0.255,0.124-0.535,0.268-0.733,0.477c-0.186,0.198-0.175,0.586-0.295,0.717
			c-0.09,0.099-0.476,0.12-0.598,0.149c-0.509,0.12-1.019,0.236-1.53,0.352c-1.467,0.334-2.934,0.664-4.402,0.993
			c-1.525,0.342-3.05,0.681-4.572,1.036c-8.464,1.976-16.913,4.019-25.336,6.164c-7.603,1.937-15.179,3.995-22.742,6.083
			c-7.758,2.143-15.519,4.285-23.242,6.551c-6.555,1.923-13.113,3.847-19.634,5.881c-10.015,3.124-20.03,6.248-30.045,9.371
			c-5.077,1.584-10.155,3.167-15.232,4.751c-1.6,0.499-3.2,0.998-4.8,1.497c-0.575,0.179-1.23,0.499-1.833,0.572
			c-0.844,0.102-1.813-0.098-2.671-0.1c-0.893-0.002-1.787,0.033-2.675,0.124c-1.663,0.17-3.284,0.562-4.867,1.097
			c-3.704,1.25-7.225,3-10.873,4.403c-7.244,2.787-14.824,4.257-22.532,5.013c-3.803,0.373-7.631,0.57-11.452,0.431
			c-3.927-0.143-7.815-0.751-11.737-0.948c-4.147-0.209-9.346-0.346-11.696,3.739c-1.874,3.258-2.003,6.881,0.63,9.731
			c1.372,1.486,2.95,2.123,4.909,2.511c-1.499,7.425-5.964,13.741-10.35,19.764c-2.243,3.08-4.671,5.977-7.178,8.843
			c-1.003,1.146-2.005,2.293-3.008,3.439c-0.599,0.686-1.201,1.637-1.921,2.197c-0.626,0.486-1.527,0.542-2.193,1.107
			c-1.714,1.452-3.113,4.186-3.43,6.407c-0.313,2.187,0.869,4.303,1.624,6.27c1.313,3.421,2.611,7.058,2.859,10.744
			c0.254,3.782-0.694,7.81-1.803,11.403c-0.442,1.431-0.986,2.842-1.808,4.101c-0.625,0.956-1.504,1.708-2.12,2.661
			c-0.646,0.999-0.876,2.205-0.99,3.371c-0.091,0.929-0.102,1.866-0.081,2.798c0.01,0.424,0.027,0.849,0.05,1.272
			c0.031,0.575-0.129,0.62-0.334,1.102c-0.499,1.172,0.259,2.48,1.363,2.935c0.259,0.107,0.747,0.132,0.936,0.299
			c0.289,0.255,0.468,0.984,0.633,1.33c0.282,0.593,0.567,1.186,0.846,1.78c1.85,3.931,3.572,7.921,5.334,11.892
			c0.88,1.984,1.793,4.106,3.594,5.428c2.576,1.891,6.015,2.81,9,3.822c3.81,1.292,7.656,2.552,11.559,3.531
			c3.149,0.789,6.55,1.547,9.813,1.206c0.84-0.088,1.68-0.262,2.458-0.596c0.215-0.092,0.465-0.297,0.687-0.348
			c0.725-0.165,2.087,0.294,2.836,0.401c2.236,0.32,4.48,0.588,6.722,0.864c9.42,1.163,18.84,2.326,28.26,3.489
			c11.195,1.382,22.389,2.764,33.584,4.146c2.762,0.341,5.525,0.682,8.287,1.023c3.307,0.408,6.61,1.397,9.862,2.105
			c1.295,0.282,2.591,0.564,3.886,0.847c0.588,0.128,1.629,0.147,2.148,0.468c0.468,0.289,0.906,1.458,1.207,1.95
			c0.53,0.866,1.08,1.721,1.651,2.56c2.198,3.23,4.702,6.256,7.468,9.015c5.502,5.49,12.03,9.941,19.161,13.037
			c7.199,3.126,14.976,4.875,22.821,5.127c7.66,0.246,15.364-0.937,22.595-3.48c7.581-2.666,14.626-6.801,20.642-12.13
			c2.833-2.51,5.435-5.277,7.766-8.259c0.619-0.792,1.219-1.599,1.799-2.42c0.357-0.505,0.961-1.855,1.485-2.073
			c0.575-0.239,1.767,0,2.379,0c1.384,0,2.768,0,4.152,0c1.505,0,3.01,0,4.515,0c0.901,0,2.032-0.187,2.917,0
			c0.115,0.024,0.251-0.036,0.312,0.035c0.167,0.195,0,1.268,0,1.518c0,0.67,0,1.34,0,2.01c0,0.243-0.165,1.331,0,1.518
			c0.229,0.259,1.923,0.035,2.277,0.035c2.019,0,4.039,0,6.058,0c10.905,0,21.81,0,32.715,0c0.595,0,1.19,0,1.785,0
			c0.134,0,0.73,0.092,0.838,0c0.241-0.206,0.027-1.856,0.027-2.19c0-1.037,0-2.074,0-3.11c2.322,0.007,4.645,0.013,6.967,0.02
			c6.278,0.018,12.555,0.036,18.833,0.054c9.145,0.026,18.289,0.053,27.434,0.079c11.078,0.032,22.157,0.064,33.235,0.096
			c11.937,0.035,23.873,0.069,35.81,0.104c11.701,0.034,23.403,0.068,35.104,0.101c10.56,0.031,21.119,0.061,31.679,0.092
			c8.285,0.024,16.57,0.048,24.854,0.072c5.068,0.015,10.135,0.029,15.202,0.044c0.877,0.003,2.094-0.216,2.949,0.009
			c0.52,0.137,0.721,0.75,1.042,1.219c0.787,1.15,1.575,2.3,2.362,3.45c0.174,0.254,0.327,0.625,0.594,0.73
			c0.509,0.2,1.521-0.003,2.056-0.004c1.498-0.003,2.997-0.006,4.495-0.009c4.675-0.01,9.349-0.019,14.024-0.029
			c11.544-0.024,23.087-0.048,34.631-0.072c4.125-0.009,8.251-0.017,12.376-0.026c1.082-0.002,2.164-0.004,3.246-0.007
			c0.128,0,0.528,0.069,0.642-0.001c0.226-0.139,0.294-0.942,0.363-1.212c0.334-1.305,0.667-2.611,1.001-3.916
			c0.123-0.48,0.146-1.331,0.561-1.518c0.242-0.109,0.743-0.031,1.006-0.042c0.558-0.023,1.117-0.047,1.675-0.07
			c1.44-0.061,2.881-0.121,4.321-0.182c1.297-0.055,2.593-0.109,3.89-0.164c0.568-0.024,1.185-0.215,1.561,0.166
			c0.603,0.61,1.021,1.618,1.507,2.332c0.505,0.743,1.028,1.475,1.564,2.196c4.382,5.895,9.82,10.99,15.973,14.998
			c6.316,4.114,13.389,7.064,20.757,8.656c7.148,1.544,14.554,1.826,21.798,0.812c7.32-1.025,14.445-3.364,20.949-6.877
			c6.839-3.694,12.962-8.677,17.977-14.615c2.531-2.997,4.773-6.236,6.695-9.655c0.937-1.667,1.796-3.377,2.575-5.123
			c0.383-0.859,0.746-1.726,1.09-2.602c0.107-0.274,0.271-1.128,0.493-1.296c0.086-0.065,0.374-0.046,0.475-0.058
			c4.139-0.508,8.279-1.017,12.418-1.525c0.121,2.174,0.241,4.348,0.362,6.522c3.692-0.253,7.385-0.506,11.077-0.76
			c0.134,2.28,0.267,4.561,0.401,6.841c3.994-0.234,7.988-0.468,11.983-0.702c7.882-0.462,15.765-0.924,23.647-1.386
			c5.62-0.329,11.24-0.659,16.86-0.988c0.153-0.009,0.874,0.058,0.992-0.058c0.098-0.097-0.048-0.882-0.056-1.02
			c-0.055-0.93-0.109-1.861-0.164-2.791c-0.055-0.93-0.109-1.861-0.164-2.791c-0.01-0.17-0.156-0.901-0.041-1.022
			c0.152-0.16,1.143-0.098,1.349-0.116c0.906-0.078,1.811-0.155,2.717-0.233c5.445-0.467,10.905-0.89,16.322-1.625
			c2.182-0.296,4.654-0.474,6.708-1.315c1.019-0.417,0.867-0.972,0.085-1.584c-0.773-0.604-1.652-1.08-2.493-1.581
			c-3.255-1.941-7.185-3.834-8.846-7.467c-0.731-1.6-1.027-3.374-1.256-5.104c-0.342-2.585-0.466-5.207-0.414-7.813
			c0.024-1.19,0.088-2.378,0.196-3.563c0.016-0.177-0.01-0.874,0.102-1.008c0.117-0.139,0.642-0.035,0.863-0.027
			c0.681,0.025,1.362,0.046,2.043,0.058c2.059,0.037,4.291,0.148,6.299-0.398c3.072-0.836,3.384-4.77,3.651-7.38
			c0.266-2.602,0.383-5.223,0.426-7.838c0.03-1.785,0.109-3.691-0.437-5.417c-0.769-2.43-3.087-3.398-5.355-4.042
			c-1.413-0.401-2.843-0.745-4.264-1.113c-0.439-0.113-0.876-0.231-1.313-0.349c-0.731-0.198-1.866-0.28-2.509-0.679
			c-0.45-0.279-0.549-1.179-0.721-1.705c-0.187-0.574-0.367-1.15-0.535-1.73c-0.326-1.125-0.612-2.263-0.826-3.415
			c-0.885-4.763-0.315-9.63,0.833-14.299c0.618-2.514,1.416-4.99,2.405-7.383c0.74-1.791,1.562-3.641,2.757-5.182
			c0.568-0.732,1.241-1.352,2.036-1.828c0.69-0.413,1.697-0.721,2.095-1.481c0.359-0.686-0.018-1.416-0.433-1.981
			c-0.958-1.303-2.392-2.271-3.74-3.119c-2.082-1.31-4.299-2.409-6.528-3.443c-4.813-2.233-9.766-4.157-14.739-6.001
			c-5.121-1.898-10.274-3.711-15.46-5.424c-4.942-1.632-9.91-3.21-14.91-4.655c-5.434-1.571-10.873-3.105-16.363-4.472
			c-5.162-1.286-10.353-2.452-15.564-3.517c-5.103-1.042-10.233-2.018-15.379-2.823c-5.71-0.894-11.423-1.711-17.16-2.415
			c-5.367-0.658-10.756-1.11-16.145-1.534c-4.774-0.376-9.559-0.579-14.341-0.814c-5.977-0.294-11.954-0.604-17.932-0.882
			c-5.784-0.269-11.569-0.522-17.354-0.761c-5.729-0.237-11.463-0.394-17.194-0.59c-4.225-0.144-8.448-0.237-12.675-0.319
			c-6.474-0.125-12.948-0.285-19.422-0.376c-4.813-0.067-9.629-0.033-14.442-0.048c-3.93-0.012-7.86-0.025-11.79-0.037
			c-2.385-0.008-4.817,0.125-7.198-0.023c-0.706-0.044-1.237-0.485-1.863-0.834c-1.137-0.634-2.27-1.274-3.412-1.899
			c-2.163-1.185-4.326-2.369-6.502-3.531c-4.352-2.324-8.695-4.661-13.076-6.929c-6.523-3.376-13.047-6.752-19.57-10.128
			c-4.125-2.134-8.285-4.197-12.437-6.276c-5.071-2.539-10.154-5.041-15.261-7.507c-4.536-2.19-9.118-4.3-13.722-6.344
			c-5.078-2.255-10.194-4.42-15.35-6.488C540.449,124.575,535.644,122.813,530.819,121.097z"/>
	</g>
	<g id="POLYLINE_3727_">
		
			<path fill="none" stroke="#F368E0" stroke-width="3.5" stroke-linecap="round" stroke-linejoin="round" stroke-miterlimit="10" d="
			M694.84,293.562c0.056-6.423,0.992-12.78,2.944-18.907c1.913-6.004,4.747-11.707,8.368-16.863
			c3.686-5.249,8.192-9.926,13.305-13.8c5.073-3.844,10.724-6.893,16.717-9.035c5.931-2.121,12.191-3.322,18.484-3.565
			c6.436-0.249,12.905,0.512,19.109,2.241c6.074,1.692,11.884,4.316,17.171,7.75c5.348,3.473,10.155,7.768,14.202,12.697
			c4.065,4.95,7.354,10.53,9.723,16.48c2.321,5.83,3.755,12.013,4.229,18.271c0.487,6.421-0.021,12.917-1.52,19.18
			c-1.474,6.158-3.886,12.082-7.139,17.514c-3.253,5.433-7.336,10.356-12.069,14.562c-4.814,4.279-10.3,7.793-16.19,10.395
			c-5.74,2.536-11.868,4.191-18.103,4.898c-6.364,0.721-12.835,0.456-19.118-0.79c-6.255-1.241-12.311-3.451-17.898-6.525
			c-5.523-3.039-10.581-6.922-14.938-11.478c-4.452-4.655-8.177-9.996-10.997-15.788c-2.757-5.663-4.651-11.748-5.584-17.978
			C695.076,299.751,694.867,296.665,694.84,293.562z"/>
	</g>
	<g id="POLYLINE_3726_">
		
			<path fill="none" stroke="#F368E0" stroke-width="3.5" stroke-linecap="round" stroke-linejoin="round" stroke-miterlimit="10" d="
			M209.673,293.562c0.056-6.423,0.992-12.78,2.944-18.907c1.913-6.004,4.747-11.707,8.368-16.863
			c3.686-5.249,8.192-9.926,13.305-13.8c5.073-3.844,10.724-6.893,16.717-9.035c5.931-2.121,12.191-3.322,18.484-3.565
			c6.436-0.249,12.905,0.512,19.109,2.241c6.073,1.692,11.884,4.316,17.171,7.75c5.348,3.473,10.155,7.768,14.202,12.697
			c4.065,4.95,7.354,10.53,9.723,16.48c2.321,5.83,3.755,12.013,4.229,18.271c0.487,6.421-0.021,12.917-1.52,19.18
			c-1.474,6.158-3.886,12.082-7.139,17.514c-3.253,5.433-7.336,10.356-12.069,14.562c-4.814,4.279-10.3,7.793-16.19,10.395
			c-5.74,2.536-11.868,4.191-18.103,4.898c-6.364,0.721-12.835,0.456-19.118-0.79c-6.255-1.241-12.311-3.451-17.898-6.525
			c-5.523-3.039-10.581-6.922-14.938-11.478c-4.452-4.655-8.177-9.996-10.997-15.788c-2.757-5.663-4.651-11.748-5.584-17.978
			C209.908,299.751,209.7,296.665,209.673,293.562z"/>
	</g>
</g>
</svg>
