<?xml version="1.0" encoding="utf-8"?>
<!-- Generator: Adobe Illustrator 16.0.0, SVG Export Plug-In . SVG Version: 6.00 Build 0)  -->
<!DOCTYPE svg PUBLIC "-//W3C//DTD SVG 1.1//EN" "http://www.w3.org/Graphics/SVG/1.1/DTD/svg11.dtd" [
	<!ENTITY ns_extend "http://ns.adobe.com/Extensibility/1.0/">
	<!ENTITY ns_ai "http://ns.adobe.com/AdobeIllustrator/10.0/">
	<!ENTITY ns_graphs "http://ns.adobe.com/Graphs/1.0/">
	<!ENTITY ns_vars "http://ns.adobe.com/Variables/1.0/">
	<!ENTITY ns_imrep "http://ns.adobe.com/ImageReplacement/1.0/">
	<!ENTITY ns_sfw "http://ns.adobe.com/SaveForWeb/1.0/">
	<!ENTITY ns_custom "http://ns.adobe.com/GenericCustomNamespace/1.0/">
	<!ENTITY ns_adobe_xpath "http://ns.adobe.com/XPath/1.0/">
]>
<svg version="1.1" xmlns:x="&ns_extend;" xmlns:i="&ns_ai;" xmlns:graph="&ns_graphs;"
	 xmlns="http://www.w3.org/2000/svg" xmlns:xlink="http://www.w3.org/1999/xlink" x="0px" y="0px" width="750px" height="750px"
	 viewBox="0 0 750 750" enable-background="new 0 0 750 750" xml:space="preserve">
<metadata>
	<sfw  xmlns="&ns_sfw;">
		<slices></slices>
		<sliceSourceBounds  width="2146.973" height="523.636" x="45.183" y="183.898" bottomLeftOrigin="true"></sliceSourceBounds>
	</sfw>
</metadata>
<g id="N-DIMS">
</g>
<g id="AG-TRANSPORT">
	<g>
		<g id="POLYLINE_139_">
			
				<path fill="none" stroke="#F368E0" stroke-width="2.75" stroke-linecap="round" stroke-linejoin="round" stroke-miterlimit="10" d="
				M492.912,374.9c3.648,2.242,7.314,4.458,10.939,6.738c1.361,0.855,3.006,1.604,4.203,2.703c0.117,0.108,0.393,0.322,0.387,0.52
				c-0.016,0.51-0.92,0.483-1.252,0.498c-3.184,0.139-6.449-0.101-9.633-0.241c-8.393-0.369-16.783-0.737-25.174-1.106
				c-12.723-0.561-25.445-1.12-38.168-1.68c-5.725-0.252-11.455-0.445-17.176-0.762c-10.475-0.579-20.947-1.158-31.42-1.737
				c-5.084-0.281-10.17-0.562-15.254-0.844c-0.844-0.047-2.701,0.249-3.34-0.574c-0.227-0.294-0.262-0.69-0.336-1.042
				c-0.32-1.49-0.639-2.979-0.959-4.469c-1.215-5.673-2.43-11.345-3.645-17.018c-1.291-6.022-2.58-12.045-3.871-18.067
				c-0.412-1.927-0.826-3.854-1.238-5.782c-0.129-0.599-0.381-1.274-0.395-1.893c-0.016-0.697,0.516-1.245,1.223-1.206
				c4.594,0.256,9.184,0.547,13.771,0.888c8.5,0.633,17.033,1.466,25.443,2.862c8.43,1.399,16.809,3.148,24.898,5.948
				c8.158,2.823,16.029,6.357,23.785,10.135c7.549,3.678,14.994,7.625,22.32,11.729c2.422,1.356,4.844,2.713,7.264,4.069"/>
		</g>
		<g id="POLYLINE_138_">
			
				<path fill="none" stroke="#F368E0" stroke-width="2.75" stroke-linecap="round" stroke-linejoin="round" stroke-miterlimit="10" d="
				M468.396,379.971c-0.699-0.097-1.188-0.5-1.432-1.154c-0.912-2.448-0.57-5.896,0.373-8.266c0.895-2.246,3.127-3.934,5.213-5.003
				c2.346-1.202,4.887-1.406,7.461-0.939c3.367,0.611,6.977,2.011,9.715,4.083c1.248,0.944,2.072,2.18,2.568,3.657
				c0.703,2.087,1.393,5.088,0.66,7.259c-0.201,0.601-0.545,0.902-1.16,1.009c-1.576,0.273-3.297,0.242-4.893,0.267
				c-2.178,0.033-4.35-0.008-6.525-0.07C476.371,380.7,472.377,380.424,468.396,379.971z"/>
		</g>
		<g id="POLYLINE_137_">
			
				<path fill="none" stroke="#F368E0" stroke-width="2.75" stroke-linecap="round" stroke-linejoin="round" stroke-miterlimit="10" d="
				M222.219,364.887c-0.152,1.264-1.52,0.954-2.379,0.835c-3.963-0.548-7.387-2.089-10.986-3.769
				c-4.232-1.974-8.402-4.086-12.594-6.144c-1.131-0.555-2.519-1.01-3.527-1.797c-0.164-0.128-0.396-0.304-0.453-0.523
				c-0.105-0.419,0.23-0.676,0.557-0.878c1.679-1.043,3.744-1.693,5.541-2.492c1.973-0.877,3.951-1.735,5.932-2.592
				c4.037-1.748,8.107-3.4,12.217-4.972c1.836-0.702,3.695-1.354,5.561-1.974c0.609-0.203,1.461-0.708,2.147-0.433
				c1.015,0.407,0.649,1.624,0.556,2.439c-0.664,5.759-1.327,11.518-1.991,17.277C222.605,361.538,222.412,363.212,222.219,364.887z
				"/>
		</g>
		<g id="POLYLINE_76_">
			
				<path fill="none" stroke="#F368E0" stroke-width="2.75" stroke-linecap="round" stroke-linejoin="round" stroke-miterlimit="10" d="
				M348.309,376.033c0.146,0.697-0.369,1.294-1.049,1.362c-0.43,0.043-0.912-0.066-1.338-0.103c-1.359-0.113-2.719-0.227-4.078-0.34
				c-11.236-0.937-22.473-1.873-33.709-2.81c-11.143-0.929-22.285-1.857-33.428-2.786c-6.124-0.51-12.236-1.122-18.352-1.717
				c-5.898-0.574-11.797-1.149-17.696-1.723c-0.985-0.096-2.095-0.066-3.062-0.3c-0.327-0.08-0.605-0.232-0.785-0.529
				c-0.186-0.306-0.166-0.619-0.127-0.959c0.203-1.768,0.406-3.535,0.61-5.303c0.711-6.168,1.422-12.337,2.133-18.506
				c0.204-1.768,0.407-3.535,0.61-5.303c0.039-0.337,0.092-0.646,0.339-0.901c0.669-0.69,2.135-0.676,2.973-0.868
				c2.111-0.484,4.232-0.923,6.355-1.353c8.604-1.741,17.282-3.178,26.018-4.074c8.877-0.91,17.795-1.296,26.711-1.551
				c8.716-0.249,17.435-0.225,26.151-0.21c2.352,0.004,4.703,0.065,7.053,0.098c1.123,0.016,2.244,0.031,3.367,0.047
				c0.182,0.002,0.359,0.006,0.533,0.071c0.932,0.347,0.926,1.808,1.094,2.59c2.381,11.115,4.762,22.23,7.143,33.345
				C346.619,368.152,347.465,372.093,348.309,376.033z"/>
		</g>
		<g id="POLYLINE_75_">
			
				<line fill="none" stroke="#F368E0" stroke-width="2.75" stroke-linecap="round" stroke-linejoin="round" stroke-miterlimit="10" x1="378.656" y1="402.843" x2="378.496" y2="408.003"/>
		</g>
		<g id="POLYLINE_74_">
			
				<line fill="none" stroke="#F368E0" stroke-width="2.75" stroke-linecap="round" stroke-linejoin="round" stroke-miterlimit="10" x1="231.927" y1="393.016" x2="231.765" y2="398.169"/>
		</g>
		<g id="POLYLINE_73_">
			
				<path fill="none" stroke="#F368E0" stroke-width="2.75" stroke-linecap="round" stroke-linejoin="round" stroke-miterlimit="10" d="
				M256.849,393.81c2.376,0.005,3.472,3.084,1.626,4.583c-1.135,0.922-2.889,0.524-4.221,0.483
				c-5.893-0.186-11.785-0.371-17.677-0.557c-2.462-0.077-4.924-0.154-7.386-0.231c-0.674-0.021-1.425,0.042-2.086-0.134
				c-1.039-0.275-1.814-1.198-1.908-2.268c-0.095-1.076,0.518-2.128,1.502-2.574c0.455-0.206,0.916-0.238,1.407-0.222
				c1.831,0.06,3.661,0.12,5.493,0.181c5.049,0.166,10.098,0.333,15.146,0.5C251.442,393.66,254.151,393.835,256.849,393.81z"/>
		</g>
		<g id="POLYLINE_72_">
			
				<path fill="none" stroke="#F368E0" stroke-width="2.75" stroke-linecap="round" stroke-linejoin="round" stroke-miterlimit="10" d="
				M403.877,403.627c2.381,0.066,3.369,3.196,1.482,4.633c-1.24,0.945-3.291,0.476-4.693,0.432
				c-6.045-0.188-12.09-0.376-18.137-0.563c-2.281-0.07-4.562-0.142-6.846-0.213c-0.588-0.018-1.219,0.025-1.785-0.164
				c-1.041-0.347-1.764-1.346-1.766-2.442c-0.002-1.09,0.707-2.088,1.736-2.444c0.508-0.176,1.018-0.139,1.545-0.122
				c2.074,0.064,4.148,0.129,6.223,0.193C389.049,403.166,396.463,403.396,403.877,403.627z"/>
		</g>
		<g id="POLYLINE_71_">
			
				<path fill="none" stroke="#F368E0" stroke-width="2.75" stroke-linecap="round" stroke-linejoin="round" stroke-miterlimit="10" d="
				M488.127,486.816c2.508,0.003,5.148-0.239,7.342-1.557c2.35-1.411,3.963-3.76,5.072-6.217c1.695-3.757,2.748-7.852,3.926-11.793
				c1.211-4.056,2.373-8.146,3.102-12.32c1.461-8.361,1.535-17.113,1.348-25.58c-0.182-8.273-2.121-16.116-4.422-24.022
				c-1.674-5.747-3.402-11.474-5.186-17.187"/>
		</g>
		<g id="POLYLINE_70_">
			
				<path fill="none" stroke="#F368E0" stroke-width="2.75" stroke-linecap="round" stroke-linejoin="round" stroke-miterlimit="10" d="
				M262.723,486.816c-2.402-0.063-4.805-1.15-5.902-3.379c-0.989-2.011-0.838-4.351-0.803-6.525
				c0.066-4.101-0.148-8.163-0.916-12.202c-0.705-3.716-1.746-7.324-3.307-10.775c-1.719-3.8-3.914-7.379-6.197-10.861
				c-4.645-7.08-10.377-13.144-17.072-18.312c-1.636-1.264-3.328-2.482-5.093-3.56c-0.993-0.606-2.319-1.12-3.062-2.069
				c-0.388-0.496-0.538-1.111-0.62-1.726c-0.232-1.729-0.127-3.534-0.111-5.272c0.041-4.609,0.164-9.215,0.3-13.822
				c0.121-4.095,0.278-8.223,0.85-12.282c0.794-5.65,2.44-11.295,4.53-16.595"/>
		</g>
		<g id="POLYLINE_69_">
			
				<path fill="none" stroke="#F368E0" stroke-width="2.75" stroke-linecap="round" stroke-linejoin="round" stroke-miterlimit="10" d="
				M368.484,486.816c1.434-2.034,1.602-4.064,1.646-6.523c0.09-4.93,0.086-9.861,0.123-14.792c0.062-8.234,0.01-16.483-0.379-24.71
				c-0.412-8.729-1.215-17.409-2.609-26.039c-1.438-8.909-3.5-17.696-5.574-26.474c-0.553-2.334-1.135-4.659-1.709-6.987"/>
		</g>
		<g id="POLYLINE_68_">
			
				<line fill="none" stroke="#F368E0" stroke-width="2.75" stroke-linecap="round" stroke-linejoin="round" stroke-miterlimit="10" x1="488.127" y1="486.816" x2="262.723" y2="486.816"/>
		</g>
		<g id="POLYLINE_67_">
			
				<path fill="none" stroke="#F368E0" stroke-width="2.75" stroke-linecap="round" stroke-linejoin="round" stroke-miterlimit="10" d="
				M514.537,382.161c0.889,0.591,2.191,1.258,2.15,2.495c-0.045,1.384-1.289,2.395-2.447,2.918
				c-2.539,1.149-5.711,0.795-8.408,0.738c-2.75-0.058-5.502-0.124-8.252-0.244c-9.326-0.408-18.654-0.817-27.98-1.226
				c-12.588-0.551-25.176-1.102-37.764-1.652c-5.33-0.233-10.662-0.432-15.988-0.716c-11.191-0.596-22.381-1.192-33.57-1.789
				c-7.127-0.38-14.242-0.922-21.361-1.421c-8.549-0.6-17.115-1.081-25.654-1.803c-9.002-0.761-18.002-1.522-27.004-2.284
				c-11.486-0.971-22.973-1.942-34.459-2.914c-7.061-0.597-14.11-1.308-21.163-1.987c-8.442-0.813-16.892-1.586-25.313-2.605
				c-4.176-0.505-8.557-0.782-12.6-2.005c-3.822-1.156-7.521-3.188-11.098-4.938c-4.152-2.033-8.307-4.059-12.438-6.136
				c-1.881-0.946-3.766-1.887-5.626-2.875c-0.837-0.444-1.688-0.873-2.496-1.37c-0.173-0.107-0.471-0.25-0.583-0.433
				c-0.313-0.51,0.24-0.667,0.689-0.874c4.086-1.884,8.252-3.617,12.368-5.434c7.978-3.521,15.955-6.993,24.199-9.853
				c8.022-2.783,16.313-4.877,24.626-6.591c8.471-1.748,16.999-3.312,25.6-4.266c8.952-0.993,17.916-1.527,26.916-1.839
				c8.564-0.297,17.168-0.431,25.738-0.335c8.93,0.099,17.855,0.188,26.781,0.521c8.885,0.333,17.76,0.864,26.619,1.62
				c8.619,0.735,17.238,1.739,25.762,3.237c8.543,1.502,16.914,3.694,25.068,6.661c7.98,2.905,15.73,6.484,23.314,10.297
				c8.199,4.123,16.256,8.49,24.277,12.95c7.113,3.957,14.189,8.033,21.125,12.297C501.92,374.211,508.277,378.104,514.537,382.161z
				"/>
		</g>
		<g id="POLYLINE_66_">
			
				<path fill="none" stroke="#F368E0" stroke-width="2.75" stroke-linecap="round" stroke-linejoin="round" stroke-miterlimit="10" d="
				M127.77,494.289c-1.971-8.463-2.221-17.22-0.506-25.753c1.706-8.491,5.283-16.582,10.412-23.561
				c5.129-6.976,11.791-12.805,19.386-16.961c7.599-4.158,16.091-6.626,24.733-7.192c8.642-0.566,17.388,0.786,25.459,3.921
				s15.432,8.052,21.424,14.302c5.992,6.251,10.589,13.812,13.383,22.01c1.396,4.096,2.342,8.345,2.818,12.646
				c0.475,4.29,0.434,8.635,0.382,12.945c-0.05,4.208-0.421,8.264-0.981,12.426c-0.152,1.14-0.164,2.371,0.84,3.116
				c1.724,1.28,4.535,0.861,6.596,0.861c4.818,0,9.637,0,14.455,0c8.34,0,16.679,0,25.018,0c10.92,0,21.842,0,32.762,0
				c12.562,0,25.123,0,37.686,0c13.264,0,26.529,0,39.793,0c13.027,0,26.055,0,39.082,0c11.85,0,23.701,0,35.551,0
				c9.734,0,19.469,0,29.203,0c6.678,0,13.357,0,20.035,0c2.684,0,5.367,0,8.051,0c0.963,0,2.057-0.172,2.688-0.978
				c0.873-1.115,0.506-2.807,0.141-4.042c-2.301-7.805-3.277-15.86-2.396-23.981c0.904-8.345,3.535-16.347,7.693-23.633
				c4.055-7.104,9.725-13.371,16.328-18.187c6.916-5.046,14.861-8.592,23.252-10.316c8.127-1.67,16.562-1.6,24.668,0.154
				c8.275,1.79,16.246,5.393,23,10.509c6.699,5.075,12.252,11.417,16.371,18.746c4.115,7.319,6.646,15.641,7.303,24.012
				c0.664,8.467-0.445,16.916-3.25,24.93c-0.256,0.729-0.418,1.451,0.125,2.059c1.02,1.139,2.703,1.655,4.164,1.804
				c3.264,0.332,6.662,0.088,9.932,0.088c6.26,0,12.52,0,18.779,0c1.766,0,3.529,0,5.295,0c0.545,0,1.092-0.016,1.59-0.268
				c1.377-0.697,1.363-2.443,1.363-3.769c0-2.201,0.078-4.383-0.318-6.558c-0.326-1.793-0.852-3.548-1.465-5.262
				c-1.557-4.339-3.111-8.678-4.666-13.017c-0.006-0.019-0.014-0.037-0.02-0.056c1.514-0.046,3.242-0.101,3.852-1.747
				c0.27-0.728,0.215-1.51,0.215-2.271c0-2.414,0-4.829,0-7.243c0-5.635,0-11.27,0-16.904c0-1.771-0.018-3.611-0.805-5.238
				c-1.428-2.949-4.422-4.799-6.635-7.087c-2.273-2.35-3.508-5.686-5.141-8.469c-1.951-3.329-4.061-6.583-6.783-9.342
				c-2.822-2.859-6.172-5.158-9.689-7.08c-7.373-4.031-15.293-7.24-23.238-9.955c-8.217-2.81-16.561-5.201-25.002-7.25
				c-8.67-2.104-17.396-3.949-26.164-5.598c-8.455-1.59-16.959-3.041-25.508-4.025c-8.74-1.007-17.436-1.344-26.219-1.641
				c-2.348-0.079-4.537-0.954-6.52-2.175c-3.789-2.334-7.469-4.868-11.223-7.262c-7.064-4.506-14.186-8.948-21.412-13.191
				c-7.721-4.534-15.479-9.008-23.416-13.153c-7.834-4.09-15.779-7.965-23.949-11.342c-8.109-3.351-16.361-6.346-24.764-8.878
				c-8.326-2.51-16.77-4.674-25.316-6.296c-8.586-1.63-17.238-2.621-25.953-3.246c-8.867-0.635-17.754-0.946-26.641-1.175
				c-8.799-0.227-17.598-0.235-26.398-0.189c-8.43,0.043-16.859,0.16-25.281,0.519c-8.958,0.381-17.928,0.814-26.85,1.728
				c-8.764,0.897-17.479,2.041-26.109,3.83c-8.394,1.74-16.695,4.06-24.82,6.787c-8.038,2.697-16.055,5.479-24,8.439
				c-8.727,3.251-17.432,6.55-26.123,9.895c-8.9,3.425-17.699,7.144-26.543,10.713c-7.346,2.965-14.655,6.155-22.211,8.56
				c-8.32,2.647-17.188,3.249-25.787,4.479c-3.764,0.539-7.731,1.078-11.303,2.436c-1.227,0.466-2.621,1.141-3.088,2.467
				c-0.551,1.561,0.151,3.525,0.737,4.956c0.242,0.593,0.562,1.079,0.576,1.723c0.034,1.601-0.441,3.314-0.768,4.869
				c-0.892,4.25-1.853,8.49-2.886,12.708c-1.014,4.141-1.979,8.301-3.449,12.31c-1.398,3.813-3.242,7.407-5.214,10.952
				c-1.984,3.566-4.41,6.996-6.063,10.733c-1.141,2.58-0.696,5.768-0.616,8.5c0.154,5.342,0.309,10.685,0.463,16.026
				c0.212,7.294,0.312,14.696,4.688,20.896c1.98,2.806,4.295,4.527,7.402,5.936c3.733,1.692,7.67,2.99,11.558,4.275
				c8.431,2.788,16.937,5.512,25.531,7.753c3.923,1.022,7.974,2.064,12.034,2.314c1.895,0.117,3.836,0.107,5.73,0.036
				c0.719-0.027,1.484-0.141,2.084-0.569c1.34-0.956,1.058-2.895,0.68-4.269C127.649,493.781,127.709,494.035,127.77,494.289z"/>
		</g>
		<g id="POLYLINE_65_">
			
				<path fill="none" stroke="#F368E0" stroke-width="2.75" stroke-linecap="round" stroke-linejoin="round" stroke-miterlimit="10" d="
				M683.926,475.285c-3.207,0.042-6.41,0.025-9.617-0.002"/>
		</g>
		<g id="POLYLINE_64_">
			
				<line fill="none" stroke="#F368E0" stroke-width="2.75" stroke-linecap="round" stroke-linejoin="round" stroke-miterlimit="10" x1="245.146" y1="491.207" x2="233.789" y2="491.207"/>
		</g>
		<g id="POLYLINE_63_">
			
				<line fill="none" stroke="#F368E0" stroke-width="2.75" stroke-linecap="round" stroke-linejoin="round" stroke-miterlimit="10" x1="137.551" y1="491.207" x2="127.109" y2="491.207"/>
		</g>
		<g id="POLYLINE_62_">
			
				<line fill="none" stroke="#F368E0" stroke-width="2.75" stroke-linecap="round" stroke-linejoin="round" stroke-miterlimit="10" x1="544.908" y1="491.207" x2="534.467" y2="491.207"/>
		</g>
		<g id="POLYLINE_61_">
			
				<line fill="none" stroke="#F368E0" stroke-width="2.75" stroke-linecap="round" stroke-linejoin="round" stroke-miterlimit="10" x1="651.59" y1="491.207" x2="641.148" y2="491.207"/>
		</g>
		<g id="POLYLINE_60_">
			
				<path fill="none" stroke="#F368E0" stroke-width="2.75" stroke-linecap="round" stroke-linejoin="round" stroke-miterlimit="10" d="
				M76.328,382.088c4.115-0.331,8.368,0.083,12.463,0.502c4.193,0.43,8.445,0.858,12.523,1.975c1.432,0.392,6.229,1.563,4.234,3.869
				c-1.144,1.322-2.605,2.402-3.881,3.595c-1.582,1.477-3.165,2.954-4.71,4.47c-3.18,3.12-6.313,6.283-9.378,9.518
				c-1.578,1.665-3.135,3.35-4.692,5.033c-0.745,0.805-1.544,1.622-2.523,2.14c-1.045,0.552-2.257,0.722-3.419,0.82
				c-2.121,0.179-4.254,0.299-6.383,0.278c-0.844-0.009-1.689-0.05-2.528-0.14"/>
		</g>
		<g id="POLYLINE_59_">
			
				<path fill="none" stroke="#F368E0" stroke-width="2.75" stroke-linecap="round" stroke-linejoin="round" stroke-miterlimit="10" d="
				M674.57,434.68c-0.736-2.783-3.088-5.232-5.006-7.264c-2.863-3.034-6.09-5.698-9.533-8.047
				c-6.57-4.482-14.291-7.988-22.191-9.207c-1.852-0.286-3.734-0.459-5.609-0.353c-0.775,0.044-1.674,0.111-2.389,0.456
				c-0.354,0.171-0.648,0.394-0.652,0.81c-0.016,1.361,2.342,2.732,3.244,3.329c1.715,1.131,3.525,2.109,5.25,3.225
				c1.713,1.109,3.314,2.374,4.873,3.688c3.098,2.613,6.047,5.527,8.561,8.711c1.408,1.782,2.197,4.495,4.609,5.087
				c1.605,0.395,3.301,0.535,4.939,0.723c2.588,0.295,5.176,0.59,7.764,0.884c1.465,0.167,3.053,0.51,4.539,0.404
				c0.422-0.03,0.879-0.104,1.215-0.386C674.783,436.239,674.754,435.369,674.57,434.68z"/>
		</g>
		<g id="POLYLINE_58_">
			
				<path fill="none" stroke="#F368E0" stroke-width="2.75" stroke-linecap="round" stroke-linejoin="round" stroke-miterlimit="10" d="
				M683.184,494.356c-2.174,0-4.348,0.017-6.521-0.001c-0.984-0.009-1.93-0.205-2.789-0.697c-1.484-0.849-2.234-2.215-2.672-3.825
				c-1.287-4.749-2.734-9.459-4.102-14.186c-0.477-1.646-0.98-3.288-1.424-4.944c-0.184-0.684-0.408-1.441-0.291-2.159
				c0.188-1.158,1.293-1.854,2.371-2.078c1.156-0.241,2.451-0.086,3.615-0.086c2.453,0,4.904,0,7.357,0"/>
		</g>
		<g id="POLYLINE_57_">
			
				<path fill="none" stroke="#F368E0" stroke-width="2.75" stroke-linecap="round" stroke-linejoin="round" stroke-miterlimit="10" d="
				M136.323,480.271c0.07-8.238,2.065-16.312,5.993-23.566c3.859-7.128,9.566-13.396,16.403-17.771
				c6.989-4.474,14.86-7.171,23.134-7.86c8.068-0.672,16.408,0.765,23.795,4.077c7.571,3.397,14.101,8.571,19.196,15.114
				c4.986,6.401,8.294,14.212,9.552,22.219c1.273,8.109,0.541,16.47-2.195,24.216c-2.733,7.742-7.408,14.723-13.496,20.228
				c-6.014,5.438-13.479,9.44-21.384,11.296c-8.071,1.895-16.408,1.823-24.431-0.29c-7.83-2.062-15.219-6.176-21.08-11.765
				c-6.004-5.726-10.45-12.775-13.07-20.644C137.105,490.611,136.367,485.438,136.323,480.271z"/>
		</g>
		<g id="POLYLINE_56_">
			
				<path fill="none" stroke="#F368E0" stroke-width="2.75" stroke-linecap="round" stroke-linejoin="round" stroke-miterlimit="10" d="
				M152.688,480.271c0.064-7.711,2.717-15.222,7.676-21.153c4.927-5.895,11.893-9.946,19.454-11.306
				c7.564-1.36,15.499-0.007,22.179,3.799c6.676,3.804,11.896,9.938,14.58,17.14c2.683,7.202,2.754,15.253,0.195,22.501
				c-2.558,7.247-7.67,13.47-14.279,17.391c-6.611,3.922-14.523,5.414-22.109,4.185c-7.585-1.229-14.619-5.157-19.648-10.967
				c-5.027-5.81-7.912-13.332-8.043-21.016C152.688,480.652,152.688,480.462,152.688,480.271z"/>
		</g>
		<g id="POLYLINE_55_">
			
				<path fill="none" stroke="#F368E0" stroke-width="2.75" stroke-linecap="round" stroke-linejoin="round" stroke-miterlimit="10" d="
				M560.045,480.271c0.064-7.71,2.717-15.222,7.676-21.153c4.926-5.894,11.893-9.946,19.453-11.306
				c7.566-1.36,15.498-0.006,22.18,3.799c6.678,3.803,11.895,9.939,14.58,17.14c2.686,7.201,2.75,15.254,0.195,22.501
				c-2.555,7.245-7.672,13.473-14.279,17.391c-6.611,3.92-14.521,5.414-22.109,4.185c-7.586-1.229-14.617-5.158-19.648-10.967
				c-5.029-5.807-7.912-13.334-8.043-21.016C560.047,480.652,560.047,480.462,560.045,480.271z"/>
		</g>
		<g id="POLYLINE_54_">
			
				<path fill="none" stroke="#F368E0" stroke-width="2.75" stroke-linecap="round" stroke-linejoin="round" stroke-miterlimit="10" d="
				M543.682,480.271c0.064-8.239,2.068-16.31,5.992-23.566c3.855-7.13,9.568-13.394,16.404-17.771
				c6.986-4.476,14.861-7.171,23.133-7.86c8.068-0.672,16.408,0.766,23.795,4.077c7.574,3.396,14.098,8.573,19.197,15.114
				c4.988,6.4,8.289,14.214,9.551,22.219c1.277,8.105,0.541,16.475-2.193,24.216c-2.738,7.744-7.41,14.719-13.498,20.228
				c-6.012,5.44-13.48,9.44-21.383,11.296c-8.072,1.896-16.41,1.822-24.432-0.29c-7.832-2.062-15.217-6.178-21.08-11.765
				c-6.008-5.726-10.441-12.776-13.07-20.644C544.457,490.616,543.723,485.434,543.682,480.271z"/>
		</g>
	</g>
</g>
<g id="AG-OUTLINE">
	<g>
		<g id="POLYLINE_36_">
			
				<path fill="none" stroke="#F368E0" stroke-width="3.5" stroke-linecap="round" stroke-linejoin="round" stroke-miterlimit="10" d="
				M543.682,480.271c0.041-7.875,1.891-15.662,5.512-22.665c3.893-7.526,9.734-14.005,16.83-18.639
				c6.744-4.405,14.547-7.119,22.57-7.844c7.658-0.692,15.447,0.438,22.598,3.266c7.84,3.099,14.836,8.233,20.146,14.778
				c5.18,6.382,8.717,14.042,10.213,22.124c1.383,7.477,1.01,15.247-1.08,22.558c-2.295,8.021-6.648,15.419-12.551,21.314
				c-5.904,5.898-13.287,10.254-21.314,12.55c-7.311,2.091-15.08,2.463-22.557,1.08c-8.082-1.495-15.742-5.033-22.125-10.212
				c-6.545-5.311-11.68-12.308-14.777-20.146C544.857,492.648,543.715,486.487,543.682,480.271z"/>
		</g>
		<g id="POLYLINE_35_">
			
				<path fill="none" stroke="#F368E0" stroke-width="3.5" stroke-linecap="round" stroke-linejoin="round" stroke-miterlimit="10" d="
				M136.323,480.271c0.042-7.876,1.894-15.66,5.513-22.665c3.891-7.529,9.738-14.002,16.831-18.639
				c6.741-4.407,14.548-7.119,22.569-7.844c7.66-0.691,15.446,0.439,22.598,3.266c7.841,3.099,14.834,8.234,20.146,14.778
				c5.182,6.381,8.715,14.043,10.213,22.124c1.385,7.473,1.012,15.251-1.081,22.558c-2.299,8.024-6.647,15.41-12.549,21.314
				c-5.897,5.9-13.294,10.256-21.315,12.55c-7.311,2.091-15.08,2.463-22.557,1.08c-8.08-1.494-15.745-5.033-22.125-10.212
				c-6.545-5.314-11.676-12.307-14.778-20.146C137.498,492.649,136.356,486.486,136.323,480.271z"/>
		</g>
		<g id="POLYLINE_5_">
			
				<path fill="none" stroke="#F368E0" stroke-width="3.5" stroke-linecap="round" stroke-linejoin="round" stroke-miterlimit="10" d="
				M127.77,494.289c0.221,1.146,0.264,2.57-0.711,3.393c-0.511,0.432-1.191,0.601-1.844,0.661c-1.807,0.168-3.69,0.065-5.502,0.017
				c-3.973-0.105-8.017-1.137-11.844-2.135c-4.529-1.181-9.004-2.554-13.488-3.896c-7.952-2.381-16.111-4.732-23.735-8.049
				c-3.18-1.383-5.664-2.98-7.752-5.781c-2.158-2.896-3.589-6.284-4.202-9.84c-0.605-3.511-0.681-7.073-0.784-10.627
				c-0.159-5.517-0.318-11.032-0.479-16.549c-0.078-2.709-0.557-5.914,0.459-8.505c0.566-1.448,1.434-2.79,2.209-4.133
				c1.201-2.076,2.438-4.137,3.604-6.232c2.054-3.695,4.063-7.42,5.513-11.402c1.486-4.082,2.504-8.287,3.531-12.502
				c1.002-4.113,1.976-8.246,2.822-12.395c0.342-1.682,0.852-3.476,0.848-5.203c-0.002-0.653-0.301-1.114-0.551-1.718
				c-0.597-1.439-1.308-3.408-0.772-4.984c0.45-1.325,1.819-2.004,3.038-2.475c3.567-1.378,7.557-1.914,11.322-2.453
				c4.498-0.644,9.003-1.239,13.508-1.842c7.69-1.031,14.966-3.305,22.145-6.203c10.011-4.041,20.021-8.081,30.031-12.122
				c7.332-2.96,14.695-5.822,22.076-8.662c8.431-3.244,16.947-6.268,25.449-9.322c7.875-2.83,15.834-5.457,23.895-7.708
				c8.244-2.302,16.642-4.03,25.112-5.247c8.497-1.22,17.072-2.092,25.643-2.586c8.723-0.503,17.447-0.933,26.185-1.096
				c9.186-0.171,18.373-0.25,27.561-0.178c8.48,0.066,16.969,0.221,25.441,0.616c8.869,0.414,17.764,0.836,26.578,1.946
				c8.711,1.097,17.301,2.769,25.822,4.87c8.262,2.036,16.459,4.48,24.461,7.377c8.539,3.093,16.896,6.56,25.117,10.425
				c7.547,3.549,14.953,7.464,22.209,11.577c7.539,4.275,15.047,8.609,22.406,13.189c3.945,2.455,7.906,4.887,11.824,7.386
				c3.785,2.414,7.502,4.949,11.312,7.32c1.959,1.22,4.188,2.151,6.525,2.212c4.318,0.113,8.631,0.216,12.945,0.439
				c8.629,0.447,17.232,1.59,25.76,2.95c8.537,1.362,17.076,2.894,25.521,4.75c8.754,1.925,17.479,3.931,26.098,6.395
				c8.336,2.383,16.527,5.206,24.527,8.554c7.379,3.088,15.215,6.579,20.916,12.353c2.738,2.774,4.877,6.014,6.842,9.364
				c1.641,2.8,2.887,6.138,5.152,8.516c2.211,2.322,5.182,4.144,6.654,7.091c0.801,1.602,0.824,3.442,0.824,5.194
				c0,5.6,0,11.198,0,16.797c0,2.448,0,4.896,0,7.345c0,0.772,0.062,1.577-0.199,2.318c-0.594,1.679-2.338,1.74-3.867,1.786
				c1.551,4.33,3.104,8.66,4.654,12.99c0.574,1.597,1.07,3.223,1.408,4.887c0.43,2.111,0.406,4.197,0.406,6.341
				c0,1.428,0.219,3.521-1.248,4.38c-0.475,0.277-1.014,0.33-1.553,0.33c-1.611,0-3.223,0-4.834,0c-6.23,0-12.461,0-18.691,0
				c-3.418,0-6.922,0.213-10.336-0.062c-1.992-0.16-5.473-1.104-4.646-3.717c0.967-3.06,1.9-6.067,2.504-9.228
				c-2.418,0-4.836,0-7.254,0c-1.037,0-2.074,0-3.111,0c-0.197,0-0.631,2.208-0.721,2.518c-1.197,4.171-2.904,8.202-5.152,11.919
				c-3.725,6.159-8.744,11.529-14.732,15.539c-6.955,4.656-14.955,7.479-23.289,8.246c-8.164,0.751-16.449-0.675-23.971-3.9
				c-6.98-2.994-13.238-7.711-18.119-13.522c-2.471-2.944-4.576-6.168-6.314-9.596c-0.967-1.906-1.807-3.891-2.5-5.913
				c-0.352-1.021-0.678-2.051-0.965-3.093c-0.129-0.471-0.305-2.197-0.783-2.197c-3.404,0-6.809,0-10.211,0
				c0.404,2.094,0.877,4.181,1.518,6.215c0.295,0.934,0.584,1.892,0.574,2.882c-0.01,1.017-0.383,1.946-1.334,2.404
				c-0.766,0.368-1.625,0.341-2.453,0.341c-1.277,0-2.557,0-3.834,0c-5.637,0-11.271,0-16.908,0c-8.959,0-17.918,0-26.877,0
				c-11.342,0-22.686,0-34.029,0c-12.787,0-25.574,0-38.361,0c-13.293,0-26.584,0-39.877,0c-12.859,0-25.717,0-38.574,0
				c-11.484,0-22.969,0-34.452,0c-9.171,0-18.341,0-27.511,0c-5.918,0-11.836,0-17.753,0c-2.437,0-5.136,0.265-7.554-0.158
				c-1.006-0.176-2.136-0.527-2.607-1.522c-0.277-0.587-0.266-1.271-0.201-1.901c0.186-1.835,0.582-3.639,0.74-5.48
				c0.079-0.926,0.125-1.853,0.174-2.779c-2.352,0-4.702,0-7.053,0c-1.266,0-2.529,0-3.795,0c-0.137,0-0.491-0.077-0.527,0.076
				c-0.127,0.546-0.26,1.091-0.403,1.633c-1.11,4.192-2.779,8.229-4.941,11.99c-3.632,6.315-8.667,11.736-14.63,15.91
				c-6.75,4.724-14.756,7.668-22.942,8.527c-8.123,0.853-16.411-0.333-23.966-3.44c-7.066-2.906-13.371-7.459-18.406-13.197
				c-5.301-6.04-9.06-13.431-10.875-21.255c-0.109-0.469-1.012-0.244-1.436-0.244c-1.182,0-2.363,0-3.545,0c-1.84,0-3.679,0-5.518,0
				C127.309,492.239,127.527,493.266,127.77,494.289z"/>
		</g>
	</g>
</g>
</svg>
