<?xml version="1.0" encoding="utf-8"?>
<!-- Generator: Adobe Illustrator 23.0.4, SVG Export Plug-In . SVG Version: 6.00 Build 0)  -->
<!DOCTYPE svg PUBLIC "-//W3C//DTD SVG 1.1//EN" "http://www.w3.org/Graphics/SVG/1.1/DTD/svg11.dtd" [
	<!ENTITY ns_extend "http://ns.adobe.com/Extensibility/1.0/">
	<!ENTITY ns_ai "http://ns.adobe.com/AdobeIllustrator/10.0/">
	<!ENTITY ns_graphs "http://ns.adobe.com/Graphs/1.0/">
	<!ENTITY ns_vars "http://ns.adobe.com/Variables/1.0/">
	<!ENTITY ns_imrep "http://ns.adobe.com/ImageReplacement/1.0/">
	<!ENTITY ns_sfw "http://ns.adobe.com/SaveForWeb/1.0/">
	<!ENTITY ns_custom "http://ns.adobe.com/GenericCustomNamespace/1.0/">
	<!ENTITY ns_adobe_xpath "http://ns.adobe.com/XPath/1.0/">
]>
<svg version="1.1" xmlns:x="&ns_extend;" xmlns:i="&ns_ai;" xmlns:graph="&ns_graphs;"
	 xmlns="http://www.w3.org/2000/svg" xmlns:xlink="http://www.w3.org/1999/xlink" x="0px" y="0px" viewBox="0 0 750 750"
	 enable-background="new 0 0 750 750" xml:space="preserve">
<metadata>
	<sfw  xmlns="&ns_sfw;">
		<slices></slices>
		<sliceSourceBounds  bottomLeftOrigin="true" height="7875" width="5956.985" x="-4347.985" y="-1125"></sliceSourceBounds>
	</sfw>
</metadata>
<g id="FILL-BACKGROUND">
	<rect fill="#FFFFFF" width="750" height="750"/>
</g>
<g id="N-DIMENSIONS">
</g>
<g id="N-TEXT">
</g>
<g id="AG-DIAGRAM">
</g>
<g id="AG-DETAIL">
	<g id="POLYLINE_2330_">
		
			<path fill="none" stroke="#F368E0" stroke-width="2.25" stroke-linecap="round" stroke-linejoin="round" stroke-miterlimit="10" d="
			M552.202,399.642c-1.095-0.089-2.189-0.177-3.284-0.266c-2.899-0.235-5.799-0.469-8.698-0.704c-4.16-0.337-8.32-0.673-12.48-1.01
			c-4.899-0.396-9.799-0.793-14.698-1.189c-5.049-0.408-10.097-0.817-15.146-1.225c-4.694-0.38-9.387-0.759-14.081-1.139
			c-3.75-0.303-7.501-0.607-11.251-0.91c-2.292-0.185-4.583-0.371-6.875-0.556c-0.569-0.046-1.137-0.093-1.706-0.135
			c-1.54-0.114-3.079-0.228-4.619-0.342c-2.958-0.219-5.915-0.438-8.873-0.657c-4.035-0.299-8.07-0.597-12.106-0.896
			c-4.712-0.349-9.423-0.697-14.135-1.046c-5.041-0.373-10.081-0.746-15.122-1.119c-5.028-0.372-10.056-0.744-15.084-1.116
			c-4.605-0.341-9.211-0.682-13.816-1.023c-3.857-0.285-7.715-0.571-11.572-0.856c-2.71-0.201-5.419-0.401-8.129-0.602
			c-1.219-0.09-2.438-0.188-3.658-0.271c-2.139-0.146-4.281-0.247-6.421-0.37c-4.84-0.278-9.681-0.556-14.521-0.833
			c-1.976-0.113-3.951-0.238-5.928-0.331c-4.104-0.193-8.209-0.386-12.313-0.579c-3.921-0.184-7.842-0.369-11.762-0.553
			c-2.1-0.099-4.203-0.158-6.304-0.234c-4.838-0.174-9.676-0.349-14.514-0.524c-2.058-0.074-4.116-0.163-6.175-0.215
			c-3.951-0.099-7.903-0.198-11.854-0.297c-4.173-0.105-8.346-0.209-12.518-0.314c-1.77-0.044-3.54-0.063-5.31-0.088
			c-4.738-0.067-9.475-0.134-14.213-0.201c-3.471-0.049-6.941-0.101-10.412-0.147c-2.054-0.027-4.109-0.016-6.162-0.022
			c-4.878-0.015-9.757-0.03-14.635-0.045c-3.068-0.009-6.136-0.033-9.203-0.028c-2.335,0.003-4.671,0.037-7.006,0.056
			c-4.894,0.04-9.787,0.08-14.681,0.12c-2.817,0.023-5.635,0.03-8.452,0.069c-2.554,0.036-5.109,0.103-7.663,0.154
			c-4.891,0.099-9.781,0.197-14.672,0.296c-2.531,0.051-5.063,0.102-7.594,0.153"/>
	</g>
</g>
<g id="AG-TRANSPORT">
	<g id="POLYLINE_2255_">
		
			<path fill="none" stroke="#F368E0" stroke-width="2.75" stroke-linecap="round" stroke-linejoin="round" stroke-miterlimit="10" d="
			M570.66,451.902c0.001-1.791,1.156-3.432,2.842-4.036c1.686-0.603,3.622-0.068,4.758,1.316c1.136,1.384,1.285,3.387,0.365,4.923
			c-0.92,1.536-2.756,2.351-4.512,2.003c-1.75-0.347-3.132-1.792-3.403-3.555C570.677,452.337,570.66,452.119,570.66,451.902z"/>
	</g>
	<g id="POLYLINE_2254_">
		
			<path fill="none" stroke="#F368E0" stroke-width="2.75" stroke-linecap="round" stroke-linejoin="round" stroke-miterlimit="10" d="
			M544.735,451.902c0.027-3.117,0.478-6.208,1.43-9.181c0.932-2.912,2.301-5.674,4.056-8.177c1.786-2.549,3.973-4.818,6.452-6.7
			c2.455-1.864,5.192-3.346,8.093-4.386c2.895-1.037,5.946-1.626,9.018-1.746c3.116-0.121,6.254,0.245,9.257,1.082
			c2.945,0.821,5.755,2.088,8.324,3.746c2.612,1.686,4.958,3.786,6.931,6.188c1.959,2.386,3.553,5.076,4.698,7.944
			c1.141,2.859,1.845,5.883,2.079,8.952c0.237,3.103-0.014,6.245-0.735,9.272c-0.714,2.998-1.888,5.882-3.472,8.525
			c-1.58,2.638-3.563,5.03-5.862,7.072c-2.331,2.071-4.988,3.779-7.841,5.038c-2.797,1.234-5.773,2.039-8.81,2.387
			c-3.089,0.354-6.235,0.221-9.284-0.384c-3.029-0.601-5.967-1.668-8.672-3.158c-2.696-1.485-5.159-3.376-7.288-5.599
			c-2.153-2.248-3.951-4.835-5.316-7.632c-1.351-2.769-2.273-5.744-2.727-8.792C544.846,454.878,544.748,453.394,544.735,451.902z"
			/>
	</g>
	<g id="POLYLINE_2253_">
		
			<path fill="none" stroke="#F368E0" stroke-width="2.75" stroke-linecap="round" stroke-linejoin="round" stroke-miterlimit="10" d="
			M533.063,451.902c0.037-4.31,0.663-8.576,1.97-12.688c1.286-4.048,3.192-7.893,5.631-11.37c2.485-3.542,5.522-6.691,8.967-9.308
			c3.395-2.579,7.188-4.629,11.202-6.066s8.246-2.259,12.507-2.421c4.323-0.164,8.669,0.342,12.837,1.503
			c4.092,1.14,8.004,2.902,11.567,5.214c3.605,2.339,6.847,5.234,9.574,8.556c2.728,3.322,4.937,7.064,6.53,11.056
			c1.574,3.945,2.542,8.125,2.864,12.361c0.328,4.314-0.021,8.675-1.023,12.884c-0.987,4.147-2.618,8.14-4.808,11.797
			s-4.94,6.979-8.13,9.808c-3.237,2.87-6.917,5.237-10.875,6.985c-3.885,1.716-8.028,2.836-12.249,3.311
			c-4.271,0.48-8.613,0.3-12.829-0.537c-4.216-0.836-8.298-2.327-12.063-4.401c-3.72-2.049-7.121-4.666-10.058-7.735
			c-2.991-3.126-5.489-6.718-7.385-10.607c-1.869-3.832-3.142-7.952-3.771-12.168C533.217,456.029,533.081,453.97,533.063,451.902z"
			/>
	</g>
	<g id="POLYLINE_355_">
		
			<path fill="none" stroke="#F368E0" stroke-width="2.75" stroke-linecap="round" stroke-linejoin="round" stroke-miterlimit="10" d="
			M558.627,469.424c-2.694-2.552-4.798-5.646-6.104-9.125c-0.371-0.988-0.666-1.999-0.911-3.025"/>
	</g>
	<g id="POLYLINE_354_">
		
			<path fill="none" stroke="#F368E0" stroke-width="2.75" stroke-linecap="round" stroke-linejoin="round" stroke-miterlimit="10" d="
			M581.962,474.796c-3.557,1.057-7.289,1.332-10.955,0.724c-1.041-0.173-2.064-0.423-3.076-0.724"/>
	</g>
	<g id="POLYLINE_353_">
		
			<path fill="none" stroke="#F368E0" stroke-width="2.75" stroke-linecap="round" stroke-linejoin="round" stroke-miterlimit="10" d="
			M598.282,457.274c-0.863,3.609-2.491,6.978-4.851,9.849c-0.67,0.815-1.399,1.576-2.165,2.302"/>
	</g>
	<g id="POLYLINE_352_">
		
			<path fill="none" stroke="#F368E0" stroke-width="2.75" stroke-linecap="round" stroke-linejoin="round" stroke-miterlimit="10" d="
			M591.267,434.379c2.694,2.552,4.798,5.646,6.104,9.125c0.371,0.988,0.666,1.999,0.911,3.025"/>
	</g>
	<g id="POLYLINE_351_">
		
			<path fill="none" stroke="#F368E0" stroke-width="2.75" stroke-linecap="round" stroke-linejoin="round" stroke-miterlimit="10" d="
			M551.612,446.53c0.863-3.609,2.491-6.978,4.851-9.849c0.67-0.815,1.399-1.576,2.165-2.302"/>
	</g>
	<g id="POLYLINE_350_">
		
			<path fill="none" stroke="#F368E0" stroke-width="2.75" stroke-linecap="round" stroke-linejoin="round" stroke-miterlimit="10" d="
			M567.932,429.007c3.557-1.057,7.289-1.332,10.955-0.724c1.041,0.173,2.064,0.423,3.076,0.724"/>
	</g>
	<g id="POLYLINE_349_">
		
			<path fill="none" stroke="#F368E0" stroke-width="2.75" stroke-linecap="round" stroke-linejoin="round" stroke-miterlimit="10" d="
			M555.316,474.867c1.634-2.686,3.268-5.372,4.903-8.059c1.032-1.697,2.316-3.429,2.887-5.356c0.523-1.765-0.027-3.333-1.88-3.939
			c-1.699-0.556-3.565-0.378-5.323-0.338c-3.553,0.082-7.106,0.163-10.659,0.245"/>
	</g>
	<g id="POLYLINE_347_">
		
			<path fill="none" stroke="#F368E0" stroke-width="2.75" stroke-linecap="round" stroke-linejoin="round" stroke-miterlimit="10" d="
			M585.02,480.385c-1.47-2.687-2.94-5.374-4.41-8.061c-0.963-1.76-1.83-3.749-3.185-5.254c-0.57-0.633-1.29-1.235-2.16-1.357
			c-0.941-0.132-1.788,0.368-2.446,0.996c-1.299,1.239-2.077,2.951-2.926,4.504c-1.673,3.057-3.346,6.115-5.018,9.172"/>
	</g>
	<g id="POLYLINE_346_">
		
			<path fill="none" stroke="#F368E0" stroke-width="2.75" stroke-linecap="round" stroke-linejoin="round" stroke-miterlimit="10" d="
			M604.651,457.42c-3.143-0.072-6.287-0.144-9.43-0.216c-1.986-0.046-4.128-0.291-6.081,0.178c-4.694,1.128-1.624,5.876-0.103,8.377
			c1.847,3.036,3.694,6.073,5.542,9.109"/>
	</g>
	<g id="POLYLINE_345_">
		
			<path fill="none" stroke="#F368E0" stroke-width="2.75" stroke-linecap="round" stroke-linejoin="round" stroke-miterlimit="10" d="
			M594.578,428.937c-1.634,2.686-3.268,5.372-4.903,8.059c-1.032,1.697-2.316,3.429-2.887,5.356
			c-0.523,1.765,0.027,3.333,1.88,3.939c1.699,0.556,3.565,0.378,5.323,0.338c3.553-0.082,7.106-0.163,10.659-0.245"/>
	</g>
	<g id="POLYLINE_344_">
		
			<path fill="none" stroke="#F368E0" stroke-width="2.75" stroke-linecap="round" stroke-linejoin="round" stroke-miterlimit="10" d="
			M545.243,446.384c3.143,0.072,6.287,0.144,9.43,0.216c1.986,0.046,4.128,0.291,6.081-0.178c4.694-1.128,1.624-5.876,0.103-8.377
			c-1.847-3.036-3.694-6.073-5.542-9.109"/>
	</g>
	<g id="POLYLINE_343_">
		
			<path fill="none" stroke="#F368E0" stroke-width="2.75" stroke-linecap="round" stroke-linejoin="round" stroke-miterlimit="10" d="
			M564.874,423.418c1.47,2.687,2.94,5.374,4.41,8.061c0.963,1.76,1.83,3.749,3.185,5.254c0.57,0.633,1.29,1.235,2.16,1.357
			c0.941,0.132,1.788-0.368,2.446-0.996c1.299-1.239,2.077-2.951,2.926-4.504c1.673-3.057,3.346-6.115,5.018-9.172"/>
	</g>
	<g id="POLYLINE_342_">
		
			<path fill="none" stroke="#F368E0" stroke-width="2.75" stroke-linecap="round" stroke-linejoin="round" stroke-miterlimit="10" d="
			M201.825,423.418c1.47,2.687,2.94,5.374,4.41,8.061c0.963,1.76,1.83,3.749,3.185,5.254c0.57,0.633,1.29,1.235,2.16,1.357
			c0.941,0.132,1.788-0.368,2.446-0.996c1.299-1.239,2.077-2.951,2.926-4.504c1.673-3.057,3.346-6.115,5.018-9.172"/>
	</g>
	<g id="POLYLINE_341_">
		
			<path fill="none" stroke="#F368E0" stroke-width="2.75" stroke-linecap="round" stroke-linejoin="round" stroke-miterlimit="10" d="
			M182.194,446.384c3.143,0.072,6.287,0.144,9.43,0.216c1.986,0.046,4.128,0.291,6.081-0.178c4.694-1.128,1.624-5.876,0.103-8.377
			c-1.847-3.036-3.694-6.073-5.542-9.109"/>
	</g>
	<g id="POLYLINE_340_">
		
			<path fill="none" stroke="#F368E0" stroke-width="2.75" stroke-linecap="round" stroke-linejoin="round" stroke-miterlimit="10" d="
			M231.528,428.937c-1.634,2.686-3.268,5.372-4.903,8.059c-1.032,1.697-2.316,3.429-2.887,5.356
			c-0.523,1.765,0.027,3.333,1.88,3.939c1.699,0.556,3.565,0.378,5.323,0.338c3.553-0.082,7.106-0.163,10.659-0.245"/>
	</g>
	<g id="POLYLINE_339_">
		
			<path fill="none" stroke="#F368E0" stroke-width="2.75" stroke-linecap="round" stroke-linejoin="round" stroke-miterlimit="10" d="
			M241.601,457.42c-3.143-0.072-6.287-0.144-9.43-0.216c-1.986-0.046-4.128-0.291-6.081,0.178c-4.694,1.128-1.624,5.876-0.103,8.377
			c1.847,3.036,3.694,6.073,5.542,9.109"/>
	</g>
	<g id="POLYLINE_338_">
		
			<path fill="none" stroke="#F368E0" stroke-width="2.75" stroke-linecap="round" stroke-linejoin="round" stroke-miterlimit="10" d="
			M221.971,480.385c-1.47-2.687-2.94-5.374-4.41-8.061c-0.963-1.76-1.83-3.749-3.185-5.254c-0.57-0.633-1.29-1.235-2.16-1.357
			c-0.941-0.132-1.788,0.368-2.446,0.996c-1.299,1.239-2.077,2.951-2.926,4.504c-1.673,3.057-3.346,6.115-5.018,9.172"/>
	</g>
	<g id="POLYLINE_337_">
		
			<path fill="none" stroke="#F368E0" stroke-width="2.75" stroke-linecap="round" stroke-linejoin="round" stroke-miterlimit="10" d="
			M192.267,474.867c1.634-2.686,3.268-5.372,4.903-8.059c1.032-1.697,2.316-3.429,2.887-5.356c0.523-1.765-0.027-3.333-1.88-3.939
			c-1.699-0.556-3.565-0.378-5.323-0.338c-3.553,0.082-7.106,0.163-10.659,0.245"/>
	</g>
	<g id="POLYLINE_336_">
		
			<path fill="none" stroke="#F368E0" stroke-width="2.75" stroke-linecap="round" stroke-linejoin="round" stroke-miterlimit="10" d="
			M204.882,429.007c3.557-1.057,7.289-1.332,10.955-0.724c1.041,0.173,2.064,0.423,3.076,0.724"/>
	</g>
	<g id="POLYLINE_335_">
		
			<path fill="none" stroke="#F368E0" stroke-width="2.75" stroke-linecap="round" stroke-linejoin="round" stroke-miterlimit="10" d="
			M188.563,446.53c0.863-3.609,2.491-6.978,4.851-9.849c0.67-0.815,1.399-1.576,2.165-2.302"/>
	</g>
	<g id="POLYLINE_334_">
		
			<path fill="none" stroke="#F368E0" stroke-width="2.75" stroke-linecap="round" stroke-linejoin="round" stroke-miterlimit="10" d="
			M228.217,434.379c2.694,2.552,4.798,5.646,6.104,9.125c0.371,0.988,0.666,1.999,0.911,3.025"/>
	</g>
	<g id="POLYLINE_333_">
		
			<path fill="none" stroke="#F368E0" stroke-width="2.75" stroke-linecap="round" stroke-linejoin="round" stroke-miterlimit="10" d="
			M235.233,457.274c-0.863,3.609-2.491,6.978-4.851,9.849c-0.67,0.815-1.399,1.576-2.165,2.302"/>
	</g>
	<g id="POLYLINE_331_">
		
			<path fill="none" stroke="#F368E0" stroke-width="2.75" stroke-linecap="round" stroke-linejoin="round" stroke-miterlimit="10" d="
			M218.913,474.796c-3.557,1.057-7.289,1.332-10.955,0.724c-1.041-0.173-2.064-0.423-3.076-0.724"/>
	</g>
	<g id="POLYLINE_330_">
		
			<path fill="none" stroke="#F368E0" stroke-width="2.75" stroke-linecap="round" stroke-linejoin="round" stroke-miterlimit="10" d="
			M195.578,469.424c-2.694-2.552-4.798-5.646-6.104-9.125c-0.371-0.988-0.666-1.999-0.911-3.025"/>
	</g>
	<g id="POLYLINE_329_">
		
			<path fill="none" stroke="#F368E0" stroke-width="2.75" stroke-linecap="round" stroke-linejoin="round" stroke-miterlimit="10" d="
			M170.013,451.902c0.038-4.31,0.663-8.576,1.97-12.688c1.286-4.048,3.192-7.893,5.631-11.37c2.485-3.542,5.522-6.691,8.967-9.308
			c3.395-2.579,7.188-4.629,11.202-6.066c4.013-1.437,8.246-2.259,12.507-2.421c4.323-0.164,8.669,0.342,12.837,1.503
			c4.092,1.14,8.004,2.902,11.567,5.214c3.605,2.339,6.847,5.234,9.574,8.556c2.728,3.322,4.937,7.064,6.53,11.056
			c1.574,3.945,2.542,8.125,2.864,12.361c0.328,4.314-0.021,8.675-1.023,12.884c-0.987,4.147-2.618,8.14-4.808,11.797
			c-2.19,3.657-4.94,6.979-8.13,9.808c-3.237,2.87-6.917,5.237-10.875,6.985c-3.885,1.716-8.028,2.836-12.249,3.311
			c-4.271,0.48-8.613,0.3-12.829-0.537c-4.216-0.836-8.298-2.327-12.063-4.401c-3.72-2.049-7.121-4.666-10.058-7.735
			c-2.991-3.126-5.489-6.718-7.385-10.607c-1.869-3.832-3.142-7.952-3.771-12.168C170.167,456.029,170.031,453.97,170.013,451.902z"
			/>
	</g>
	<g id="POLYLINE_328_">
		
			<path fill="none" stroke="#F368E0" stroke-width="2.75" stroke-linecap="round" stroke-linejoin="round" stroke-miterlimit="10" d="
			M181.686,451.902c0.027-3.117,0.478-6.208,1.43-9.181c0.932-2.912,2.301-5.674,4.056-8.177c1.786-2.549,3.973-4.818,6.452-6.7
			c2.455-1.864,5.192-3.346,8.093-4.386c2.895-1.037,5.946-1.626,9.018-1.746c3.116-0.121,6.254,0.245,9.257,1.082
			c2.945,0.821,5.755,2.088,8.324,3.746c2.612,1.686,4.958,3.786,6.931,6.188c1.959,2.386,3.553,5.076,4.698,7.944
			c1.141,2.859,1.845,5.883,2.079,8.952c0.237,3.103-0.014,6.245-0.735,9.272c-0.714,2.998-1.888,5.882-3.472,8.525
			c-1.58,2.638-3.563,5.03-5.862,7.072c-2.331,2.071-4.988,3.779-7.841,5.038c-2.797,1.234-5.773,2.039-8.81,2.387
			c-3.089,0.354-6.235,0.221-9.284-0.384c-3.029-0.601-5.967-1.668-8.672-3.158c-2.696-1.485-5.159-3.376-7.288-5.599
			c-2.153-2.248-3.951-4.835-5.316-7.632c-1.351-2.769-2.273-5.744-2.727-8.792C181.797,454.878,181.699,453.394,181.686,451.902z"
			/>
	</g>
	<g id="POLYLINE_327_">
		
			<path fill="none" stroke="#F368E0" stroke-width="2.75" stroke-linecap="round" stroke-linejoin="round" stroke-miterlimit="10" d="
			M207.61,451.902c0.001-1.791,1.156-3.432,2.842-4.036c1.686-0.603,3.622-0.068,4.758,1.316c1.136,1.384,1.285,3.387,0.365,4.923
			c-0.92,1.536-2.756,2.351-4.512,2.003c-1.75-0.347-3.132-1.792-3.403-3.555C207.627,452.337,207.611,452.119,207.61,451.902z"/>
	</g>
	<g id="POLYLINE_326_">
		
			<path fill="none" stroke="#F368E0" stroke-width="2.75" stroke-linecap="round" stroke-linejoin="round" stroke-miterlimit="10" d="
			M524.158,475.293c0.017-3.313,0.063-6.625,0.215-9.934c0.157-3.427,0.408-6.847,0.767-10.259c0.343-3.257,0.804-6.504,1.416-9.722
			c0.587-3.085,1.292-6.153,2.343-9.117c1.024-2.888,2.33-5.672,3.892-8.308c1.634-2.758,3.553-5.348,5.71-7.719
			c2.136-2.349,4.509-4.481,7.067-6.363c2.572-1.893,5.337-3.526,8.233-4.871c2.743-1.274,5.605-2.289,8.536-3.033
			c2.886-0.732,5.841-1.196,8.813-1.388c3.337-0.216,6.698-0.088,10.009,0.385c2.996,0.428,5.954,1.131,8.819,2.108
			c2.95,1.006,5.806,2.292,8.508,3.847c2.76,1.588,5.363,3.444,7.757,5.544c2.402,2.106,4.588,4.453,6.523,6.995
			c1.906,2.504,3.558,5.202,4.929,8.035c1.329,2.746,2.387,5.623,3.16,8.574c0.824,3.146,1.316,6.38,1.469,9.628
			c0.176,3.71,0.167,7.434,0.242,11.147c0.063,3.113,0.092,6.225,0.118,9.339c0.013,1.587,0.027,3.175,0.04,4.762"/>
	</g>
	<g id="POLYLINE_325_">
		
			<line fill="none" stroke="#F368E0" stroke-width="2.75" stroke-linecap="round" stroke-linejoin="round" stroke-miterlimit="10" x1="524.158" y1="475.293" x2="260.622" y2="472.634"/>
	</g>
	<g id="POLYLINE_324_">
		
			<path fill="none" stroke="#F368E0" stroke-width="2.75" stroke-linecap="round" stroke-linejoin="round" stroke-miterlimit="10" d="
			M260.622,472.634c-1.39-0.193-2.352-0.901-2.999-2.132c-0.842-1.601-1.661-3.02-2.96-4.297c-0.826-0.812-1.731-1.536-2.658-2.228"
			/>
	</g>
	<g id="POLYLINE_323_">
		
			<path fill="none" stroke="#F368E0" stroke-width="2.75" stroke-linecap="round" stroke-linejoin="round" stroke-miterlimit="10" d="
			M171.261,462.049c-3.383-0.3-6.766-0.556-10.154-0.788"/>
	</g>
	<g id="POLYLINE_322_">
		
			<line fill="none" stroke="#F368E0" stroke-width="2.75" stroke-linecap="round" stroke-linejoin="round" stroke-miterlimit="10" x1="524.158" y1="475.293" x2="540.279" y2="475.406"/>
	</g>
	<g id="POLYLINE_321_">
		
			<path fill="none" stroke="#F368E0" stroke-width="2.75" stroke-linecap="round" stroke-linejoin="round" stroke-miterlimit="10" d="
			M622.723,474.941c2.928-0.198,5.86-0.361,8.785-0.6c3.354-0.275,6.707-0.548,10.056-0.877c3.089-0.304,6.172-0.641,9.249-1.049
			c3.051-0.405,6.093-0.884,9.114-1.474c2.792-0.545,5.732-1.049,8.384-2.108c1.797-0.718,3.07-2.074,4.045-3.73
			c0.749-1.273,1.616-3.236,0.042-4.28c-0.719-0.477-1.588-0.684-2.242-1.269c-0.557-0.498-0.794-1.18-0.895-1.899
			c-0.236-1.686-0.122-4.042,0.929-5.472c0.718-0.977,1.789-1.197,2.857-1.595c0.91-0.339,1.511-0.917,1.808-1.851
			c0.694-2.188,0.349-4.786,0.253-7.036c-0.11-2.589-0.091-5.409-0.896-7.899c-0.49-1.515-1.555-2.523-2.882-3.347
			c-2.471-1.533-5.284-2.55-8.031-3.464c-3.226-1.073-6.52-1.949-9.786-2.892c-2.792-0.806-5.57-1.653-8.325-2.58
			c-2.959-0.996-5.889-2.074-8.805-3.19c-2.815-1.077-5.612-2.216-8.364-3.445c-2.862-1.278-5.633-2.727-8.324-4.334
			c-2.592-1.548-5.119-3.207-7.623-4.893c-1.311-0.883-2.61-1.783-3.915-2.675"/>
	</g>
	<g id="POLYLINE_320_">
		
			<path fill="none" stroke="#F368E0" stroke-width="2.75" stroke-linecap="round" stroke-linejoin="round" stroke-miterlimit="10" d="
			M671.101,451.347c-1.678-0.09-3.309-0.562-4.656-1.591c-2.318-1.771-3.368-4.675-5.468-6.654c-1.54-1.451-3.596-2.125-5.651-2.45
			c-2.567-0.406-5.489-0.51-7.97,0.39c-1.666,0.604-2.918,1.796-3.78,3.326c-1.422,2.524-2.138,5.6-2.472,8.456
			c-0.33,2.813,0.205,5.456,2.014,7.694c1.402,1.735,3.461,2.639,5.538,3.314c3.176,1.033,6.512,1.635,9.828,1.992
			c3.419,0.368,6.874,0.436,10.31,0.382c0.953-0.015,1.906-0.032,2.859-0.048"/>
	</g>
	<g id="POLYLINE_319_">
		
			<path fill="none" stroke="#F368E0" stroke-width="2.75" stroke-linecap="round" stroke-linejoin="round" stroke-miterlimit="10" d="
			M669.415,458.378c-1.939,0.042-4.226,0.045-5.54,1.696c-1.06,1.333-1.673,2.498-3.497,2.705c-1.393,0.157-2.842-0.026-4.225-0.195
			c-1.683-0.206-3.355-0.505-5.008-0.883c-2.127-0.486-4.749-1.012-6.378-2.595c-1.228-1.194-1.482-2.987-1.504-4.622
			c-0.024-1.747,0.23-3.504,0.637-5.2c0.327-1.36,0.739-2.77,1.469-3.975c0.555-0.917,1.339-1.611,2.348-1.985
			c2.044-0.758,4.547-0.489,6.506,0.383c3.003,1.336,5.107,3.835,7.173,6.285c0.582,0.69,1.18,1.296,2.009,1.685
			c1.239,0.581,2.646,0.784,3.992,0.943c0.804,0.095,1.612,0.153,2.42,0.204"/>
	</g>
	<g id="POLYLINE_318_">
		
			<path fill="none" stroke="#F368E0" stroke-width="2.75" stroke-linecap="round" stroke-linejoin="round" stroke-miterlimit="10" d="
			M644.237,451.256c0.026-1.66,0.379-3.599,1.522-4.887c1.447-1.63,3.109-0.423,3.785,1.182c0.877,2.079,0.831,4.698,0.037,6.794
			c-0.496,1.309-1.777,3.168-3.384,2.208c-1.391-0.831-1.826-2.914-1.933-4.37C644.242,451.874,644.233,451.565,644.237,451.256z"/>
	</g>
	<g id="POLYLINE_317_">
		
			<path fill="none" stroke="#F368E0" stroke-width="2.75" stroke-linecap="round" stroke-linejoin="round" stroke-miterlimit="10" d="
			M646.039,446.086c2.025,1.886,1.903,5.779,1.041,8.154c-0.27,0.745-0.659,1.493-1.259,2.026"/>
	</g>
	<g id="POLYLINE_316_">
		
			<path fill="none" stroke="#F368E0" stroke-width="2.75" stroke-linecap="round" stroke-linejoin="round" stroke-miterlimit="10" d="
			M673.816,429.636c-1.853-0.644-3.626-1.818-4.797-3.41c-1.175-1.597-1.634-3.586-1.962-5.508
			c-0.448-2.616-0.664-5.279-0.886-7.922c-0.103-1.229-0.207-2.475-0.135-3.709c0.043-0.752,0.161-1.601,0.905-1.975
			c0.703-0.353,1.628-0.289,2.385-0.244c1.004,0.059,2.007,0.19,2.964,0.51"/>
	</g>
	<g id="POLYLINE_315_">
		
			<path fill="none" stroke="#F368E0" stroke-width="2.75" stroke-linecap="round" stroke-linejoin="round" stroke-miterlimit="10" d="
			M659.082,398.828c-2.116,0.912-4.241,1.743-6.259,2.861c-1.552,0.86-3.113,1.733-4.88,2.056c-2.098,0.384-4.283,0.055-6.365-0.284
			c-2.33-0.379-4.644-0.85-6.984-1.164c-4.593-0.616-9.255-0.748-13.884-0.663c-4.469,0.081-8.879,0.451-13.231,1.509
			c-4.393,1.068-8.722,2.567-12.802,4.517c-0.461,0.22-0.917,0.449-1.372,0.681"/>
	</g>
	<g id="POLYLINE_314_">
		
			<path fill="none" stroke="#F368E0" stroke-width="2.75" stroke-linecap="round" stroke-linejoin="round" stroke-miterlimit="10" d="
			M644.912,403.873c3.073,0.712,6.161,1.453,9.121,2.557c1.623,0.605,3.636,1.35,4.69,2.833c1.172,1.647,1.184,4.139,0.973,6.057
			c-0.185,1.686-0.677,3.384-1.904,4.614c-1.668,1.673-4.256,2.316-6.461,2.903c-0.375,0.1-0.752,0.194-1.128,0.289"/>
	</g>
	<g id="POLYLINE_313_">
		
			<path fill="none" stroke="#F368E0" stroke-width="2.75" stroke-linecap="round" stroke-linejoin="round" stroke-miterlimit="10" d="
			M670.081,427.405c-3.547-2.297-6.048-5.767-9.319-8.382c-0.516-0.413-1.067-0.809-1.682-1.062"/>
	</g>
	<g id="POLYLINE_312_">
		
			<path fill="none" stroke="#F368E0" stroke-width="2.75" stroke-linecap="round" stroke-linejoin="round" stroke-miterlimit="10" d="
			M666.791,407.194c-3.228,0.25-6.38,0.354-9.593-0.13c-0.942-0.142-1.877-0.32-2.812-0.501"/>
	</g>
	<g id="POLYLINE_311_">
		
			<path fill="none" stroke="#F368E0" stroke-width="2.75" stroke-linecap="round" stroke-linejoin="round" stroke-miterlimit="10" d="
			M524.855,457.982c-4.507,0.054-9.015,0.132-13.523,0.163c-2.823,0.019-5.648-0.029-8.47-0.045
			c-6.152-0.034-12.303-0.069-18.455-0.103c-4.818-0.027-9.637-0.054-14.455-0.081c-1.015-0.006-2.03-0.016-3.046-0.031
			c-2.695-0.039-5.39-0.079-8.084-0.118c-4.487-0.066-8.974-0.131-13.461-0.197c-5.7-0.083-11.4-0.167-17.1-0.25
			c-6.333-0.093-12.667-0.185-19-0.278c-6.387-0.093-12.774-0.187-19.161-0.28c-5.861-0.086-11.723-0.171-17.584-0.257
			c-4.756-0.07-9.512-0.139-14.269-0.209c-3.071-0.045-6.143-0.09-9.214-0.135c-1.085-0.016-2.17-0.026-3.255-0.058
			c-5.417-0.159-10.833-0.318-16.25-0.477c-3.067-0.09-6.132-0.178-9.197-0.302c-5.636-0.228-11.272-0.455-16.907-0.683
			c-3.484-0.141-6.965-0.352-10.446-0.538c-4.012-0.214-8.029-0.381-12.037-0.647c-5.305-0.353-10.609-0.706-15.914-1.06
			c-1.506-0.1-3.012-0.201-4.517-0.301"/>
	</g>
	<g id="POLYLINE_310_">
		
			<path fill="none" stroke="#F368E0" stroke-width="2.75" stroke-linecap="round" stroke-linejoin="round" stroke-miterlimit="10" d="
			M334.572,455.803c-2.301-5.408-4.639-10.801-6.826-16.257c-2.331-5.813-4.523-11.677-6.678-17.557
			c-2.011-5.487-3.901-11.023-5.739-16.57c-1.668-5.033-3.275-10.318-3.244-15.671c0.032-5.745,2.509-11.041,6.036-15.474
			c0.424-0.533,0.865-1.051,1.314-1.564"/>
	</g>
	<g id="POLYLINE_309_">
		
			<path fill="none" stroke="#F368E0" stroke-width="2.75" stroke-linecap="round" stroke-linejoin="round" stroke-miterlimit="10" d="
			M356.777,384.573c-0.032,0.866-0.673,1.614-1.534,1.754c-0.423,0.069-0.885,0.008-1.309-0.004
			c-2.582-0.072-5.163-0.145-7.745-0.217c-6.398-0.18-12.796-0.359-19.195-0.539c-1.21-0.034-2.77,0.132-3.222-1.331
			c-0.256-0.828,0.122-1.747,0.887-2.155c0.457-0.243,0.931-0.214,1.426-0.2c5.877,0.165,11.754,0.33,17.631,0.495
			c3,0.084,6,0.169,8.999,0.253c1.114,0.031,2.859-0.242,3.655,0.743C356.645,383.711,356.785,384.139,356.777,384.573z"/>
	</g>
	<g id="POLYLINE_308_">
		
			<path fill="none" stroke="#F368E0" stroke-width="2.75" stroke-linecap="round" stroke-linejoin="round" stroke-miterlimit="10" d="
			M349.679,386.204c-0.851,1.925-2.754,2.928-4.805,2.874c-2.87-0.076-5.739-0.161-8.608-0.242c-1.136-0.032-2.192-0.09-3.204-0.677
			c-0.96-0.557-1.709-1.443-2.1-2.481"/>
	</g>
	<g id="POLYLINE_306_">
		
			<path fill="none" stroke="#F368E0" stroke-width="2.75" stroke-linecap="round" stroke-linejoin="round" stroke-miterlimit="10" d="
			M331.064,382.021c0.851-1.925,2.754-2.928,4.805-2.874c2.87,0.076,5.739,0.161,8.608,0.242c1.136,0.032,2.192,0.09,3.204,0.677
			c0.96,0.557,1.709,1.443,2.1,2.481"/>
	</g>
	<g id="POLYLINE_305_">
		
			<path fill="none" stroke="#F368E0" stroke-width="2.75" stroke-linecap="round" stroke-linejoin="round" stroke-miterlimit="10" d="
			M436.997,369.229c0.714,1.782,2.123,3.443,3.862,4.297c1.146,0.563,2.431,0.798,3.683,0.99c1.684,0.258,3.388,0.396,5.091,0.449
			c3.037,0.093,6.602,0.149,9.386-1.262c1.547-0.784,2.491-2.241,2.817-3.925c0.353-1.828,0.125-3.733-0.632-5.43
			c-1.199-2.688-3.427-5.007-5.713-6.808c-2.128-1.676-4.533-2.748-7.24-2.993c-2.681-0.242-5.847-0.032-8.235,1.346
			c-1.619,0.934-2.506,2.49-2.932,4.27c-0.346,1.442-0.455,2.932-0.521,4.409c-0.056,1.25-0.134,2.541,0.155,3.77
			C436.789,368.644,436.882,368.941,436.997,369.229z"/>
	</g>
	<g id="POLYLINE_304_">
		
			<path fill="none" stroke="#F368E0" stroke-width="2.75" stroke-linecap="round" stroke-linejoin="round" stroke-miterlimit="10" d="
			M491.466,458.126c0.457-4.202,0.914-8.404,1.371-12.606c0.376-3.461,0.698-6.927,1.031-10.392
			c0.326-3.388,0.652-6.776,0.897-10.171c0.281-3.88,0.55-7.76,0.686-11.649c0.126-3.598,0.164-7.217-0.128-10.808
			c-0.278-3.417-0.932-6.817-2.146-10.031c-1.133-2.999-2.821-5.716-4.925-8.129c-2.367-2.715-5.132-5.064-7.916-7.337
			c-2.736-2.234-5.557-4.376-8.426-6.435c-3.037-2.18-6.091-4.337-9.206-6.405c-0.856-0.568-1.712-1.136-2.568-1.705"/>
	</g>
	<g id="POLYLINE_303_">
		
			<path fill="none" stroke="#F368E0" stroke-width="2.75" stroke-linecap="round" stroke-linejoin="round" stroke-miterlimit="10" d="
			M447.339,354.489c-3.527-2.059-7.069-4.097-10.673-6.019c-4.002-2.134-8.022-4.226-12.082-6.248
			c-3.789-1.888-7.623-3.68-11.484-5.416c-3.75-1.686-7.552-3.26-11.408-4.688c-3.878-1.436-7.822-2.692-11.84-3.673
			c-4.038-0.985-8.133-1.677-12.252-2.216c-4.021-0.527-8.068-0.895-12.11-1.212c-4.371-0.343-8.746-0.628-13.125-0.843
			c-4.315-0.213-8.633-0.343-12.953-0.433c-3.979-0.083-7.962-0.097-11.941-0.031c-4.335,0.073-8.67,0.172-13.002,0.364
			c-4.364,0.193-8.724,0.443-13.082,0.729c-4.256,0.279-8.507,0.598-12.751,1.02c-4.059,0.404-8.102,0.969-12.107,1.742
			c-4.016,0.776-7.993,1.78-11.904,2.973c-3.923,1.197-7.796,2.59-11.551,4.243c-3.842,1.692-7.57,3.618-11.207,5.712
			c-3.633,2.092-7.218,4.307-10.638,6.734c-1.575,1.118-3.168,2.278-4.532,3.652c-0.801,0.807-1.507,1.729-1.837,2.831
			c-0.356,1.189-0.264,2.466-0.073,3.676c0.299,1.893,0.865,3.757,1.502,5.561c0.774,2.195,1.853,4.159,4.141,4.991
			c3.044,1.107,6.579,0.995,9.77,1.108c4.786,0.17,9.572,0.34,14.359,0.51c4.683,0.167,9.367,0.321,14.05,0.499
			c0.651,0.025,1.301,0.063,1.951,0.096c1.922,0.098,3.844,0.195,5.767,0.293c3.114,0.158,6.228,0.317,9.343,0.475
			c4.103,0.209,8.207,0.417,12.31,0.626c4.941,0.251,9.882,0.502,14.823,0.753c5.563,0.283,11.125,0.565,16.688,0.848
			c6.043,0.307,12.086,0.614,18.129,0.921c6.323,0.321,12.645,0.643,18.968,0.964c6.397,0.325,12.795,0.65,19.192,0.975
			c6.315,0.321,12.629,0.642,18.943,0.963c6.073,0.309,12.146,0.617,18.219,0.926c5.626,0.286,11.253,0.572,16.879,0.858
			c4.982,0.253,9.963,0.506,14.945,0.759c4.178,0.212,8.356,0.425,12.534,0.637c3.204,0.163,6.408,0.326,9.612,0.488
			c2.032,0.103,4.063,0.206,6.095,0.31c0.678,0.034,1.357,0.069,2.036,0.103"/>
	</g>
	<g id="POLYLINE_302_">
		
			<path fill="none" stroke="#F368E0" stroke-width="2.75" stroke-linecap="round" stroke-linejoin="round" stroke-miterlimit="10" d="
			M417.581,332.13c1.369-0.813,2.776-1.56,4.208-2.255c0.697-0.338,1.423-0.62,2.115-0.964c0.413-0.205,0.716-0.65,0.361-1.081
			c-0.385-0.467-1.382-0.691-1.934-0.924c-0.796-0.337-1.599-0.658-2.403-0.975c-1.506-0.592-3.03-1.137-4.559-1.668
			c-3.167-1.1-6.377-2.068-9.602-2.981c-3.112-0.881-6.255-1.66-9.41-2.367c-3.173-0.711-6.365-1.334-9.572-1.874
			c-3.196-0.538-6.405-1.005-9.623-1.393c-3.563-0.43-7.13-0.799-10.704-1.13c-3.12-0.289-6.249-0.528-9.374-0.742
			c-3.421-0.234-6.844-0.434-10.27-0.584c-3.519-0.154-7.038-0.254-10.559-0.323c-3.369-0.066-6.738-0.052-10.107-0.033
			c-3.304,0.018-6.607,0.112-9.91,0.207c-3.179,0.092-6.357,0.227-9.533,0.386c-3.207,0.16-6.415,0.326-9.618,0.551
			c-3.636,0.255-7.272,0.515-10.904,0.824c-3.434,0.293-6.863,0.637-10.292,0.988c-3.216,0.329-6.424,0.729-9.628,1.152
			c-3.288,0.434-6.568,0.919-9.835,1.49c-3.198,0.558-6.382,1.198-9.542,1.944c-1.553,0.367-3.099,0.768-4.633,1.206
			c-0.805,0.23-3.056,0.541-1.948,1.768c1.19,1.319,2.444,2.585,3.665,3.876"/>
	</g>
	<g id="POLYLINE_301_">
		
			<path fill="none" stroke="#F368E0" stroke-width="2.75" stroke-linecap="round" stroke-linejoin="round" stroke-miterlimit="10" d="
			M500.202,369.199c-4.785-3.013-9.591-5.99-14.456-8.873c-4.963-2.94-9.98-5.787-15.01-8.611c-4.924-2.765-9.917-5.416-14.911-8.05
			c-4.932-2.601-9.922-5.092-14.932-7.541c-4.863-2.377-9.79-4.649-14.779-6.749c-0.602-0.253-1.206-0.5-1.809-0.75"/>
	</g>
	<g id="POLYLINE_300_">
		
			<path fill="none" stroke="#F368E0" stroke-width="2.75" stroke-linecap="round" stroke-linejoin="round" stroke-miterlimit="10" d="
			M622.723,474.941c-3.331,0.153-6.663,0.291-9.99,0.51c-1.099,0.072-2.198,0.145-3.297,0.217"/>
	</g>
	<g id="POLYLINE_299_">
		
			<path fill="none" stroke="#F368E0" stroke-width="2.75" stroke-linecap="round" stroke-linejoin="round" stroke-miterlimit="10" d="
			M634.834,402.327c-4.545-1.92-9.135-3.702-13.797-5.318c-4.481-1.553-9.036-2.915-13.625-4.114
			c-4.659-1.217-9.366-2.292-14.105-3.153c-4.973-0.903-9.961-1.67-14.975-2.315c-4.867-0.626-9.752-1.108-14.64-1.541
			c-4.686-0.415-9.381-0.731-14.073-1.084c-5.073-0.382-10.154-0.708-15.223-1.148c-4.917-0.427-9.815-1.068-14.649-2.07
			c-4.572-0.948-9.07-2.312-13.387-4.09c-4.364-1.797-8.547-4.028-12.486-6.628c-0.933-0.616-1.85-1.254-2.761-1.902"/>
	</g>
	<g id="POLYLINE_298_">
		
			<path fill="none" stroke="#F368E0" stroke-width="2.75" stroke-linecap="round" stroke-linejoin="round" stroke-miterlimit="10" d="
			M508.326,441.463c2.642-1.637,4.419-4.712,5.976-7.306c1.899-3.162,3.692-6.492,4.828-10.014c0.601-1.862,1.403-4.427,0.516-6.339
			c-0.62-1.335-2.065-1.889-3.418-2.159c-3.592-0.716-7.472-0.456-11.112-0.381c-0.786,0.016-1.582,0.029-2.363,0.127
			c-0.378,0.047-0.864,0.096-1.173,0.337c-0.999,0.78,0.711,2.018,1.364,2.3c2.697,1.164,5.846,0.644,8.596,1.617
			c1.228,0.435,1.214,1.273,0.876,2.367c-0.601,1.95-1.382,3.855-2.084,5.771c-1.286,3.51-2.822,6.914-4.18,10.394
			c-0.3,0.768-0.611,1.546-0.797,2.351c-0.075,0.323-0.173,0.726-0.075,1.052c0.271,0.896,1.604,0.557,2.237,0.298
			C507.799,441.765,508.068,441.623,508.326,441.463z"/>
	</g>
	<g id="POLYLINE_297_">
		
			<line fill="none" stroke="#F368E0" stroke-width="2.75" stroke-linecap="round" stroke-linejoin="round" stroke-miterlimit="10" x1="449.999" y1="376.595" x2="449.947" y2="374.973"/>
	</g>
	<g id="POLYLINE_252_">
		
			<line fill="none" stroke="#F368E0" stroke-width="2.75" stroke-linecap="round" stroke-linejoin="round" stroke-miterlimit="10" x1="303.836" y1="327.377" x2="318.437" y2="369.919"/>
	</g>
	<g id="POLYLINE_55_">
		
			<line fill="none" stroke="#F368E0" stroke-width="2.75" stroke-linecap="round" stroke-linejoin="round" stroke-miterlimit="10" x1="320.887" y1="370.053" x2="306.191" y2="327.234"/>
	</g>
	<g id="POLYLINE_54_">
		
			<path fill="none" stroke="#F368E0" stroke-width="2.75" stroke-linecap="round" stroke-linejoin="round" stroke-miterlimit="10" d="
			M442.631,354.919c-3.228-1.815-6.452-3.637-9.73-5.363c-3.518-1.853-7.057-3.657-10.624-5.413
			c-3.345-1.647-6.72-3.239-10.122-4.765c-3.335-1.495-6.705-2.918-10.124-4.209c-3.365-1.271-6.773-2.432-10.241-3.392
			c-3.58-0.991-7.215-1.737-10.883-2.315c-3.481-0.548-6.99-0.946-10.499-1.262c-3.863-0.347-7.727-0.668-11.598-0.908
			c-3.736-0.231-7.473-0.456-11.214-0.581c-3.813-0.128-7.629-0.27-11.445-0.279c-3.932-0.009-7.862-0.014-11.794,0.068
			c-4.005,0.083-8.01,0.23-12.012,0.409c-3.791,0.17-7.577,0.423-11.363,0.671c-3.764,0.246-7.52,0.532-11.275,0.892
			c-3.655,0.35-7.298,0.83-10.915,1.46c-3.587,0.625-7.145,1.445-10.651,2.43c-3.613,1.015-7.169,2.205-10.667,3.561
			c-3.435,1.332-6.771,2.903-10.03,4.618c-3.276,1.723-6.489,3.593-9.605,5.591c-1.516,0.972-3.008,1.979-4.443,3.069
			c-1.322,1.005-2.731,1.987-3.879,3.196c-0.757,0.797-1.186,1.608-1.113,2.734c0.105,1.613,0.573,3.261,1.039,4.801
			c0.415,1.372,0.787,2.928,1.55,4.157c0.555,0.894,1.365,1.231,2.353,1.473c3.004,0.736,6.159,0.728,9.233,0.82
			c3.758,0.112,7.52,0.189,11.277,0.343c4.825,0.198,9.649,0.396,14.474,0.594c1.354,0.056,2.709,0.104,4.063,0.174
			c1.449,0.074,2.898,0.149,4.348,0.223c2.643,0.135,5.286,0.271,7.929,0.406c3.625,0.186,7.25,0.372,10.875,0.557
			c4.425,0.227,8.85,0.454,13.275,0.68c5.035,0.258,10.069,0.516,15.104,0.774c5.454,0.28,10.908,0.559,16.362,0.839
			c5.706,0.292,11.412,0.585,17.119,0.877c5.722,0.293,11.444,0.587,17.166,0.88c5.57,0.285,11.14,0.571,16.71,0.856
			c5.228,0.268,10.455,0.536,15.683,0.804c4.695,0.241,9.39,0.481,14.085,0.722c3.987,0.204,7.973,0.409,11.96,0.613
			c3.045,0.156,6.09,0.312,9.135,0.468c1.961,0.101,3.923,0.201,5.884,0.302c0.658,0.034,1.316,0.067,1.974,0.101"/>
	</g>
	<g id="POLYLINE_53_">
		
			<path fill="none" stroke="#F368E0" stroke-width="2.75" stroke-linecap="round" stroke-linejoin="round" stroke-miterlimit="10" d="
			M160.926,464.282c-3.081-0.197-6.162-0.393-9.243-0.59c-5.71-0.364-11.42-0.729-17.13-1.093c-3.04-0.194-6.083-0.365-9.122-0.582
			c-3.822-0.273-7.65-0.562-11.465-0.924c-3.987-0.378-7.973-0.774-11.94-1.334c-3.737-0.528-7.473-1.176-11.111-2.195
			c-2.833-0.793-5.893-1.698-8.015-3.852c-2.16-2.193-3.332-5.264-3.975-8.221c-0.781-3.59-0.896-7.345-0.93-11.007
			c-0.037-3.935,0.063-7.881,0.567-11.788c0.473-3.658,1.322-7.247,2.365-10.782c1.02-3.457,2.106-7.062,4.014-10.15
			c1.17-1.894,2.796-3.636,4.996-4.266c1.196-0.342,2.461-0.349,3.694-0.314c1.982,0.056,3.962,0.201,5.943,0.281
			c3.694,0.149,7.403,0.102,11.069-0.408c3.636-0.505,7.258-1.368,10.705-2.635c3.307-1.216,6.285-3.029,8.745-5.567
			c1.94-2.002,4.053-4.634,4.417-7.499c0.15-1.18-0.095-2.37-0.795-3.342c-1.141-1.583-3.117-2.312-4.95-2.716
			c-3.523-0.777-7.259-0.694-10.842-0.497c-3.633,0.199-7.295,0.625-10.813,1.58c-1.654,0.449-3.284,1.019-4.82,1.785
			c-1.522,0.759-2.845,1.764-4.174,2.815c-1.794,1.419-3.461,2.042-5.78,1.986c-0.881-0.021-1.835-0.141-2.484-0.804
			c-0.779-0.795-0.908-2.105-0.99-3.158c-0.141-1.816-0.055-3.66,0.041-5.477c0.088-1.679,0.23-3.372,0.579-5.019
			c0.46-2.175,1.418-4.046,3.637-4.818c2.896-1.007,6.245-0.759,9.249-0.559c4.045,0.269,8.085,0.53,12.139,0.613
			c3.927,0.081,7.854,0.029,11.78-0.106c3.937-0.136,7.872-0.396,11.805-0.603c3.924-0.207,7.847-0.439,11.773-0.603
			c3.94-0.165,7.88-0.225,11.823-0.166c3.771,0.056,7.541,0.389,11.314,0.327c2.957-0.048,6.045-0.347,8.639-1.882
			c3.262-1.93,6.494-3.911,9.77-5.817c3.543-2.061,7.079-4.13,10.645-6.151c3.712-2.103,7.437-4.176,11.176-6.231
			c3.415-1.876,6.876-3.67,10.333-5.466c3.336-1.732,6.702-3.408,10.079-5.058c3.514-1.716,7.039-3.427,10.662-4.902
			c3.504-1.426,7.101-2.59,10.782-3.463c3.688-0.875,7.435-1.473,11.192-1.959c3.964-0.513,7.942-0.893,11.924-1.233
			c4.011-0.343,8.032-0.578,12.05-0.823c3.412-0.208,6.829-0.352,10.245-0.479c3.904-0.146,7.808-0.317,11.714-0.405
			c4.291-0.097,8.582-0.213,12.874-0.258c3.936-0.041,7.871-0.057,11.807-0.024c4.046,0.034,8.091,0.109,12.136,0.234
			c4.027,0.124,8.048,0.329,12.07,0.562c3.649,0.211,7.301,0.508,10.937,0.889c3.899,0.408,7.791,0.876,11.662,1.498
			c3.795,0.609,7.578,1.321,11.309,2.251c3.872,0.965,7.676,2.139,11.425,3.506c3.509,1.278,6.957,2.761,10.328,4.365
			c3.59,1.709,7.149,3.475,10.669,5.323c3.731,1.959,7.417,3.993,11.104,6.033c2.862,1.584,5.708,3.205,8.524,4.869
			c3.654,2.159,7.321,4.297,10.962,6.479c3.939,2.36,7.855,4.759,11.782,7.139c2.805,1.7,5.622,3.416,8.627,4.743
			c3.186,1.407,6.536,2.131,9.996,2.44c3.303,0.295,6.62,0.338,9.934,0.383c5.033,0.068,10.067,0.137,15.1,0.205
			c3.173,0.043,6.348,0.115,9.519,0.236c4.428,0.169,8.849,0.368,13.274,0.604c3.648,0.195,7.297,0.44,10.939,0.72
			c4.051,0.312,8.099,0.669,12.143,1.059c3.88,0.375,7.758,0.797,11.625,1.291c3.839,0.49,7.67,1.047,11.488,1.682
			c3.904,0.65,7.791,1.384,11.666,2.187c3.808,0.789,7.594,1.681,11.367,2.623c3.559,0.889,7.115,1.82,10.636,2.847
			c3.888,1.134,7.778,2.262,11.631,3.513c3.766,1.223,7.52,2.48,11.234,3.854c3.645,1.349,7.267,2.765,10.818,4.344
			c3.589,1.596,7.129,3.302,10.567,5.203c3.317,1.835,6.574,3.811,9.646,6.034c2.231,1.615,4.3,3.413,5.061,6.153
			c0.887,3.194,0.358,6.716-0.041,9.945c-0.435,3.522-1.055,7.021-1.651,10.518"/>
	</g>
	<g id="POLYLINE_52_">
		
			<path fill="none" stroke="#F368E0" stroke-width="2.75" stroke-linecap="round" stroke-linejoin="round" stroke-miterlimit="10" d="
			M240.165,323.207c-5.531,1.899-10.959,4.036-16.339,6.326c-5.441,2.315-10.804,4.802-16.143,7.341
			c-5.475,2.603-10.868,5.37-16.276,8.107c-4.596,2.326-9.147,4.755-13.673,7.215c-5.788,3.145-11.55,6.327-17.301,9.54
			c-0.301,0.168-0.602,0.336-0.903,0.504"/>
	</g>
	<g id="POLYLINE_51_">
		
			<path fill="none" stroke="#F368E0" stroke-width="2.75" stroke-linecap="round" stroke-linejoin="round" stroke-miterlimit="10" d="
			M89.762,397.551c-0.662-3.955-0.713-7.912-0.286-11.9c0.121-1.13,0.284-2.255,0.504-3.369"/>
	</g>
	<g id="POLYLINE_50_">
		
			<path fill="none" stroke="#F368E0" stroke-width="2.75" stroke-linecap="round" stroke-linejoin="round" stroke-miterlimit="10" d="
			M109.987,375.722c1.638,2.199,2.972,4.482,3.4,7.226c0.497,3.185,0.266,6.645-0.501,9.771c-0.387,1.577-1.092,2.915-1.928,4.293"
			/>
	</g>
	<g id="POLYLINE_49_">
		
			<path fill="none" stroke="#F368E0" stroke-width="2.75" stroke-linecap="round" stroke-linejoin="round" stroke-miterlimit="10" d="
			M113.374,382.859c-1.214,0.208-2.412,0.501-3.626,0.714c-1.273,0.223-2.556,0.318-3.842,0.438
			c-1.517,0.142-3.187,0.277-4.554,1.021c-1.269,0.69-1.722,1.969-2.266,3.221c-0.489,1.128-1.206,1.831-2.393,2.173
			c-2.387,0.689-5.037,0.876-7.51,0.981"/>
	</g>
	<g id="POLYLINE_48_">
		
			<path fill="none" stroke="#F368E0" stroke-width="2.75" stroke-linecap="round" stroke-linejoin="round" stroke-miterlimit="10" d="
			M180.355,361.373c-3.734,1.849-7.46,3.714-11.211,5.53c-3.475,1.682-6.995,3.361-10.668,4.571
			c-3.502,1.153-7.132,1.713-10.786,2.129c-4.037,0.46-8.087,0.821-12.145,1.031c-4.053,0.21-8.116,0.289-12.172,0.128
			c-0.484-0.019-0.967-0.044-1.451-0.068"/>
	</g>
	<g id="POLYLINE_47_">
		
			<path fill="none" stroke="#F368E0" stroke-width="2.75" stroke-linecap="round" stroke-linejoin="round" stroke-miterlimit="10" d="
			M78.177,426.719c4.064,0.136,8.133,0.322,12.172,0.82c3.45,0.426,7.388,0.924,10.359,2.874c2.2,1.444,3.089,3.859,3.289,6.401
			c0.145,1.839-0.049,3.678-0.262,5.504c-0.242,2.077-0.414,4.18-0.776,6.242c-0.607,3.459-2.136,6.579-4.166,9.422
			c-0.274,0.384-0.558,0.762-0.844,1.138"/>
	</g>
	<g id="POLYLINE_46_">
		
			<path fill="none" stroke="#F368E0" stroke-width="2.75" stroke-linecap="round" stroke-linejoin="round" stroke-miterlimit="10" d="
			M160.926,464.282c0.176-3.144,0.407-6.281,0.747-9.412c0.323-2.977,0.747-5.947,1.299-8.89c0.551-2.936,1.19-5.87,2.137-8.706
			c0.908-2.72,2.064-5.357,3.453-7.866c1.424-2.571,3.088-5.007,4.962-7.271c1.937-2.339,4.099-4.492,6.442-6.424
			c2.324-1.916,4.827-3.616,7.465-5.07c2.56-1.411,5.244-2.595,8.012-3.532c2.68-0.908,5.438-1.583,8.233-2.026
			c2.814-0.445,5.667-0.645,8.515-0.603c2.943,0.044,5.879,0.369,8.763,0.956c2.811,0.572,5.569,1.404,8.232,2.469
			c2.81,1.124,5.515,2.516,8.066,4.144c2.625,1.675,5.091,3.6,7.355,5.737c2.262,2.135,4.325,4.482,6.154,6.998
			c1.805,2.484,3.383,5.127,4.717,7.892c1.308,2.712,2.372,5.54,3.187,8.438c0.781,2.777,1.327,5.62,1.635,8.487
			c0.322,3.001,0.342,6.034,0.394,9.049c0.055,3.187,0.061,6.376,0.025,9.564c-0.017,1.472-0.059,2.944-0.099,4.416"/>
	</g>
	<g id="POLYLINE_45_">
		
			<path fill="none" stroke="#F368E0" stroke-width="2.75" stroke-linecap="round" stroke-linejoin="round" stroke-miterlimit="10" d="
			M181.529,414.479c-4.265-0.736-8.508-1.564-12.733-2.505c-3.996-0.89-7.962-1.879-11.936-2.862
			c-5.32-1.315-10.64-2.63-15.96-3.945c-3.565-0.881-7.233-1.599-10.672-2.912c-3.48-1.328-6.293-3.593-8.685-6.415
			c-0.32-0.378-0.63-0.765-0.938-1.153"/>
	</g>
	<g id="POLYLINE_44_">
		
			<path fill="none" stroke="#F368E0" stroke-width="2.75" stroke-linecap="round" stroke-linejoin="round" stroke-miterlimit="10" d="
			M101.35,432.357c-2.883-0.07-5.766-0.139-8.649-0.209c-1.52-0.037-3.041-0.073-4.561-0.11c-0.641-0.015-1.26-0.03-1.704,0.528
			c-0.263,0.331-0.309,0.697-0.311,1.104c-0.005,0.839,0.011,1.679,0.016,2.518"/>
	</g>
	<g id="POLYLINE_43_">
		
			<path fill="none" stroke="#F368E0" stroke-width="2.75" stroke-linecap="round" stroke-linejoin="round" stroke-miterlimit="10" d="
			M103.268,446.332c-1.326-0.892-2.655-1.773-4.167-2.32c-1.378-0.498-2.838-0.72-4.291-0.856c-3.365-0.315-6.773-0.22-10.148-0.232
			c-2.059-0.007-4.117-0.015-6.176-0.022"/>
	</g>
	<g id="POLYLINE_42_">
		
			<path fill="none" stroke="#F368E0" stroke-width="2.75" stroke-linecap="round" stroke-linejoin="round" stroke-miterlimit="10" d="
			M101.73,431.215c-0.428,1.879-2.06,4.727-4.152,5.089c-0.435,0.075-0.883,0.048-1.321,0.025c-1.139-0.059-2.274-0.12-3.414-0.135
			c-2.162-0.028-4.324-0.008-6.485-0.001c-2.777,0.008-5.553,0.017-8.33,0.025"/>
	</g>
</g>
<g id="AG-OUTLINE">
	<g id="POLYLINE_39_">
		
			<path fill="none" stroke="#F368E0" stroke-width="3.5" stroke-linecap="round" stroke-linejoin="round" stroke-miterlimit="10" d="
			M424.304,328.625c0.667-1.053-1.714-1.613-2.338-1.873c-1.362-0.569-2.74-1.108-4.129-1.611c-2.883-1.045-5.792-2.016-8.731-2.893
			c-3.089-0.921-6.199-1.757-9.327-2.533c-2.888-0.717-5.801-1.345-8.724-1.904c-3.03-0.58-6.074-1.091-9.128-1.528
			c-3.005-0.43-6.017-0.813-9.036-1.131c-3.001-0.316-6.004-0.611-9.012-0.847c-3.494-0.273-6.985-0.542-10.482-0.769
			c-3.034-0.197-6.074-0.34-9.111-0.454c-3.059-0.116-6.121-0.194-9.181-0.235c-3.24-0.043-6.481-0.039-9.721-0.007
			c-3.19,0.031-6.378,0.123-9.566,0.215c-2.861,0.083-5.721,0.204-8.579,0.347c-3.176,0.158-6.351,0.326-9.525,0.533
			c-3.317,0.217-6.63,0.474-9.942,0.74c-2.855,0.23-5.708,0.484-8.557,0.775c-3.275,0.336-6.549,0.673-9.816,1.079
			c-3.054,0.379-6.105,0.797-9.145,1.274c-2.98,0.467-5.955,0.979-8.909,1.591c-3.016,0.625-6.02,1.316-8.983,2.158
			c-0.545,0.155-3.121,0.534-2.221,1.623c-0.068-0.076-1.865,0.678-2.089,0.757c-0.705,0.248-1.409,0.501-2.111,0.757
			c-1.378,0.503-2.747,1.03-4.116,1.558c-2.688,1.039-5.344,2.155-7.996,3.284c-5.441,2.315-10.804,4.802-16.143,7.341
			c-5.499,2.614-10.915,5.394-16.346,8.143c-4.624,2.34-9.202,4.787-13.755,7.262c-5.761,3.131-11.496,6.299-17.22,9.497
			c-0.263,0.147-0.575,0.394-0.869,0.464c-0.744,0.178-1.728-0.002-2.493,0.004c-1.388,0.011-2.776,0.045-4.164,0.085
			c-2.236,0.066-4.47,0.166-6.703,0.284c-6.45,0.34-12.904,0.787-19.359,1.01c-5.788,0.2-11.577,0.232-17.362-0.057
			c-2.903-0.145-5.801-0.404-8.705-0.528c-2.39-0.102-4.935-0.146-7.25,0.546c-3.99,1.193-4.275,5.705-4.508,9.232
			c-0.16,2.424-0.38,5.027,0.071,7.432c0.058,0.31,0.131,0.619,0.239,0.915c0.087,0.24,0.194,0.473,0.339,0.684
			c0.1,0.146,0.337,0.329,0.374,0.477c0.055,0.225-0.138,0.738-0.176,0.965c-0.051,0.305-0.097,0.61-0.141,0.916
			c-0.099,0.695-0.179,1.392-0.244,2.091c-0.248,2.676-0.341,5.404-0.097,8.084c0.055,0.6,0.13,1.198,0.221,1.794
			c0.051,0.332,0.107,0.664,0.163,0.995c0.067,0.398,0.09,0.302-0.177,0.462c-0.595,0.357-1.241,0.557-1.814,0.981
			c-1.632,1.208-2.77,2.98-3.659,4.775c-1.161,2.345-2,4.848-2.765,7.345c-1.662,5.424-2.812,10.917-3.141,16.589
			c-0.316,5.45-0.369,11.119,0.479,16.526c0.646,4.122,2.203,8.757,5.862,11.158c2.047,1.344,4.517,2.038,6.857,2.674
			c2.79,0.759,5.638,1.302,8.494,1.751c5.437,0.854,10.926,1.415,16.411,1.853c5.105,0.407,10.204,0.797,15.314,1.123
			c8.093,0.516,16.187,1.033,24.28,1.549c1.696,0.108,3.392,0.216,5.088,0.325c0.06-1.007,0.12-2.014,0.181-3.021
			c2.134,0.146,4.268,0.291,6.4,0.461c1.063,0.085,2.125,0.182,3.188,0.276c0.112,0.01,0.467-0.022,0.558,0.049
			c0.096,0.076,0.146,0.535,0.183,0.673c0.122,0.458,0.252,0.913,0.39,1.366c1.152,3.788,2.844,7.406,5.008,10.721
			c2.23,3.418,4.966,6.499,8.085,9.13c3.081,2.598,6.542,4.742,10.235,6.354c3.525,1.539,7.262,2.586,11.072,3.107
			c3.5,0.478,7.061,0.514,10.569,0.099c3.621-0.428,7.184-1.327,10.573-2.674c3.587-1.426,6.974-3.349,10.036-5.7
			c3.112-2.389,5.884-5.217,8.212-8.375c2.296-3.114,4.156-6.549,5.512-10.173c0.321-0.858,0.609-1.726,0.878-2.601
			c2.081,1.554,3.964,3.278,5.159,5.615c0.789,1.542,1.582,2.899,3.503,3.043c0.506,0.038,1.025,0.01,1.532,0.015
			c1.196,0.012,2.392,0.024,3.588,0.036c1.834,0.018,3.668,0.037,5.502,0.056c2.398,0.024,4.796,0.048,7.194,0.073
			c2.912,0.029,5.824,0.059,8.737,0.088c3.386,0.034,6.772,0.068,10.158,0.103c3.771,0.038,7.542,0.076,11.313,0.114
			c4.134,0.042,8.267,0.083,12.401,0.125c4.401,0.044,8.802,0.089,13.203,0.133c4.629,0.047,9.259,0.093,13.888,0.14
			c4.824,0.049,9.647,0.097,14.471,0.146c4.916,0.05,9.832,0.099,14.748,0.149c4.973,0.05,9.946,0.1,14.92,0.151
			c4.996,0.05,9.993,0.101,14.989,0.151c4.916,0.05,9.833,0.099,14.749,0.149c4.802,0.048,9.605,0.097,14.407,0.145
			c4.652,0.047,9.305,0.094,13.957,0.141c4.402,0.044,8.804,0.089,13.206,0.133c4.117,0.042,8.234,0.083,12.35,0.125
			c3.791,0.038,7.582,0.077,11.373,0.115c3.373,0.034,6.747,0.068,10.12,0.102c2.917,0.029,5.833,0.059,8.75,0.088
			c2.413,0.024,4.826,0.049,7.239,0.073c1.83,0.018,3.66,0.037,5.49,0.055c1.202,0.012,2.404,0.024,3.606,0.036
			c0.518,0.005,1.036,0.011,1.554,0.016c2.633,0.023,5.267,0.037,7.9,0.056c2.197,0.015,4.394,0.031,6.591,0.046
			c0.435,0.003,1.164-0.136,1.579,0.011c0.37,0.131,0.733,0.912,0.982,1.253c1.79,2.445,3.849,4.696,6.125,6.697
			c2.224,1.955,4.654,3.669,7.238,5.114c2.745,1.535,5.665,2.756,8.683,3.638c3.033,0.886,6.167,1.428,9.322,1.608
			c2.944,0.169,5.905,0.028,8.82-0.422c3.163-0.489,6.271-1.342,9.239-2.54c2.874-1.16,5.621-2.633,8.171-4.397
			c2.431-1.681,4.681-3.619,6.706-5.772c1.009-1.073,1.961-2.199,2.851-3.372c0.315-0.416,0.781-1.384,1.237-1.552
			c0.372-0.137,0.955-0.063,1.35-0.089c0.592-0.039,1.185-0.078,1.777-0.117c3.288-0.216,6.58-0.336,9.87-0.506
			c2.964-0.153,5.934-0.362,8.892-0.603c3.556-0.29,7.108-0.586,10.658-0.935c3.205-0.315,6.405-0.674,9.595-1.114
			c3.177-0.438,6.345-0.956,9.486-1.61c2.635-0.549,5.62-0.972,8.017-2.264c1.641-0.884,2.895-2.596,3.647-4.262
			c0.238-0.528,0.445-1.107,0.449-1.693c0.006-0.97-0.618-1.535-1.42-1.936c-0.969-0.484-1.994-0.887-2.404-1.987
			c-0.305-0.82-0.305-1.756-0.265-2.616c0.089-1.907,0.475-4.022,2.426-4.853c0.918-0.391,2.044-0.503,2.709-1.329
			c0.494-0.613,0.661-1.447,0.756-2.209c0.179-1.432,0.112-2.892,0.065-4.33c-0.052-1.615-0.117-3.231-0.243-4.842
			c-0.105-1.345-0.227-2.714-0.556-4.026c-0.105-0.417-0.235-0.829-0.416-1.22c-0.151-0.329-0.519-0.724-0.55-1.051
			c-0.032-0.34,0.135-0.803,0.191-1.136c0.099-0.587,0.197-1.174,0.296-1.76c0.13-0.776,0.266-1.552,0.391-2.329
			c0.256-1.589,0.494-3.182,0.703-4.778c0.383-2.931,0.804-5.997,0.382-8.948c-0.305-2.132-1.211-3.958-2.767-5.454
			c-2.224-2.138-4.966-3.803-7.576-5.42c-2.747-1.702-5.577-3.265-8.459-4.725c-2.879-1.459-5.814-2.811-8.785-4.073
			c-3.122-1.326-6.286-2.55-9.47-3.716c-2.961-1.084-5.946-2.107-8.945-3.08c-3.035-0.986-6.08-1.948-9.144-2.842
			c-3.469-1.012-6.942-1.995-10.432-2.936c-3.008-0.811-6.036-1.557-9.07-2.267c-3.16-0.74-6.333-1.431-9.517-2.058
			c-3.295-0.648-6.598-1.248-9.912-1.786c-3.348-0.544-6.708-1.006-10.07-1.454c-3.254-0.434-6.521-0.775-9.784-1.12
			c-3.138-0.332-6.282-0.594-9.425-0.859c-3.426-0.289-6.85-0.546-10.28-0.782c-3.451-0.237-6.903-0.421-10.357-0.605
			c-3.172-0.169-6.348-0.286-9.522-0.387c-3.558-0.112-7.121-0.15-10.68-0.224c-3.256-0.068-6.514-0.083-9.77-0.119
			c-0.375-0.004-0.885,0.078-1.239-0.043c-0.296-0.101-0.602-0.379-0.865-0.545c-0.494-0.311-0.987-0.622-1.481-0.932
			c-1.329-0.837-2.66-1.669-3.999-2.49c-2.75-1.688-5.504-3.371-8.286-5.006c-3.153-1.853-6.318-3.682-9.491-5.501
			c-2.388-1.369-4.793-2.711-7.21-4.027c-3.073-1.673-6.13-3.381-9.225-5.013c-3.142-1.657-6.285-3.312-9.449-4.926
			c-3.027-1.545-6.076-3.045-9.127-4.542c-2.928-1.437-5.891-2.805-8.857-4.161c-1.348-0.617-2.709-1.209-4.067-1.803
			c-0.624-0.273-1.251-0.538-1.878-0.802C425.969,329.315,424.304,328.772,424.304,328.625z"/>
	</g>
	<g id="POLYLINE_38_">
		
			<path fill="none" stroke="#F368E0" stroke-width="3.5" stroke-linecap="round" stroke-linejoin="round" stroke-miterlimit="10" d="
			M170.013,451.902c0.038-4.31,0.663-8.576,1.97-12.688c1.286-4.048,3.192-7.893,5.631-11.37c2.485-3.542,5.522-6.691,8.967-9.308
			c3.395-2.579,7.188-4.629,11.202-6.066c4.013-1.437,8.246-2.259,12.507-2.421c4.323-0.164,8.669,0.342,12.837,1.503
			c4.092,1.14,8.004,2.902,11.567,5.214c3.605,2.339,6.847,5.234,9.574,8.556c2.728,3.322,4.937,7.064,6.53,11.056
			c1.574,3.945,2.542,8.125,2.864,12.361c0.328,4.314-0.021,8.675-1.023,12.884c-0.987,4.147-2.618,8.14-4.808,11.797
			c-2.19,3.657-4.94,6.979-8.13,9.808c-3.237,2.87-6.917,5.237-10.875,6.985c-3.885,1.716-8.028,2.836-12.249,3.311
			c-4.271,0.48-8.613,0.3-12.829-0.537c-4.216-0.836-8.298-2.327-12.063-4.401c-3.72-2.049-7.121-4.666-10.058-7.735
			c-2.991-3.126-5.489-6.718-7.385-10.607c-1.869-3.832-3.142-7.952-3.771-12.168C170.167,456.029,170.031,453.97,170.013,451.902z"
			/>
	</g>
	<g id="POLYLINE_19_">
		
			<path fill="none" stroke="#F368E0" stroke-width="3.5" stroke-linecap="round" stroke-linejoin="round" stroke-miterlimit="10" d="
			M533.063,451.902c0.037-4.31,0.663-8.576,1.97-12.688c1.286-4.048,3.192-7.893,5.631-11.37c2.485-3.542,5.522-6.691,8.967-9.308
			c3.395-2.579,7.188-4.629,11.202-6.066s8.246-2.259,12.507-2.421c4.323-0.164,8.669,0.342,12.837,1.503
			c4.092,1.14,8.004,2.902,11.567,5.214c3.605,2.339,6.847,5.234,9.574,8.556c2.728,3.322,4.937,7.064,6.53,11.056
			c1.574,3.945,2.542,8.125,2.864,12.361c0.328,4.314-0.021,8.675-1.023,12.884c-0.987,4.147-2.618,8.14-4.808,11.797
			s-4.94,6.979-8.13,9.808c-3.237,2.87-6.917,5.237-10.875,6.985c-3.885,1.716-8.028,2.836-12.249,3.311
			c-4.271,0.48-8.613,0.3-12.829-0.537c-4.216-0.836-8.298-2.327-12.063-4.401c-3.72-2.049-7.121-4.666-10.058-7.735
			c-2.991-3.126-5.489-6.718-7.385-10.607c-1.869-3.832-3.142-7.952-3.771-12.168C533.217,456.029,533.081,453.97,533.063,451.902z"
			/>
	</g>
</g>
</svg>
